<svg width="685" height="165" viewBox="0 0 685 165" fill="none" xmlns="http://www.w3.org/2000/svg">
<g clip-path="url(#clip0_401_2340)">
<path d="M16.1942 127.679C16.9419 129.477 18.0315 130.881 19.4843 131.933C20.9157 132.986 22.6248 133.731 24.6117 134.192C26.5985 134.652 28.7563 134.872 31.0637 134.872C32.7087 134.872 34.3537 134.652 35.9774 134.236C37.6011 133.819 39.0966 133.183 40.4425 132.35C41.7671 131.517 42.878 130.42 43.7326 129.083C44.5872 127.745 45.0145 126.144 45.0145 124.237C45.0145 122.329 44.459 120.926 43.3694 119.763C42.2799 118.601 40.8485 117.614 39.118 116.759C37.3661 115.926 35.4006 115.18 33.1787 114.545C30.9568 113.909 28.7136 113.251 26.4704 112.549C24.1417 111.847 21.8984 111.014 19.6979 110.027C17.5188 109.041 15.5533 107.791 13.8014 106.234C12.0495 104.699 10.6609 102.791 9.59264 100.555C8.52443 98.3179 8.01169 95.577 8.01169 92.3536C8.01169 88.1434 8.86626 84.5692 10.5754 81.6089C12.2845 78.6706 14.5064 76.2586 17.241 74.3947C19.9756 72.5308 23.0734 71.1713 26.5131 70.2942C29.9741 69.4171 33.4778 68.9785 37.0243 68.9785C40.7844 68.9785 44.3308 69.4171 47.6423 70.2942C50.9537 71.1713 53.8592 72.5966 56.3589 74.5482C58.8585 76.5217 60.8453 79.0215 62.2981 82.0694C63.7722 85.1174 64.4986 88.8232 64.4986 93.1649H49.2232C49.2873 91.0598 49.0096 89.2837 48.3473 87.8584C47.7064 86.4111 46.7663 85.249 45.5699 84.328C44.3735 83.407 42.9635 82.7711 41.3185 82.3764C39.6734 81.9817 37.9429 81.8063 36.0842 81.8063C34.5887 81.8063 33.0505 81.9598 31.5123 82.2887C29.9741 82.6176 28.5854 83.122 27.3676 83.8675C26.1285 84.6131 25.1458 85.5779 24.398 86.762C23.6503 87.9461 23.2657 89.4372 23.2657 91.1914C23.2657 92.9456 23.928 94.5464 25.274 95.7743C26.5985 97.0023 28.2222 98.011 30.1023 98.8223C31.9823 99.6336 33.9051 100.27 35.892 100.708C37.8788 101.169 39.4811 101.541 40.7203 101.804C43.5831 102.572 46.2322 103.471 48.625 104.48C51.0178 105.488 53.0901 106.804 54.8206 108.427C56.5725 110.049 57.9184 112.001 58.8798 114.325C59.8412 116.65 60.3112 119.478 60.3112 122.855C60.3112 127.35 59.4139 131.166 57.598 134.323C55.782 137.481 53.4533 140.047 50.6333 141.998C47.7918 143.972 44.6085 145.375 41.0407 146.252C37.4943 147.129 33.9692 147.568 30.4868 147.568C20.232 147.568 12.5836 145.419 7.56304 141.143C2.54246 136.867 0.0214844 130.135 0.0214844 120.926H15.2969C15.1687 123.601 15.4678 125.815 16.2155 127.614L16.1942 127.679ZM101.01 145.945L102.655 138.358H102.441C97.7199 144.323 91.5457 147.305 83.8759 147.305C73.557 147.305 68.3869 142.459 68.3869 132.788C68.3869 132.218 68.4296 131.517 68.5365 130.64C68.6433 129.762 68.7715 128.863 68.9424 127.964C69.1133 127.043 69.2842 126.188 69.4551 125.377C69.626 124.566 69.7756 123.93 69.9251 123.425L76.4839 91.5422H91.0543L84.6023 123.425C84.4741 123.842 84.3459 124.346 84.2391 124.96C84.1323 125.552 84.0255 126.166 83.94 126.802C83.8332 127.438 83.7691 128.052 83.7264 128.644C83.6837 129.236 83.6837 129.719 83.6837 130.069C83.6837 131.692 84.41 133.008 85.8842 134.06C87.3583 135.113 88.9392 135.639 90.6484 135.639C92.8275 135.639 94.7717 135.201 96.4381 134.323C98.1045 133.446 99.5573 132.306 100.754 130.903C101.95 129.499 102.933 127.877 103.723 126.057C104.514 124.237 105.112 122.373 105.518 120.487L111.457 91.5422H126.027L114.961 145.967H101.01V145.945ZM151.878 91.5203L150.447 98.2522L150.66 98.4714C152.305 95.5331 154.549 93.3842 157.369 92.0466C160.21 90.709 163.265 90.0512 166.555 90.0512C172.986 90.0512 177.942 91.9808 181.425 95.8401C184.907 99.6994 186.659 104.918 186.659 111.518C186.659 116.014 186.082 120.399 184.907 124.675C183.754 128.951 181.959 132.788 179.566 136.143C177.173 139.52 174.182 142.217 170.593 144.257C167.004 146.296 162.753 147.305 157.817 147.305C156.322 147.305 154.784 147.129 153.245 146.778C151.707 146.428 150.276 145.901 148.93 145.2C147.605 144.498 146.409 143.599 145.341 142.524C144.272 141.428 143.482 140.156 142.927 138.687H142.627L137.094 165H122.631L137.799 91.5422H151.857L151.878 91.5203ZM154.655 103.581C152.669 105.094 151.024 107.001 149.678 109.326C148.353 111.65 147.349 114.15 146.708 116.847C146.067 119.544 145.725 122.066 145.725 124.368C145.725 127.942 146.58 130.815 148.289 132.942C149.998 135.091 152.626 136.143 156.194 136.143C158.992 136.143 161.385 135.398 163.372 133.929C165.359 132.46 167.004 130.596 168.286 128.359C169.589 126.122 170.55 123.667 171.149 120.991C171.768 118.316 172.067 115.794 172.067 113.404C172.067 111.782 171.854 110.247 171.405 108.778C170.956 107.308 170.315 106.015 169.461 104.94C168.606 103.844 167.538 102.967 166.235 102.309C164.932 101.651 163.436 101.3 161.727 101.3C158.992 101.3 156.642 102.046 154.655 103.559V103.581ZM214.539 91.5203L213.108 98.2522L213.322 98.4714C214.967 95.5331 217.21 93.3842 220.03 92.0466C222.871 90.709 225.926 90.0512 229.217 90.0512C235.647 90.0512 240.604 91.9808 244.086 95.8401C247.568 99.6994 249.32 104.918 249.32 111.518C249.32 116.014 248.743 120.399 247.568 124.675C246.415 128.951 244.62 132.788 242.227 136.143C239.835 139.52 236.844 142.217 233.254 144.257C229.665 146.296 225.414 147.305 220.479 147.305C218.983 147.305 217.445 147.129 215.907 146.778C214.368 146.428 212.937 145.901 211.591 145.2C210.266 144.498 209.07 143.599 208.002 142.524C206.934 141.428 206.143 140.156 205.588 138.687H205.289L199.755 165H185.292L200.46 91.5422H214.518L214.539 91.5203ZM217.317 103.581C215.33 105.094 213.685 107.001 212.339 109.326C211.014 111.65 210.01 114.15 209.369 116.847C208.728 119.544 208.386 122.066 208.386 124.368C208.386 127.942 209.241 130.815 210.95 132.942C212.659 135.091 215.287 136.143 218.855 136.143C221.654 136.143 224.046 135.398 226.033 133.929C228.02 132.46 229.665 130.596 230.947 128.359C232.25 126.122 233.212 123.667 233.81 120.991C234.429 118.316 234.728 115.794 234.728 113.404C234.728 111.782 234.515 110.247 234.066 108.778C233.618 107.308 232.977 106.015 232.122 104.94C231.267 103.844 230.199 102.967 228.896 102.309C227.593 101.651 226.097 101.3 224.388 101.3C221.654 101.3 219.304 102.046 217.317 103.559V103.581ZM257.054 110.839C258.464 106.738 260.472 103.142 263.1 100.05C265.728 96.9584 268.933 94.5244 272.693 92.7263C276.453 90.9283 280.683 90.0512 285.404 90.0512C289.036 90.0512 292.369 90.5336 295.403 91.4765C298.437 92.4194 301.064 93.8447 303.243 95.7305C305.423 97.6163 307.132 100.006 308.328 102.879C309.525 105.751 310.123 109.15 310.123 113.097C310.123 117.878 309.418 122.351 308.029 126.517C306.619 130.683 304.589 134.323 301.919 137.415C299.248 140.507 296.022 142.919 292.22 144.673C288.417 146.428 284.101 147.305 279.251 147.305C271.859 147.305 265.963 145.353 261.562 141.472C257.161 137.591 254.939 131.736 254.939 123.952C254.939 119.325 255.644 114.961 257.033 110.839H257.054ZM270.172 128.578C270.62 130.047 271.283 131.341 272.18 132.481C273.077 133.6 274.167 134.499 275.47 135.157C276.773 135.815 278.269 136.165 279.978 136.165C282.712 136.165 285.063 135.42 287.007 133.907C288.951 132.394 290.553 130.508 291.835 128.227C293.095 125.947 294.035 123.469 294.655 120.816C295.275 118.141 295.574 115.663 295.574 113.338C295.574 109.698 294.762 106.782 293.16 104.611C291.557 102.44 288.801 101.344 284.913 101.344C282.242 101.344 279.935 102.09 277.991 103.603C276.047 105.116 274.445 106.979 273.227 109.238C271.988 111.475 271.069 113.931 270.449 116.562C269.83 119.193 269.531 121.671 269.531 123.973C269.531 125.596 269.744 127.131 270.193 128.6L270.172 128.578ZM338.409 91.5203L336.251 101.3L336.465 101.519C338.11 97.7259 340.588 94.8753 343.9 92.9456C347.211 91.016 350.822 90.0512 354.71 90.0512C356.205 90.0512 357.722 90.1608 359.218 90.3581L356.248 104.874C355.223 104.655 354.197 104.458 353.172 104.238C352.146 104.019 351.121 103.931 350.095 103.931C347.296 103.931 344.925 104.414 342.959 105.401C341.015 106.387 339.37 107.725 338.046 109.391C336.721 111.08 335.653 112.988 334.862 115.137C334.072 117.286 333.452 119.5 332.961 121.825L328.047 145.923H313.584L324.565 91.4984H338.409V91.5203ZM399.724 91.5203L397.46 101.519H387.098L381.671 128.578C381.543 129.148 381.436 129.653 381.372 130.113C381.308 130.574 381.265 130.903 381.265 131.122C381.265 132.109 381.415 132.854 381.735 133.381C382.035 133.907 382.44 134.301 382.911 134.587C383.381 134.872 383.915 135.025 384.491 135.069C385.068 135.113 385.645 135.113 386.179 135.113C387.952 135.113 389.704 135.003 391.413 134.806L388.957 146.274C387.461 146.406 385.944 146.537 384.449 146.647C382.953 146.756 381.415 146.8 379.834 146.8C378.125 146.8 376.437 146.647 374.749 146.318C373.062 145.989 371.566 145.441 370.242 144.63C368.917 143.818 367.849 142.722 367.058 141.318C366.268 139.915 365.905 138.095 365.99 135.836C365.99 135.135 366.054 134.345 366.204 133.468C366.332 132.591 366.503 131.67 366.716 130.683L372.656 101.519H363.127L365.392 91.5203H374.728L378.018 74.9867H392.588L389.298 91.5203H399.767H399.724ZM472.939 70.7985C476.635 70.7985 479.947 71.0397 482.895 71.5441C485.843 72.0265 488.321 72.9255 490.372 74.2193C492.423 75.513 494.004 77.3111 495.094 79.5916C496.183 81.8721 496.739 84.8104 496.739 88.3846C496.739 90.4897 496.44 92.5509 495.82 94.5464C495.201 96.5418 494.303 98.3399 493.107 99.9187C491.911 101.497 490.479 102.813 488.791 103.866C487.125 104.918 485.181 105.576 483.002 105.861V106.08C486.484 107.067 489.176 108.931 491.056 111.716C492.936 114.479 493.876 117.702 493.876 121.342C493.876 125.421 493.107 128.995 491.569 132.087C490.031 135.179 487.958 137.744 485.373 139.762C482.767 141.801 479.797 143.336 476.443 144.388C473.089 145.441 469.564 145.967 465.889 145.967H426.921L442.175 70.7985H472.939ZM465.141 133.117C468.837 133.117 471.85 132.109 474.221 130.069C476.571 128.03 477.768 125.026 477.768 121.013C477.768 119.04 477.383 117.505 476.592 116.386C475.802 115.268 474.798 114.413 473.559 113.799C472.32 113.207 470.952 112.834 469.457 112.703C467.961 112.571 466.487 112.483 465.056 112.483H449.268L444.952 133.117H465.163H465.141ZM469.756 101.234C472.704 101.234 475.247 100.401 477.404 98.7565C479.562 97.1119 480.63 94.6341 480.63 91.3449C480.63 88.4066 479.861 86.3892 478.323 85.2928C476.785 84.1964 474.712 83.6702 472.127 83.6702H455.1L451.511 101.256H469.756V101.234ZM524.918 91.5422L522.761 101.322L522.974 101.541C524.619 97.7478 527.097 94.8972 530.409 92.9676C533.72 91.0379 537.331 90.0731 541.219 90.0731C542.715 90.0731 544.232 90.1827 545.727 90.3801L542.757 104.896C541.732 104.677 540.706 104.48 539.681 104.26C538.655 104.041 537.63 103.953 536.605 103.953C533.806 103.953 531.434 104.436 529.469 105.423C527.525 106.409 525.88 107.747 524.555 109.413C523.231 111.102 522.162 113.01 521.372 115.159C520.581 117.307 519.962 119.522 519.47 121.846L514.557 145.945H500.093L511.074 91.5203H524.918V91.5422ZM552.393 99.4801C553.974 97.1996 555.875 95.3577 558.14 93.9543C560.404 92.5509 562.925 91.5422 565.724 90.9502C568.523 90.3581 571.428 90.0512 574.44 90.0512C576.833 90.0512 579.333 90.2266 581.918 90.5774C584.524 90.9283 586.917 91.608 589.096 92.6386C591.275 93.6473 593.07 95.0946 594.48 96.9584C595.89 98.8223 596.552 101.3 596.488 104.37C596.488 106.958 596.104 110.027 595.356 113.536L590.634 135.42C590.357 136.407 590.165 137.613 590.079 139.06C589.972 140.507 589.93 141.735 589.93 142.788C589.93 143.709 590.1 144.761 590.442 145.945H575.872V140.573C573.885 142.897 571.471 144.586 568.587 145.682C565.724 146.778 562.733 147.305 559.656 147.305C556.794 147.305 554.273 146.91 552.115 146.143C549.957 145.375 548.163 144.344 546.731 143.029C545.3 141.735 544.232 140.222 543.548 138.512C542.864 136.801 542.522 134.981 542.522 133.095C542.522 127.833 544.274 123.623 547.799 120.465C551.324 117.307 556.302 115.334 562.712 114.566C566.13 114.15 569.099 113.821 571.642 113.624C574.163 113.404 576.278 113.075 577.944 112.615C579.611 112.154 580.871 111.497 581.683 110.619C582.495 109.742 582.922 108.427 582.922 106.672C582.922 105.269 582.623 104.151 582.003 103.296C581.384 102.462 580.615 101.783 579.696 101.3C578.777 100.818 577.773 100.467 576.726 100.291C575.658 100.116 574.654 100.028 573.693 100.028C571.086 100.028 568.779 100.686 566.728 101.98C564.677 103.274 563.417 105.291 562.925 108.032H549.295C549.765 104.589 550.79 101.739 552.371 99.4582L552.393 99.4801ZM574.141 121.89C572.026 122.132 569.911 122.329 567.775 122.46C566.408 122.592 565.083 122.833 563.78 123.14C562.477 123.447 561.344 123.93 560.34 124.566C559.357 125.201 558.545 126.057 557.926 127.153C557.306 128.249 557.007 129.631 557.007 131.319C557.007 133.359 557.819 134.872 559.421 135.902C561.024 136.911 562.882 137.437 565.019 137.437C567.283 137.437 569.164 137.064 570.702 136.341C572.24 135.595 573.543 134.652 574.59 133.49C575.658 132.328 576.491 131.012 577.111 129.543C577.731 128.074 578.243 126.605 578.649 125.114L580.081 119.851C578.243 120.969 576.256 121.649 574.141 121.912V121.89ZM626.74 91.5203L615.46 145.945H600.889L612.063 91.5203H626.719H626.74ZM613.708 83.1L616.378 70.7766H631.034L628.364 83.1H613.708ZM652.377 91.5203L650.732 99.1073H650.946C655.667 93.0772 661.841 90.0512 669.511 90.0512C679.83 90.0512 685 94.9191 685 104.677C685 105.247 684.936 105.949 684.786 106.826C684.658 107.703 684.487 108.602 684.316 109.501C684.146 110.422 683.975 111.277 683.804 112.089C683.633 112.9 683.505 113.536 683.441 114.04L676.882 145.923H662.311L668.763 114.04C668.892 113.207 669.084 112.067 669.319 110.663C669.554 109.26 669.682 108.164 669.682 107.396C669.682 105.773 668.956 104.458 667.481 103.405C666.007 102.353 664.426 101.826 662.717 101.826C660.538 101.826 658.594 102.265 656.928 103.142C655.261 104.019 653.808 105.159 652.612 106.563C651.416 107.966 650.433 109.589 649.642 111.409C648.852 113.229 648.254 115.093 647.848 116.979L641.909 145.923H627.445L638.426 91.4984H652.377V91.5203Z" fill="white"/>
</g>
<path d="M84.0259 23.848H89.3539L88.5139 21.16C87.8659 19.168 87.3139 17.248 86.7379 15.208H86.6419C86.0899 17.272 85.5139 19.168 84.8899 21.16L84.0259 23.848ZM91.5859 31L89.9059 25.624H83.4739L81.7699 31H79.5139L85.4899 13.408H87.9619L93.9379 31H91.5859ZM100.26 31V13.408H102.492V31H100.26ZM113.027 12.832L115.187 13C115.043 13.408 114.827 14.176 114.731 14.608C114.275 16.792 113.579 21.04 113.579 23.704C113.579 24.856 113.627 25.816 113.771 26.968C114.179 25.888 114.707 24.496 115.091 23.56L116.123 24.328C115.523 26.008 114.659 28.528 114.443 29.656C114.371 29.992 114.323 30.448 114.323 30.712L114.395 31.552L112.667 31.672C112.187 29.992 111.803 27.256 111.803 24.04C111.803 20.536 112.571 16.456 112.859 14.512C112.931 13.96 113.027 13.336 113.027 12.832ZM118.883 24.352L120.611 24.52C120.395 25.384 120.299 26.056 120.299 26.704C120.299 27.784 121.019 28.84 124.283 28.84C126.419 28.84 128.243 28.648 130.163 28.216L130.187 30.232C128.723 30.52 126.731 30.712 124.259 30.712C120.275 30.712 118.499 29.392 118.499 27.16C118.499 26.296 118.667 25.36 118.883 24.352ZM119.699 16.792L119.675 14.824C122.267 15.256 127.067 15.16 129.443 14.824V16.792C126.899 17.056 122.291 17.056 119.699 16.792ZM147.779 27.736C147.779 27.352 147.755 26.848 147.755 26.248C146.987 26.08 146.219 26.008 145.427 26.008C142.979 26.008 141.587 26.848 141.587 28.144C141.587 29.464 142.907 30.184 145.187 30.184C146.939 30.184 147.779 29.368 147.779 27.736ZM149.387 18.76V18.928C149.387 20.488 149.507 22.792 149.627 24.856C152.675 25.696 155.291 27.352 157.019 28.912L155.867 30.688C154.355 29.152 152.171 27.64 149.699 26.776C149.723 27.4 149.747 27.928 149.747 28.36C149.747 30.304 148.547 31.984 145.379 31.984C142.115 31.984 139.691 30.928 139.691 28.216C139.691 26.08 141.563 24.304 145.667 24.304C146.339 24.304 147.011 24.352 147.683 24.448C147.587 22.528 147.491 20.344 147.491 18.928C147.491 17.56 147.491 15.592 147.467 14.584C147.443 13.72 147.371 12.688 147.275 12.232H149.579C149.483 12.736 149.411 13.864 149.387 14.584C149.363 15.232 149.387 16.072 149.387 17.008C151.283 16.96 154.283 16.84 156.419 16.552L156.491 18.376C154.379 18.568 151.331 18.712 149.387 18.76ZM175.661 30.208C176.333 30.208 176.981 30.16 177.557 30.064C177.341 28.192 176.213 26.896 174.413 26.896C173.333 26.896 172.517 27.544 172.517 28.36C172.517 29.536 173.885 30.208 175.661 30.208ZM180.557 12.952L181.661 14.344C181.229 14.632 180.701 14.992 180.341 15.256C179.165 16.144 175.973 18.952 174.149 20.488C175.229 20.128 176.309 19.984 177.365 19.984C181.325 19.984 184.181 22.384 184.181 25.6C184.181 29.44 180.989 31.936 175.973 31.936C172.733 31.936 170.741 30.496 170.741 28.528C170.741 26.896 172.205 25.408 174.413 25.408C177.389 25.408 178.997 27.4 179.309 29.608C181.181 28.888 182.261 27.52 182.261 25.576C182.261 23.248 179.909 21.544 176.909 21.544C172.997 21.544 170.837 23.2 167.813 26.272L166.421 24.856C168.389 23.224 171.437 20.68 172.829 19.528C174.149 18.424 177.101 15.928 178.277 14.872C177.029 14.92 172.349 15.136 171.125 15.208C170.573 15.232 170.021 15.256 169.517 15.352L169.469 13.36C169.997 13.432 170.669 13.432 171.149 13.432C172.373 13.432 178.013 13.264 179.261 13.144C179.957 13.072 180.293 13.024 180.557 12.952ZM209.933 18.16L209.045 19.552C208.421 19.096 207.533 18.544 206.573 18.016C205.685 19.768 204.341 21.304 202.205 22.36C201.989 22 201.509 21.4 201.149 21.112C203.141 20.2 204.341 18.832 205.133 17.296C204.077 16.792 202.997 16.336 202.013 16L202.901 14.752C203.789 15.04 204.749 15.448 205.709 15.856C205.949 15.088 206.141 14.272 206.261 13.48H202.229V11.944H213.677C213.677 11.944 213.677 12.472 213.653 12.688C213.437 18.328 213.197 20.416 212.597 21.112C212.237 21.592 211.829 21.76 211.181 21.808C210.605 21.856 209.501 21.856 208.373 21.784C208.349 21.28 208.181 20.632 207.917 20.176C208.997 20.272 210.005 20.272 210.389 20.272C210.797 20.296 211.013 20.248 211.157 20.032C211.565 19.6 211.781 17.92 211.973 13.48H207.917C207.749 14.536 207.509 15.568 207.173 16.576C208.253 17.128 209.237 17.68 209.933 18.16ZM205.133 22.456L206.165 21.4C207.701 22.216 209.573 23.512 210.437 24.52L209.333 25.696C208.469 24.712 206.669 23.32 205.133 22.456ZM200.285 11.752V13.192H193.709V11.752H200.285ZM201.029 14.896V16.36H192.533V14.896H201.029ZM200.357 18.136V19.552H193.589V18.136H200.357ZM193.589 22.744V21.304H200.357V22.744H193.589ZM198.845 25.984H195.077V30.016H198.845V25.984ZM200.381 24.52V31.456H195.077V32.56H193.565V24.52H200.381ZM201.845 31.528L200.549 30.688C201.677 29.488 202.205 27.4 202.445 25.432L203.885 25.792C203.645 27.904 203.117 30.208 201.845 31.528ZM207.149 31.072H209.381C210.005 31.072 210.125 30.736 210.197 28.336C210.533 28.648 211.205 28.888 211.685 29.032C211.517 31.912 211.085 32.632 209.573 32.632H206.909C205.133 32.632 204.701 32.152 204.701 30.376V24.616H206.357V30.376C206.357 30.976 206.453 31.072 207.149 31.072ZM210.677 25.576L212.117 25C213.413 26.752 214.493 29.08 214.829 30.712L213.269 31.36C212.957 29.752 211.901 27.352 210.677 25.576ZM227.237 15.784V19.744C227.237 19.984 227.237 20.272 227.213 20.56H231.725V22.264H227.117C227.069 22.792 226.973 23.344 226.877 23.872C228.005 25 230.909 28.24 231.653 29.08L230.453 30.592C229.637 29.416 227.765 27.16 226.469 25.696C225.701 28.24 224.237 30.832 221.501 32.776C221.261 32.392 220.637 31.72 220.253 31.456C223.901 28.864 225.029 25.408 225.341 22.264H220.517V20.56H225.461C225.461 20.272 225.461 19.984 225.461 19.72V15.784H223.637C223.061 17.224 222.437 18.52 221.693 19.552C221.381 19.24 220.637 18.76 220.229 18.52C221.645 16.672 222.629 13.816 223.205 10.912L224.933 11.248C224.741 12.256 224.477 13.216 224.189 14.128H231.029V15.784H227.237ZM234.221 28.576H239.285V14.68H234.221V28.576ZM232.493 13H241.061V31.912H239.285V30.256H234.221V32.152H232.493V13ZM251.693 19.984L250.277 20.728C250.037 19.552 249.245 17.656 248.453 16.24L249.773 15.616C250.613 16.984 251.453 18.808 251.693 19.984ZM263.261 25.168V30.616H270.197V32.2H253.493V30.616H256.373V22.408H258.029V30.616H261.533V19.336H255.269V17.776H269.453V19.336H263.261V23.608H269.045V25.168H263.261ZM261.317 13.696H270.197V15.28H253.805V20.8C253.805 24.496 253.301 29.584 250.013 32.872C249.773 32.56 249.101 31.912 248.741 31.672C250.685 29.704 251.501 27.208 251.861 24.76C250.781 25.384 249.701 26.008 248.693 26.56L248.069 24.928C249.125 24.472 250.541 23.728 252.029 22.96C252.077 22.192 252.101 21.472 252.101 20.776V13.696H259.469V10.936H261.317V13.696ZM280.229 18.808L278.693 19.624C278.237 18.28 277.109 16.168 276.005 14.656L277.445 13.96C278.573 15.472 279.773 17.464 280.229 18.808ZM280.565 23.728V10.936H282.269V32.8H280.565V25.648C279.221 26.608 277.853 27.52 276.653 28.312L275.765 26.536C276.965 25.864 278.789 24.808 280.565 23.728ZM295.349 10.912L296.621 12.304C293.189 13.336 287.981 14.104 283.541 14.584C283.493 14.152 283.253 13.528 283.037 13.144C287.429 12.64 292.493 11.824 295.349 10.912ZM291.341 18.808L289.685 19.24C289.589 18.112 289.133 16.288 288.605 14.896L290.165 14.512C290.741 15.904 291.221 17.68 291.341 18.808ZM287.165 19.648L285.581 20.224C285.341 19.072 284.645 17.224 283.925 15.808L285.389 15.328C286.181 16.672 286.901 18.472 287.165 19.648ZM285.197 25.672L286.637 24.904C287.861 26.128 289.253 27.88 289.853 29.08L288.317 29.992C287.765 28.792 286.445 26.968 285.197 25.672ZM297.989 22.264V23.92H294.725V30.664C294.725 31.696 294.509 32.224 293.741 32.512C292.997 32.776 291.725 32.8 289.853 32.8C289.781 32.32 289.517 31.576 289.253 31.072C290.741 31.12 292.085 31.12 292.469 31.096C292.877 31.072 292.973 31 292.973 30.64V23.92H283.253V22.264H292.973V20.752L291.797 20.08C293.141 18.52 294.941 16.072 295.925 14.2L297.557 15.016C296.381 16.84 294.869 18.88 293.597 20.368H294.725V22.264H297.989ZM325.493 23.2H317.021C319.205 26.128 322.757 28.984 325.997 30.376C325.613 30.736 325.037 31.408 324.749 31.888C321.557 30.304 318.125 27.304 315.797 24.136V32.824H313.949V24.184C311.621 27.352 308.213 30.232 305.069 31.792C304.781 31.36 304.205 30.688 303.821 30.328C307.037 28.936 310.565 26.128 312.749 23.2H304.325V21.496H313.949V15.52H305.453V13.816H313.949V10.936H315.797V13.816H324.485V15.52H315.797V21.496H325.493V23.2ZM307.397 16.672L308.957 16.072C309.917 17.464 310.901 19.312 311.237 20.56L309.557 21.208C309.245 20.008 308.333 18.064 307.397 16.672ZM320.069 21.256L318.581 20.752C319.397 19.456 320.429 17.416 321.005 15.976L322.829 16.552C321.989 18.184 320.933 20.08 320.069 21.256ZM336.029 12.976H338.237C338.189 13.432 338.165 14.128 338.165 14.704V22.72C338.165 23.32 338.189 24.112 338.237 24.544H336.029C336.053 24.184 336.125 23.416 336.125 22.696V14.704C336.125 14.272 336.077 13.432 336.029 12.976ZM347.141 12.808H349.349C349.301 13.384 349.253 14.08 349.253 14.872V18.76C349.253 24.52 348.485 26.416 346.757 28.48C345.197 30.352 342.797 31.384 341.045 31.984L339.485 30.328C341.693 29.776 343.757 28.816 345.245 27.136C346.973 25.144 347.261 23.2 347.261 18.664V14.872C347.261 14.08 347.189 13.384 347.141 12.808ZM376.541 14.008L377.765 14.944C377.621 15.136 377.309 15.664 377.165 16C376.349 18.064 374.837 20.872 373.133 23.032C375.653 25.192 378.581 28.312 380.141 30.184L378.461 31.648C376.853 29.536 374.309 26.704 371.861 24.52C369.293 27.28 366.053 29.92 362.501 31.528L360.965 29.92C364.829 28.408 368.381 25.552 370.853 22.792C372.485 20.944 374.237 18.088 374.837 16.12H365.477C364.637 16.12 363.317 16.216 363.053 16.24V14.056C363.389 14.104 364.757 14.224 365.477 14.224H374.741C375.533 14.224 376.157 14.128 376.541 14.008ZM405.725 15.04L407.333 16C407.141 16.336 406.901 16.888 406.757 17.272C406.109 19.672 404.645 22.936 402.509 25.528C400.325 28.192 397.469 30.4 392.957 32.056L391.229 30.496C395.621 29.2 398.621 27.016 400.805 24.472C402.677 22.264 404.141 19.168 404.621 16.984H396.509C395.069 19 393.053 21.136 390.437 22.888L388.781 21.64C392.933 19.168 395.285 15.688 396.317 13.528C396.581 13.12 396.917 12.256 397.061 11.632L399.293 12.376C398.885 13 398.453 13.792 398.213 14.248C398.045 14.584 397.853 14.92 397.637 15.256H404.165C404.813 15.256 405.341 15.184 405.725 15.04ZM435.629 19.696L437.045 20.368C435.773 22.456 434.213 24.736 432.749 26.2L431.309 25.288C432.197 24.328 433.253 22.936 434.117 21.544H427.301V30.592C427.301 31.696 427.013 32.2 426.173 32.464C425.333 32.728 423.941 32.752 421.853 32.752C421.733 32.248 421.421 31.528 421.181 31.024C422.837 31.096 424.445 31.072 424.925 31.048C425.357 31.024 425.501 30.928 425.501 30.568V21.544H415.613V19.84H428.045C426.005 18.808 423.269 17.56 421.133 16.648L422.045 15.328C423.365 15.856 424.925 16.504 426.389 17.152C427.901 16.288 429.653 15.04 430.949 13.864H417.869V12.208H432.677L433.085 12.112L434.381 13.096C432.677 14.8 430.301 16.624 428.141 17.968C429.125 18.4 430.061 18.856 430.733 19.216L430.325 19.84H435.269L435.629 19.696ZM451.157 17.992V20.944H454.949V17.992H451.157ZM451.157 22.432V25.432H454.949V22.432H451.157ZM451.157 13.576V16.504H454.949V13.576H451.157ZM449.621 11.992H456.557V26.992H449.621V11.992ZM453.845 28.168L455.189 27.424C456.173 28.552 457.373 30.136 457.925 31.096L456.509 31.984C455.981 30.976 454.805 29.344 453.845 28.168ZM450.605 27.496L452.261 27.928C451.445 29.776 450.077 31.696 448.805 32.896C448.517 32.632 447.797 32.152 447.413 31.912C448.685 30.808 449.909 29.128 450.605 27.496ZM462.533 10.936H464.141V30.592C464.141 31.696 463.877 32.2 463.205 32.488C462.533 32.776 461.405 32.824 459.437 32.824C459.365 32.368 459.149 31.6 458.909 31.144C460.325 31.192 461.597 31.168 461.957 31.144C462.365 31.144 462.533 31.024 462.533 30.616V10.936ZM458.357 13.384H459.941V27.016H458.357V13.384ZM444.101 12.448L445.133 11.176C446.477 11.8 448.109 12.808 448.925 13.6L447.869 15.016C447.101 14.224 445.445 13.12 444.101 12.448ZM443.069 18.856L444.077 17.56C445.469 18.112 447.173 19.024 448.013 19.768L447.005 21.232C446.189 20.488 444.485 19.48 443.069 18.856ZM443.573 31.576C444.533 29.728 445.901 26.656 446.885 23.968L448.301 24.904C447.413 27.4 446.213 30.328 445.181 32.536L443.573 31.576ZM490.829 15.352C491.693 15.352 492.413 14.632 492.413 13.768C492.413 12.904 491.693 12.16 490.829 12.16C489.941 12.16 489.245 12.904 489.245 13.768C489.245 14.632 489.941 15.352 490.829 15.352ZM475.445 14.56H487.469C487.709 14.56 487.973 14.56 488.261 14.536C488.189 14.296 488.141 14.032 488.141 13.768C488.141 12.28 489.341 11.056 490.829 11.056C492.317 11.056 493.517 12.28 493.517 13.768C493.517 15.256 492.317 16.456 490.829 16.456C490.517 16.456 490.205 16.408 489.917 16.312L489.869 16.576C489.341 19.096 488.189 22.96 486.293 25.432C484.085 28.24 481.229 30.472 476.837 31.84L475.205 30.04C479.861 28.888 482.549 26.848 484.565 24.28C486.269 22.096 487.373 18.76 487.709 16.456H475.421C474.485 16.456 473.645 16.504 473.045 16.528V14.416C473.693 14.488 474.653 14.56 475.445 14.56ZM516.389 16.504H503.261V27.904H516.389V16.504ZM518.357 16.432V28.264C518.357 29.032 518.381 30.88 518.405 31.144H516.341C516.341 30.976 516.365 30.424 516.365 29.776H503.261C503.285 30.4 503.285 30.976 503.309 31.144H501.245C501.269 30.856 501.317 29.08 501.317 28.24V16.432C501.317 15.88 501.317 15.136 501.269 14.56C502.205 14.584 502.853 14.608 503.405 14.608H516.293C516.821 14.608 517.685 14.608 518.405 14.56C518.357 15.16 518.357 15.832 518.357 16.432ZM535.901 15.832H542.405C543.053 15.832 543.581 15.76 543.965 15.616L545.549 16.576C545.357 16.912 545.117 17.464 544.997 17.848C544.349 20.272 542.885 23.512 540.749 26.128C538.565 28.792 535.685 30.976 531.197 32.656L529.445 31.072C533.861 29.776 536.861 27.616 539.045 25.048C540.917 22.864 542.381 19.744 542.861 17.56H534.773C533.309 19.6 531.317 21.736 528.677 23.464L527.021 22.24C531.149 19.768 533.501 16.264 534.557 14.128C534.797 13.696 535.157 12.832 535.301 12.208L537.509 12.952C537.125 13.576 536.693 14.392 536.453 14.824C536.285 15.16 536.093 15.496 535.901 15.832ZM542.693 12.352L543.965 11.8C544.565 12.664 545.429 14.104 545.933 15.088L544.637 15.664C544.157 14.704 543.341 13.24 542.693 12.352ZM545.333 11.392L546.605 10.84C547.229 11.728 548.165 13.216 548.597 14.104L547.325 14.68C546.797 13.648 546.005 12.28 545.333 11.392ZM573.149 18.592L574.517 19.456C574.397 19.672 574.253 19.984 574.205 20.152C573.557 22.528 572.477 25.024 570.701 26.968C568.181 29.728 565.157 31.144 562.109 31.984L560.621 30.28C564.029 29.584 567.029 28.024 569.069 25.888C570.533 24.352 571.493 22.312 571.925 20.584H559.181C558.605 20.584 557.693 20.608 556.853 20.656V18.64C557.717 18.736 558.533 18.784 559.181 18.784H571.829C572.381 18.784 572.885 18.736 573.149 18.592ZM558.989 15.112V13.12C559.613 13.216 560.381 13.24 561.149 13.24H570.581C571.349 13.24 572.189 13.216 572.765 13.12V15.112C572.189 15.064 571.373 15.04 570.557 15.04H561.149C560.405 15.04 559.637 15.064 558.989 15.112ZM602.95 30.904L600.958 31.816C600.646 30.952 600.166 29.848 599.638 28.672C595.918 29.152 587.902 30.04 584.686 30.328C584.086 30.376 583.39 30.496 582.694 30.592L582.334 28.36C583.054 28.384 583.87 28.36 584.566 28.336C584.926 28.312 585.334 28.288 585.766 28.264C587.11 24.952 589.558 17.272 590.23 14.92C590.518 13.816 590.614 13.24 590.71 12.616L593.086 13.096C592.846 13.696 592.582 14.32 592.27 15.328C591.55 17.584 589.198 24.952 587.998 28.072C591.526 27.736 596.134 27.208 598.75 26.872C597.79 24.976 596.734 23.104 595.846 21.952L597.646 21.136C599.35 23.608 601.966 28.432 602.95 30.904Z" fill="white"/>
<defs>
<clipPath id="clip0_401_2340">
<rect width="685" height="96" fill="white" transform="translate(0 69)"/>
</clipPath>
</defs>
</svg>
