<svg width="330" height="116" viewBox="0 0 330 116" fill="none" xmlns="http://www.w3.org/2000/svg">
<path d="M7.79147 98.121C8.15171 98.9824 8.67663 99.6547 9.37652 100.159C10.0661 100.663 10.8895 101.02 11.8467 101.241C12.8039 101.462 13.8435 101.567 14.9551 101.567C15.7476 101.567 16.5401 101.462 17.3224 101.262C18.1046 101.062 18.8251 100.758 19.4735 100.359C20.1117 99.9594 20.6469 99.4341 21.0586 98.7933C21.4703 98.1525 21.6761 97.3857 21.6761 96.4718C21.6761 95.5579 21.4085 94.8856 20.8836 94.3288C20.3587 93.7721 19.6691 93.2994 18.8354 92.8897C17.9914 92.4905 17.0445 92.1334 15.9741 91.8287C14.9036 91.5241 13.8229 91.209 12.7422 90.8728C11.6203 90.5367 10.5396 90.1375 9.47945 89.6648C8.42961 89.1921 7.48269 88.5933 6.6387 87.8475C5.79471 87.1121 5.12569 86.1982 4.61107 85.1267C4.09644 84.0553 3.84942 82.7422 3.84942 81.198C3.84942 79.1811 4.26112 77.4688 5.08452 76.0507C5.90793 74.6431 6.97835 73.4876 8.2958 72.5947C9.61325 71.7018 11.1057 71.0505 12.7628 70.6303C14.4302 70.2101 16.1181 70 17.8267 70C19.6382 70 21.3468 70.2101 22.9421 70.6303C24.5375 71.0505 25.9372 71.7333 27.1415 72.6682C28.3457 73.6136 29.3029 74.8111 30.0028 76.2713C30.713 77.7314 31.0629 79.5067 31.0629 81.5867H23.7038C23.7346 80.5782 23.6008 79.7273 23.2818 79.0445C22.973 78.3512 22.5201 77.7945 21.9437 77.3533C21.3674 76.9121 20.688 76.6074 19.8955 76.4184C19.103 76.2293 18.2693 76.1452 17.3738 76.1452C16.6534 76.1452 15.9123 76.2188 15.1712 76.3763C14.4302 76.5339 13.7612 76.7755 13.1745 77.1327C12.5775 77.4898 12.104 77.952 11.7438 78.5193C11.3836 79.0866 11.1983 79.8009 11.1983 80.6412C11.1983 81.4816 11.5174 82.2485 12.1658 82.8367C12.8039 83.425 13.5862 83.9082 14.4919 84.2969C15.3977 84.6855 16.324 84.9902 17.2812 85.2003C18.2384 85.4209 19.0104 85.5995 19.6073 85.7255C20.9865 86.0932 22.2628 86.5239 23.4156 87.0071C24.5683 87.4903 25.5667 88.1206 26.4004 88.8979C27.2444 89.6753 27.8928 90.6102 28.356 91.7237C28.8192 92.8372 29.0456 94.1923 29.0456 95.81C29.0456 97.9635 28.6133 99.7913 27.7384 101.304C26.8636 102.817 25.7417 104.046 24.3831 104.981C23.0142 105.926 21.4806 106.598 19.7617 107.018C18.0531 107.439 16.3549 107.649 14.6772 107.649C9.73676 107.649 6.05202 106.619 3.63327 104.571C1.21452 102.522 0 99.2976 0 94.8856H7.35918C7.29742 96.1672 7.44152 97.2281 7.80176 98.0895L7.79147 98.121ZM48.6529 106.871L49.4455 103.237H49.3425C47.0679 106.094 44.0933 107.523 40.3983 107.523C35.427 107.523 32.9362 105.201 32.9362 100.569C32.9362 100.296 32.9568 99.9594 33.0082 99.5392C33.0597 99.119 33.1215 98.6883 33.2038 98.2576C33.2861 97.8164 33.3685 97.4067 33.4508 97.018C33.5332 96.6294 33.6052 96.3247 33.6773 96.0831L36.8371 80.8093H43.8566L40.7482 96.0831C40.6865 96.2827 40.6247 96.5243 40.5733 96.8185C40.5218 97.1021 40.4703 97.3962 40.4292 97.7008C40.3777 98.0055 40.3468 98.2996 40.3262 98.5832C40.3057 98.8669 40.3057 99.098 40.3057 99.266C40.3057 100.043 40.6556 100.674 41.3658 101.178C42.076 101.682 42.8376 101.934 43.661 101.934C44.7109 101.934 45.6475 101.724 46.4503 101.304C47.2531 100.884 47.953 100.338 48.5294 99.6652C49.1058 98.9929 49.5793 98.2156 49.9601 97.3437C50.3409 96.4718 50.6291 95.5789 50.8247 94.6755L53.686 80.8093H60.7055L55.374 106.882H48.6529V106.871ZM73.1595 80.7988L72.4699 84.0238L72.5728 84.1288C73.3654 82.7212 74.4461 81.6917 75.8047 81.0509C77.1736 80.4101 78.6454 80.095 80.2305 80.095C83.3286 80.095 85.7164 81.0194 87.3941 82.8682C89.0718 84.7171 89.9158 87.2172 89.9158 90.3791C89.9158 92.5325 89.6379 94.6335 89.0718 96.6819C88.516 98.7303 87.6514 100.569 86.4987 102.176C85.3459 103.794 83.9049 105.086 82.1758 106.063C80.4466 107.04 78.3984 107.523 76.0208 107.523C75.3004 107.523 74.5593 107.439 73.8182 107.271C73.0772 107.103 72.3876 106.85 71.7391 106.514C71.101 106.178 70.5246 105.747 70.01 105.233C69.4954 104.707 69.1145 104.098 68.8469 103.394H68.7028L66.0371 116H59.069L66.3767 80.8093H73.1492L73.1595 80.7988ZM74.4975 86.5764C73.5403 87.3012 72.7478 88.2151 72.0994 89.3286C71.4612 90.4421 70.9775 91.6396 70.6687 92.9317C70.3599 94.2238 70.1952 95.4318 70.1952 96.5348C70.1952 98.2471 70.607 99.6232 71.4304 100.642C72.2538 101.672 73.5197 102.176 75.2386 102.176C76.5869 102.176 77.7397 101.819 78.6969 101.115C79.6541 100.411 80.4466 99.5182 81.0642 98.4467C81.692 97.3752 82.1552 96.1987 82.4434 94.9171C82.7419 93.6355 82.886 92.4275 82.886 91.2825C82.886 90.5051 82.7831 89.7698 82.5669 89.066C82.3508 88.3622 82.042 87.7424 81.6303 87.2277C81.2186 86.7024 80.7039 86.2823 80.0761 85.9671C79.4483 85.652 78.7278 85.4839 77.9044 85.4839C76.5869 85.4839 75.4547 85.8411 74.4975 86.5659V86.5764ZM103.348 80.7988L102.658 84.0238L102.761 84.1288C103.553 82.7212 104.634 81.6917 105.993 81.0509C107.362 80.4101 108.834 80.095 110.419 80.095C113.517 80.095 115.905 81.0194 117.582 82.8682C119.26 84.7171 120.104 87.2172 120.104 90.3791C120.104 92.5325 119.826 94.6335 119.26 96.6819C118.704 98.7303 117.839 100.569 116.687 102.176C115.534 103.794 114.093 105.086 112.364 106.063C110.635 107.04 108.586 107.523 106.209 107.523C105.488 107.523 104.747 107.439 104.006 107.271C103.265 107.103 102.576 106.85 101.927 106.514C101.289 106.178 100.713 105.747 100.198 105.233C99.6834 104.707 99.3026 104.098 99.035 103.394H98.8909L96.2251 116H89.2571L96.5648 80.8093H103.337L103.348 80.7988ZM104.686 86.5764C103.728 87.3012 102.936 88.2151 102.287 89.3286C101.649 90.4421 101.166 91.6396 100.857 92.9317C100.548 94.2238 100.383 95.4318 100.383 96.5348C100.383 98.2471 100.795 99.6232 101.618 100.642C102.442 101.672 103.708 102.176 105.427 102.176C106.775 102.176 107.928 101.819 108.885 101.115C109.842 100.411 110.635 99.5182 111.252 98.4467C111.88 97.3752 112.343 96.1987 112.631 94.9171C112.93 93.6355 113.074 92.4275 113.074 91.2825C113.074 90.5051 112.971 89.7698 112.755 89.066C112.539 88.3622 112.23 87.7424 111.818 87.2277C111.407 86.7024 110.892 86.2823 110.264 85.9671C109.636 85.652 108.916 85.4839 108.092 85.4839C106.775 85.4839 105.643 85.8411 104.686 86.5659V86.5764ZM123.83 90.0534C124.509 88.0891 125.477 86.3663 126.743 84.8851C128.009 83.404 129.552 82.238 131.364 81.3766C133.175 80.5152 135.213 80.095 137.488 80.095C139.238 80.095 140.843 80.3261 142.305 80.7778C143.766 81.2295 145.032 81.9123 146.082 82.8157C147.132 83.7191 147.956 84.8641 148.532 86.2402C149.108 87.6164 149.396 89.2446 149.396 91.1354C149.396 93.4254 149.057 95.5684 148.388 97.5643C147.709 99.5602 146.731 101.304 145.444 102.785C144.158 104.266 142.603 105.422 140.771 106.262C138.939 107.103 136.86 107.523 134.524 107.523C130.963 107.523 128.122 106.588 126.002 104.728C123.881 102.869 122.811 100.064 122.811 96.3352C122.811 94.1187 123.15 92.0283 123.819 90.0534H123.83ZM130.149 98.5517C130.366 99.2555 130.685 99.8753 131.117 100.422C131.549 100.957 132.074 101.388 132.702 101.703C133.33 102.018 134.05 102.186 134.874 102.186C136.191 102.186 137.323 101.829 138.26 101.104C139.197 100.38 139.969 99.4761 140.586 98.3837C141.193 97.2912 141.646 96.1041 141.945 94.8331C142.243 93.5515 142.387 92.3645 142.387 91.251C142.387 89.5072 141.996 88.1101 141.224 87.0701C140.452 86.0301 139.125 85.5049 137.251 85.5049C135.965 85.5049 134.853 85.8621 133.916 86.5869C132.98 87.3117 132.208 88.2046 131.621 89.2866C131.024 90.3581 130.582 91.5346 130.283 92.7952C129.985 94.0557 129.841 95.2428 129.841 96.3457C129.841 97.1231 129.944 97.8584 130.16 98.5622L130.149 98.5517ZM163.024 80.7988L161.984 85.4839L162.087 85.5889C162.88 83.7716 164.074 82.406 165.669 81.4816C167.264 80.5572 169.004 80.095 170.877 80.095C171.598 80.095 172.328 80.1475 173.049 80.2421L171.618 87.1962C171.124 87.0911 170.63 86.9966 170.136 86.8915C169.642 86.7865 169.148 86.7445 168.654 86.7445C167.306 86.7445 166.163 86.9756 165.216 87.4483C164.28 87.921 163.487 88.5618 162.849 89.3601C162.211 90.169 161.696 91.0829 161.315 92.1124C160.934 93.1418 160.636 94.2028 160.399 95.3163L158.032 106.861H151.064L156.354 80.7883H163.024V80.7988ZM192.563 80.7988L191.472 85.5889H186.481L183.866 98.5517C183.805 98.8248 183.753 99.0665 183.722 99.2871C183.691 99.5077 183.671 99.6652 183.671 99.7703C183.671 100.243 183.743 100.6 183.897 100.852C184.041 101.104 184.237 101.293 184.463 101.43C184.69 101.567 184.947 101.64 185.225 101.661C185.503 101.682 185.781 101.682 186.038 101.682C186.892 101.682 187.736 101.63 188.56 101.535L187.376 107.029C186.656 107.092 185.925 107.155 185.204 107.208C184.484 107.26 183.743 107.281 182.981 107.281C182.158 107.281 181.345 107.208 180.531 107.05C179.718 106.892 178.998 106.63 178.36 106.241C177.722 105.852 177.207 105.327 176.826 104.655C176.445 103.983 176.27 103.111 176.312 102.029C176.312 101.693 176.342 101.314 176.414 100.894C176.476 100.474 176.559 100.033 176.661 99.5602L179.523 85.5889H174.932L176.023 80.7988H180.521L182.106 72.8783H189.126L187.541 80.7988H192.584H192.563ZM227.836 70.8719C229.617 70.8719 231.212 70.9874 232.632 71.229C234.053 71.4602 235.247 71.8908 236.235 72.5106C237.223 73.1304 237.985 73.9918 238.509 75.0843C239.034 76.1768 239.302 77.5844 239.302 79.2966C239.302 80.3051 239.158 81.2925 238.859 82.2485C238.561 83.2044 238.129 84.0658 237.552 84.8221C236.976 85.5784 236.286 86.2087 235.473 86.7129C234.67 87.2172 233.734 87.5323 232.684 87.6689V87.7739C234.362 88.2466 235.658 89.1395 236.564 90.4736C237.47 91.7972 237.923 93.3414 237.923 95.0852C237.923 97.0391 237.552 98.7513 236.811 100.232C236.07 101.714 235.072 102.943 233.826 103.909C232.571 104.886 231.14 105.621 229.524 106.126C227.908 106.63 226.21 106.882 224.44 106.882H205.666L213.015 70.8719H227.836ZM224.079 100.726C225.86 100.726 227.311 100.243 228.454 99.266C229.586 98.2891 230.162 96.85 230.162 94.9276C230.162 93.9822 229.977 93.2469 229.596 92.7111C229.215 92.1754 228.732 91.7657 228.135 91.4716C227.538 91.1879 226.879 91.0094 226.158 90.9463C225.438 90.8833 224.728 90.8413 224.038 90.8413H216.432L214.353 100.726H224.09H224.079ZM226.302 85.4524C227.723 85.4524 228.948 85.0532 229.987 84.2654C231.027 83.4775 231.541 82.2905 231.541 80.7148C231.541 79.3071 231.171 78.3407 230.43 77.8155C229.689 77.2902 228.69 77.0381 227.445 77.0381H219.242L217.513 85.4629H226.302V85.4524ZM252.878 80.8093L251.838 85.4944L251.941 85.5995C252.734 83.7821 253.928 82.4165 255.523 81.4921C257.118 80.5677 258.858 80.1055 260.731 80.1055C261.452 80.1055 262.182 80.158 262.903 80.2526L261.472 87.2067C260.978 87.1016 260.484 87.0071 259.99 86.902C259.496 86.797 259.002 86.755 258.508 86.755C257.16 86.755 256.017 86.9861 255.07 87.4588C254.134 87.9315 253.341 88.5723 252.703 89.3706C252.065 90.1795 251.55 91.0934 251.169 92.1229C250.788 93.1523 250.49 94.2133 250.253 95.3268L247.886 106.871H240.918L246.208 80.7988H252.878V80.8093ZM266.114 84.612C266.876 83.5195 267.792 82.6371 268.883 81.9648C269.974 81.2925 271.188 80.8093 272.537 80.5257C273.885 80.2421 275.285 80.095 276.736 80.095C277.889 80.095 279.093 80.179 280.338 80.3471C281.594 80.5152 282.747 80.8408 283.797 81.3346C284.847 81.8178 285.711 82.5111 286.39 83.404C287.07 84.2969 287.389 85.4839 287.358 86.9546C287.358 88.1941 287.173 89.6648 286.812 91.3455L284.538 101.829C284.404 102.302 284.311 102.88 284.27 103.573C284.219 104.266 284.198 104.855 284.198 105.359C284.198 105.8 284.28 106.304 284.445 106.871H277.426V104.298C276.468 105.411 275.305 106.22 273.916 106.745C272.537 107.271 271.096 107.523 269.614 107.523C268.234 107.523 267.02 107.334 265.98 106.966C264.941 106.598 264.076 106.105 263.387 105.474C262.697 104.855 262.182 104.13 261.853 103.31C261.524 102.491 261.359 101.619 261.359 100.716C261.359 98.1946 262.203 96.1777 263.901 94.665C265.599 93.1523 267.998 92.2069 271.085 91.8392C272.732 91.6396 274.163 91.4821 275.388 91.3875C276.602 91.2825 277.621 91.1249 278.424 90.9043C279.227 90.6837 279.834 90.3686 280.225 89.9484C280.616 89.5282 280.822 88.8979 280.822 88.0575C280.822 87.3852 280.678 86.8495 280.38 86.4398C280.081 86.0407 279.711 85.715 279.268 85.4839C278.825 85.2528 278.342 85.0847 277.837 85.0007C277.323 84.9166 276.839 84.8746 276.376 84.8746C275.12 84.8746 274.008 85.1898 273.02 85.8095C272.032 86.4293 271.425 87.3958 271.188 88.7088H264.622C264.848 87.0596 265.342 85.694 266.104 84.6015L266.114 84.612ZM276.592 95.3478C275.573 95.4634 274.554 95.5579 273.525 95.6209C272.866 95.6839 272.228 95.7995 271.6 95.9466C270.972 96.0936 270.427 96.3247 269.943 96.6294C269.469 96.934 269.078 97.3437 268.78 97.8689C268.481 98.3942 268.337 99.056 268.337 99.8648C268.337 100.842 268.728 101.567 269.5 102.06C270.272 102.544 271.168 102.796 272.197 102.796C273.288 102.796 274.194 102.617 274.935 102.27C275.676 101.913 276.304 101.462 276.808 100.905C277.323 100.348 277.724 99.7177 278.023 99.0139C278.321 98.3101 278.568 97.6063 278.764 96.892L279.453 94.3709C278.568 94.9066 277.611 95.2322 276.592 95.3583V95.3478ZM301.932 80.7988L296.498 106.871H289.478L294.861 80.7988H301.922H301.932ZM295.654 76.765L296.94 70.8614H304.001L302.714 76.765H295.654ZM314.283 80.7988L313.491 84.4334H313.594C315.868 81.5446 318.843 80.095 322.538 80.095C327.509 80.095 330 82.427 330 87.1016C330 87.3747 329.969 87.7109 329.897 88.1311C329.835 88.5513 329.753 88.982 329.671 89.4127C329.588 89.8538 329.506 90.2635 329.424 90.6522C329.341 91.0409 329.28 91.3455 329.249 91.5871L326.089 106.861H319.069L322.178 91.5871C322.239 91.1879 322.332 90.6417 322.445 89.9694C322.558 89.2971 322.62 88.7719 322.62 88.4042C322.62 87.6269 322.27 86.9966 321.56 86.4924C320.85 85.9881 320.088 85.736 319.265 85.736C318.215 85.736 317.278 85.9461 316.476 86.3663C315.673 86.7865 314.973 87.3327 314.396 88.005C313.82 88.6773 313.347 89.4547 312.966 90.3266C312.585 91.1984 312.297 92.0913 312.101 92.9947L309.24 106.861H302.272L307.562 80.7883H314.283V80.7988Z" fill="white"/>
<path d="M131.975 15.232H135.527L134.967 13.44C134.535 12.112 134.167 10.832 133.783 9.472H133.719C133.351 10.848 132.967 12.112 132.551 13.44L131.975 15.232ZM137.015 20L135.895 16.416H131.607L130.471 20H128.967L132.951 8.272H134.599L138.583 20H137.015ZM142.798 20V8.272H144.286V20H142.798ZM151.309 7.888L152.749 8C152.653 8.272 152.509 8.784 152.445 9.072C152.141 10.528 151.677 13.36 151.677 15.136C151.677 15.904 151.709 16.544 151.805 17.312C152.077 16.592 152.429 15.664 152.685 15.04L153.373 15.552C152.973 16.672 152.397 18.352 152.253 19.104C152.205 19.328 152.173 19.632 152.173 19.808L152.221 20.368L151.069 20.448C150.749 19.328 150.493 17.504 150.493 15.36C150.493 13.024 151.005 10.304 151.197 9.008C151.245 8.64 151.309 8.224 151.309 7.888ZM155.213 15.568L156.365 15.68C156.221 16.256 156.157 16.704 156.157 17.136C156.157 17.856 156.637 18.56 158.813 18.56C160.237 18.56 161.453 18.432 162.733 18.144L162.749 19.488C161.773 19.68 160.445 19.808 158.797 19.808C156.141 19.808 154.957 18.928 154.957 17.44C154.957 16.864 155.069 16.24 155.213 15.568ZM155.757 10.528L155.741 9.216C157.469 9.504 160.669 9.44 162.253 9.216V10.528C160.557 10.704 157.485 10.704 155.757 10.528ZM174.477 17.824C174.477 17.568 174.461 17.232 174.461 16.832C173.949 16.72 173.437 16.672 172.909 16.672C171.277 16.672 170.349 17.232 170.349 18.096C170.349 18.976 171.229 19.456 172.749 19.456C173.917 19.456 174.477 18.912 174.477 17.824ZM175.549 11.84V11.952C175.549 12.992 175.629 14.528 175.709 15.904C177.741 16.464 179.485 17.568 180.637 18.608L179.869 19.792C178.861 18.768 177.405 17.76 175.757 17.184C175.773 17.6 175.789 17.952 175.789 18.24C175.789 19.536 174.989 20.656 172.877 20.656C170.701 20.656 169.085 19.952 169.085 18.144C169.085 16.72 170.333 15.536 173.069 15.536C173.517 15.536 173.965 15.568 174.413 15.632C174.349 14.352 174.285 12.896 174.285 11.952C174.285 11.04 174.285 9.728 174.269 9.056C174.253 8.48 174.205 7.792 174.141 7.488H175.677C175.613 7.824 175.565 8.576 175.549 9.056C175.533 9.488 175.549 10.048 175.549 10.672C176.813 10.64 178.813 10.56 180.237 10.368L180.285 11.584C178.877 11.712 176.845 11.808 175.549 11.84ZM193.065 19.472C193.513 19.472 193.945 19.44 194.329 19.376C194.185 18.128 193.433 17.264 192.233 17.264C191.513 17.264 190.969 17.696 190.969 18.24C190.969 19.024 191.881 19.472 193.065 19.472ZM196.329 7.968L197.065 8.896C196.777 9.088 196.425 9.328 196.185 9.504C195.401 10.096 193.273 11.968 192.057 12.992C192.777 12.752 193.497 12.656 194.201 12.656C196.841 12.656 198.745 14.256 198.745 16.4C198.745 18.96 196.617 20.624 193.273 20.624C191.113 20.624 189.785 19.664 189.785 18.352C189.785 17.264 190.761 16.272 192.233 16.272C194.217 16.272 195.289 17.6 195.497 19.072C196.745 18.592 197.465 17.68 197.465 16.384C197.465 14.832 195.897 13.696 193.897 13.696C191.289 13.696 189.849 14.8 187.833 16.848L186.905 15.904C188.217 14.816 190.249 13.12 191.177 12.352C192.057 11.616 194.025 9.952 194.809 9.248C193.977 9.28 190.857 9.424 190.041 9.472C189.673 9.488 189.305 9.504 188.969 9.568L188.937 8.24C189.289 8.288 189.737 8.288 190.057 8.288C190.873 8.288 194.633 8.176 195.465 8.096C195.929 8.048 196.153 8.016 196.329 7.968ZM39.5942 38.44L39.0022 39.368C38.5862 39.064 37.9942 38.696 37.3542 38.344C36.7622 39.512 35.8662 40.536 34.4422 41.24C34.2982 41 33.9782 40.6 33.7382 40.408C35.0662 39.8 35.8662 38.888 36.3942 37.864C35.6902 37.528 34.9702 37.224 34.3142 37L34.9062 36.168C35.4982 36.36 36.1382 36.632 36.7782 36.904C36.9382 36.392 37.0662 35.848 37.1462 35.32H34.4582V34.296H42.0902C42.0902 34.296 42.0902 34.648 42.0742 34.792C41.9302 38.552 41.7702 39.944 41.3702 40.408C41.1302 40.728 40.8582 40.84 40.4262 40.872C40.0422 40.904 39.3062 40.904 38.5542 40.856C38.5382 40.52 38.4262 40.088 38.2502 39.784C38.9702 39.848 39.6422 39.848 39.8982 39.848C40.1702 39.864 40.3142 39.832 40.4102 39.688C40.6822 39.4 40.8262 38.28 40.9542 35.32H38.2502C38.1382 36.024 37.9782 36.712 37.7542 37.384C38.4742 37.752 39.1302 38.12 39.5942 38.44ZM36.3942 41.304L37.0822 40.6C38.1062 41.144 39.3542 42.008 39.9302 42.68L39.1942 43.464C38.6182 42.808 37.4182 41.88 36.3942 41.304ZM33.1622 34.168V35.128H28.7782V34.168H33.1622ZM33.6582 36.264V37.24H27.9942V36.264H33.6582ZM33.2102 38.424V39.368H28.6982V38.424H33.2102ZM28.6982 41.496V40.536H33.2102V41.496H28.6982ZM32.2022 43.656H29.6902V46.344H32.2022V43.656ZM33.2262 42.68V47.304H29.6902V48.04H28.6822V42.68H33.2262ZM34.2022 47.352L33.3382 46.792C34.0902 45.992 34.4422 44.6 34.6022 43.288L35.5622 43.528C35.4022 44.936 35.0502 46.472 34.2022 47.352ZM37.7382 47.048H39.2262C39.6422 47.048 39.7222 46.824 39.7702 45.224C39.9942 45.432 40.4422 45.592 40.7622 45.688C40.6502 47.608 40.3622 48.088 39.3542 48.088H37.5782C36.3942 48.088 36.1062 47.768 36.1062 46.584V42.744H37.2102V46.584C37.2102 46.984 37.2742 47.048 37.7382 47.048ZM40.0902 43.384L41.0502 43C41.9142 44.168 42.6342 45.72 42.8582 46.808L41.8182 47.24C41.6102 46.168 40.9062 44.568 40.0902 43.384ZM51.1302 36.856V39.496C51.1302 39.656 51.1302 39.848 51.1142 40.04H54.1222V41.176H51.0502C51.0182 41.528 50.9542 41.896 50.8902 42.248C51.6422 43 53.5782 45.16 54.0742 45.72L53.2742 46.728C52.7302 45.944 51.4822 44.44 50.6182 43.464C50.1062 45.16 49.1302 46.888 47.3062 48.184C47.1462 47.928 46.7302 47.48 46.4742 47.304C48.9062 45.576 49.6582 43.272 49.8662 41.176H46.6502V40.04H49.9462C49.9462 39.848 49.9462 39.656 49.9462 39.48V36.856H48.7302C48.3462 37.816 47.9302 38.68 47.4342 39.368C47.2262 39.16 46.7302 38.84 46.4582 38.68C47.4022 37.448 48.0582 35.544 48.4422 33.608L49.5942 33.832C49.4662 34.504 49.2902 35.144 49.0982 35.752H53.6582V36.856H51.1302ZM55.7862 45.384H59.1622V36.12H55.7862V45.384ZM54.6342 35H60.3462V47.608H59.1622V46.504H55.7862V47.768H54.6342V35ZM67.4342 39.656L66.4902 40.152C66.3302 39.368 65.8022 38.104 65.2742 37.16L66.1542 36.744C66.7142 37.656 67.2742 38.872 67.4342 39.656ZM75.1462 43.112V46.744H79.7702V47.8H68.6342V46.744H70.5542V41.272H71.6582V46.744H73.9942V39.224H69.8182V38.184H79.2742V39.224H75.1462V42.072H79.0022V43.112H75.1462ZM73.8502 35.464H79.7702V36.52H68.8422V40.2C68.8422 42.664 68.5062 46.056 66.3142 48.248C66.1542 48.04 65.7062 47.608 65.4662 47.448C66.7622 46.136 67.3062 44.472 67.5462 42.84C66.8262 43.256 66.1062 43.672 65.4342 44.04L65.0182 42.952C65.7222 42.648 66.6662 42.152 67.6582 41.64C67.6902 41.128 67.7062 40.648 67.7062 40.184V35.464H72.6182V33.624H73.8502V35.464ZM86.4582 38.872L85.4342 39.416C85.1302 38.52 84.3782 37.112 83.6422 36.104L84.6022 35.64C85.3542 36.648 86.1542 37.976 86.4582 38.872ZM86.6822 42.152V33.624H87.8182V48.2H86.6822V43.432C85.7862 44.072 84.8742 44.68 84.0742 45.208L83.4822 44.024C84.2822 43.576 85.4982 42.872 86.6822 42.152ZM96.5382 33.608L97.3862 34.536C95.0982 35.224 91.6262 35.736 88.6662 36.056C88.6342 35.768 88.4742 35.352 88.3302 35.096C91.2582 34.76 94.6342 34.216 96.5382 33.608ZM93.8662 38.872L92.7622 39.16C92.6982 38.408 92.3942 37.192 92.0422 36.264L93.0822 36.008C93.4662 36.936 93.7862 38.12 93.8662 38.872ZM91.0822 39.432L90.0262 39.816C89.8662 39.048 89.4022 37.816 88.9222 36.872L89.8982 36.552C90.4262 37.448 90.9062 38.648 91.0822 39.432ZM89.7702 43.448L90.7302 42.936C91.5462 43.752 92.4742 44.92 92.8742 45.72L91.8502 46.328C91.4822 45.528 90.6022 44.312 89.7702 43.448ZM98.2982 41.176V42.28H96.1222V46.776C96.1222 47.464 95.9782 47.816 95.4662 48.008C94.9702 48.184 94.1222 48.2 92.8742 48.2C92.8262 47.88 92.6502 47.384 92.4742 47.048C93.4662 47.08 94.3622 47.08 94.6182 47.064C94.8902 47.048 94.9542 47 94.9542 46.76V42.28H88.4742V41.176H94.9542V40.168L94.1702 39.72C95.0662 38.68 96.2662 37.048 96.9222 35.8L98.0102 36.344C97.2262 37.56 96.2182 38.92 95.3702 39.912H96.1222V41.176H98.2982ZM116.634 41.8H110.986C112.442 43.752 114.81 45.656 116.97 46.584C116.714 46.824 116.33 47.272 116.138 47.592C114.01 46.536 111.722 44.536 110.17 42.424V48.216H108.938V42.456C107.386 44.568 105.114 46.488 103.018 47.528C102.826 47.24 102.442 46.792 102.186 46.552C104.33 45.624 106.682 43.752 108.138 41.8H102.522V40.664H108.938V36.68H103.274V35.544H108.938V33.624H110.17V35.544H115.962V36.68H110.17V40.664H116.634V41.8ZM104.57 37.448L105.61 37.048C106.25 37.976 106.906 39.208 107.13 40.04L106.01 40.472C105.802 39.672 105.194 38.376 104.57 37.448ZM113.018 40.504L112.026 40.168C112.57 39.304 113.258 37.944 113.642 36.984L114.858 37.368C114.298 38.456 113.594 39.72 113.018 40.504ZM123.658 34.984H125.13C125.098 35.288 125.082 35.752 125.082 36.136V41.48C125.082 41.88 125.098 42.408 125.13 42.696H123.658C123.674 42.456 123.722 41.944 123.722 41.464V36.136C123.722 35.848 123.69 35.288 123.658 34.984ZM131.066 34.872H132.538C132.506 35.256 132.474 35.72 132.474 36.248V38.84C132.474 42.68 131.962 43.944 130.81 45.32C129.77 46.568 128.17 47.256 127.002 47.656L125.962 46.552C127.434 46.184 128.81 45.544 129.802 44.424C130.954 43.096 131.146 41.8 131.146 38.776V36.248C131.146 35.72 131.098 35.256 131.066 34.872ZM150.666 35.672L151.482 36.296C151.386 36.424 151.178 36.776 151.082 37C150.538 38.376 149.53 40.248 148.394 41.688C150.074 43.128 152.026 45.208 153.066 46.456L151.946 47.432C150.874 46.024 149.178 44.136 147.546 42.68C145.834 44.52 143.674 46.28 141.306 47.352L140.282 46.28C142.858 45.272 145.226 43.368 146.874 41.528C147.962 40.296 149.13 38.392 149.53 37.08H143.29C142.73 37.08 141.85 37.144 141.674 37.16V35.704C141.898 35.736 142.81 35.816 143.29 35.816H149.466C149.994 35.816 150.41 35.752 150.666 35.672ZM170.122 36.36L171.194 37C171.066 37.224 170.906 37.592 170.81 37.848C170.378 39.448 169.402 41.624 167.978 43.352C166.522 45.128 164.618 46.6 161.61 47.704L160.458 46.664C163.386 45.8 165.386 44.344 166.842 42.648C168.09 41.176 169.066 39.112 169.386 37.656H163.978C163.018 39 161.674 40.424 159.93 41.592L158.826 40.76C161.594 39.112 163.162 36.792 163.85 35.352C164.026 35.08 164.25 34.504 164.346 34.088L165.834 34.584C165.562 35 165.274 35.528 165.114 35.832C165.002 36.056 164.874 36.28 164.73 36.504H169.082C169.514 36.504 169.866 36.456 170.122 36.36ZM190.058 39.464L191.002 39.912C190.154 41.304 189.114 42.824 188.138 43.8L187.178 43.192C187.77 42.552 188.474 41.624 189.05 40.696H184.506V46.728C184.506 47.464 184.314 47.8 183.754 47.976C183.194 48.152 182.266 48.168 180.874 48.168C180.794 47.832 180.586 47.352 180.426 47.016C181.53 47.064 182.602 47.048 182.922 47.032C183.21 47.016 183.306 46.952 183.306 46.712V40.696H176.714V39.56H185.002C183.642 38.872 181.818 38.04 180.394 37.432L181.002 36.552C181.882 36.904 182.922 37.336 183.898 37.768C184.906 37.192 186.074 36.36 186.938 35.576H178.218V34.472H188.09L188.362 34.408L189.226 35.064C188.09 36.2 186.506 37.416 185.066 38.312C185.722 38.6 186.346 38.904 186.794 39.144L186.522 39.56H189.818L190.058 39.464ZM200.41 38.328V40.296H202.938V38.328H200.41ZM200.41 41.288V43.288H202.938V41.288H200.41ZM200.41 35.384V37.336H202.938V35.384H200.41ZM199.386 34.328H204.01V44.328H199.386V34.328ZM202.202 45.112L203.098 44.616C203.754 45.368 204.554 46.424 204.922 47.064L203.978 47.656C203.626 46.984 202.842 45.896 202.202 45.112ZM200.042 44.664L201.146 44.952C200.602 46.184 199.69 47.464 198.842 48.264C198.65 48.088 198.17 47.768 197.914 47.608C198.762 46.872 199.578 45.752 200.042 44.664ZM207.994 33.624H209.066V46.728C209.066 47.464 208.89 47.8 208.442 47.992C207.994 48.184 207.242 48.216 205.93 48.216C205.882 47.912 205.738 47.4 205.578 47.096C206.522 47.128 207.37 47.112 207.61 47.096C207.882 47.096 207.994 47.016 207.994 46.744V33.624ZM205.21 35.256H206.266V44.344H205.21V35.256ZM195.706 34.632L196.394 33.784C197.29 34.2 198.378 34.872 198.922 35.4L198.218 36.344C197.706 35.816 196.602 35.08 195.706 34.632ZM195.018 38.904L195.69 38.04C196.618 38.408 197.754 39.016 198.314 39.512L197.642 40.488C197.098 39.992 195.962 39.32 195.018 38.904ZM195.354 47.384C195.994 46.152 196.906 44.104 197.562 42.312L198.506 42.936C197.914 44.6 197.114 46.552 196.426 48.024L195.354 47.384ZM226.858 36.568C227.434 36.568 227.914 36.088 227.914 35.512C227.914 34.936 227.434 34.44 226.858 34.44C226.266 34.44 225.802 34.936 225.802 35.512C225.802 36.088 226.266 36.568 226.858 36.568ZM216.602 36.04H224.618C224.778 36.04 224.954 36.04 225.146 36.024C225.098 35.864 225.066 35.688 225.066 35.512C225.066 34.52 225.866 33.704 226.858 33.704C227.85 33.704 228.65 34.52 228.65 35.512C228.65 36.504 227.85 37.304 226.858 37.304C226.65 37.304 226.442 37.272 226.25 37.208L226.218 37.384C225.866 39.064 225.098 41.64 223.834 43.288C222.362 45.16 220.458 46.648 217.53 47.56L216.442 46.36C219.546 45.592 221.338 44.232 222.682 42.52C223.818 41.064 224.554 38.84 224.778 37.304H216.586C215.962 37.304 215.402 37.336 215.002 37.352V35.944C215.434 35.992 216.074 36.04 216.602 36.04ZM243.898 37.336H235.146V44.936H243.898V37.336ZM245.21 37.288V45.176C245.21 45.688 245.226 46.92 245.242 47.096H243.866C243.866 46.984 243.882 46.616 243.882 46.184H235.146C235.162 46.6 235.162 46.984 235.178 47.096H233.802C233.818 46.904 233.85 45.72 233.85 45.16V37.288C233.85 36.92 233.85 36.424 233.818 36.04C234.442 36.056 234.874 36.072 235.242 36.072H243.834C244.186 36.072 244.762 36.072 245.242 36.04C245.21 36.44 245.21 36.888 245.21 37.288ZM256.906 36.888H261.242C261.674 36.888 262.026 36.84 262.282 36.744L263.338 37.384C263.21 37.608 263.05 37.976 262.97 38.232C262.538 39.848 261.562 42.008 260.138 43.752C258.682 45.528 256.762 46.984 253.77 48.104L252.602 47.048C255.546 46.184 257.546 44.744 259.002 43.032C260.25 41.576 261.226 39.496 261.546 38.04H256.154C255.178 39.4 253.85 40.824 252.09 41.976L250.986 41.16C253.738 39.512 255.306 37.176 256.01 35.752C256.17 35.464 256.41 34.888 256.506 34.472L257.978 34.968C257.722 35.384 257.434 35.928 257.274 36.216C257.162 36.44 257.034 36.664 256.906 36.888ZM261.434 34.568L262.282 34.2C262.682 34.776 263.258 35.736 263.594 36.392L262.73 36.776C262.41 36.136 261.866 35.16 261.434 34.568ZM263.194 33.928L264.042 33.56C264.458 34.152 265.082 35.144 265.37 35.736L264.522 36.12C264.17 35.432 263.642 34.52 263.194 33.928ZM281.738 38.728L282.65 39.304C282.57 39.448 282.474 39.656 282.442 39.768C282.01 41.352 281.29 43.016 280.106 44.312C278.426 46.152 276.41 47.096 274.378 47.656L273.386 46.52C275.658 46.056 277.658 45.016 279.018 43.592C279.994 42.568 280.634 41.208 280.922 40.056H272.426C272.042 40.056 271.434 40.072 270.874 40.104V38.76C271.45 38.824 271.994 38.856 272.426 38.856H280.858C281.226 38.856 281.562 38.824 281.738 38.728ZM272.298 36.408V35.08C272.714 35.144 273.226 35.16 273.738 35.16H280.026C280.538 35.16 281.098 35.144 281.482 35.08V36.408C281.098 36.376 280.554 36.36 280.01 36.36H273.738C273.242 36.36 272.73 36.376 272.298 36.408ZM301.606 46.936L300.278 47.544C300.07 46.968 299.75 46.232 299.398 45.448C296.918 45.768 291.574 46.36 289.43 46.552C289.03 46.584 288.566 46.664 288.102 46.728L287.862 45.24C288.342 45.256 288.886 45.24 289.35 45.224C289.59 45.208 289.862 45.192 290.15 45.176C291.046 42.968 292.678 37.848 293.126 36.28C293.318 35.544 293.382 35.16 293.446 34.744L295.03 35.064C294.87 35.464 294.694 35.88 294.486 36.552C294.006 38.056 292.438 42.968 291.638 45.048C293.99 44.824 297.062 44.472 298.806 44.248C298.166 42.984 297.462 41.736 296.87 40.968L298.07 40.424C299.206 42.072 300.95 45.288 301.606 46.936Z" fill="white"/>
</svg>
