<svg width="685" height="175" viewBox="0 0 685 175" fill="none" xmlns="http://www.w3.org/2000/svg">
<path d="M85.0259 23.848H90.3539L89.5139 21.16C88.8659 19.168 88.3139 17.248 87.7379 15.208H87.6419C87.0899 17.272 86.5139 19.168 85.8899 21.16L85.0259 23.848ZM92.5859 31L90.9059 25.624H84.4739L82.7699 31H80.5139L86.4899 13.408H88.9619L94.9379 31H92.5859ZM101.26 31V13.408H103.492V31H101.26ZM114.027 12.832L116.187 13C116.043 13.408 115.827 14.176 115.731 14.608C115.275 16.792 114.579 21.04 114.579 23.704C114.579 24.856 114.627 25.816 114.771 26.968C115.179 25.888 115.707 24.496 116.091 23.56L117.123 24.328C116.523 26.008 115.659 28.528 115.443 29.656C115.371 29.992 115.323 30.448 115.323 30.712L115.395 31.552L113.667 31.672C113.187 29.992 112.803 27.256 112.803 24.04C112.803 20.536 113.571 16.456 113.859 14.512C113.931 13.96 114.027 13.336 114.027 12.832ZM119.883 24.352L121.611 24.52C121.395 25.384 121.299 26.056 121.299 26.704C121.299 27.784 122.019 28.84 125.283 28.84C127.419 28.84 129.243 28.648 131.163 28.216L131.187 30.232C129.723 30.52 127.731 30.712 125.259 30.712C121.275 30.712 119.499 29.392 119.499 27.16C119.499 26.296 119.667 25.36 119.883 24.352ZM120.699 16.792L120.675 14.824C123.267 15.256 128.067 15.16 130.443 14.824V16.792C127.899 17.056 123.291 17.056 120.699 16.792ZM148.779 27.736C148.779 27.352 148.755 26.848 148.755 26.248C147.987 26.08 147.219 26.008 146.427 26.008C143.979 26.008 142.587 26.848 142.587 28.144C142.587 29.464 143.907 30.184 146.187 30.184C147.939 30.184 148.779 29.368 148.779 27.736ZM150.387 18.76V18.928C150.387 20.488 150.507 22.792 150.627 24.856C153.675 25.696 156.291 27.352 158.019 28.912L156.867 30.688C155.355 29.152 153.171 27.64 150.699 26.776C150.723 27.4 150.747 27.928 150.747 28.36C150.747 30.304 149.547 31.984 146.379 31.984C143.115 31.984 140.691 30.928 140.691 28.216C140.691 26.08 142.563 24.304 146.667 24.304C147.339 24.304 148.011 24.352 148.683 24.448C148.587 22.528 148.491 20.344 148.491 18.928C148.491 17.56 148.491 15.592 148.467 14.584C148.443 13.72 148.371 12.688 148.275 12.232H150.579C150.483 12.736 150.411 13.864 150.387 14.584C150.363 15.232 150.387 16.072 150.387 17.008C152.283 16.96 155.283 16.84 157.419 16.552L157.491 18.376C155.379 18.568 152.331 18.712 150.387 18.76ZM176.661 30.208C177.333 30.208 177.981 30.16 178.557 30.064C178.341 28.192 177.213 26.896 175.413 26.896C174.333 26.896 173.517 27.544 173.517 28.36C173.517 29.536 174.885 30.208 176.661 30.208ZM181.557 12.952L182.661 14.344C182.229 14.632 181.701 14.992 181.341 15.256C180.165 16.144 176.973 18.952 175.149 20.488C176.229 20.128 177.309 19.984 178.365 19.984C182.325 19.984 185.181 22.384 185.181 25.6C185.181 29.44 181.989 31.936 176.973 31.936C173.733 31.936 171.741 30.496 171.741 28.528C171.741 26.896 173.205 25.408 175.413 25.408C178.389 25.408 179.997 27.4 180.309 29.608C182.181 28.888 183.261 27.52 183.261 25.576C183.261 23.248 180.909 21.544 177.909 21.544C173.997 21.544 171.837 23.2 168.813 26.272L167.421 24.856C169.389 23.224 172.437 20.68 173.829 19.528C175.149 18.424 178.101 15.928 179.277 14.872C178.029 14.92 173.349 15.136 172.125 15.208C171.573 15.232 171.021 15.256 170.517 15.352L170.469 13.36C170.997 13.432 171.669 13.432 172.149 13.432C173.373 13.432 179.013 13.264 180.261 13.144C180.957 13.072 181.293 13.024 181.557 12.952ZM210.933 18.16L210.045 19.552C209.421 19.096 208.533 18.544 207.573 18.016C206.685 19.768 205.341 21.304 203.205 22.36C202.989 22 202.509 21.4 202.149 21.112C204.141 20.2 205.341 18.832 206.133 17.296C205.077 16.792 203.997 16.336 203.013 16L203.901 14.752C204.789 15.04 205.749 15.448 206.709 15.856C206.949 15.088 207.141 14.272 207.261 13.48H203.229V11.944H214.677C214.677 11.944 214.677 12.472 214.653 12.688C214.437 18.328 214.197 20.416 213.597 21.112C213.237 21.592 212.829 21.76 212.181 21.808C211.605 21.856 210.501 21.856 209.373 21.784C209.349 21.28 209.181 20.632 208.917 20.176C209.997 20.272 211.005 20.272 211.389 20.272C211.797 20.296 212.013 20.248 212.157 20.032C212.565 19.6 212.781 17.92 212.973 13.48H208.917C208.749 14.536 208.509 15.568 208.173 16.576C209.253 17.128 210.237 17.68 210.933 18.16ZM206.133 22.456L207.165 21.4C208.701 22.216 210.573 23.512 211.437 24.52L210.333 25.696C209.469 24.712 207.669 23.32 206.133 22.456ZM201.285 11.752V13.192H194.709V11.752H201.285ZM202.029 14.896V16.36H193.533V14.896H202.029ZM201.357 18.136V19.552H194.589V18.136H201.357ZM194.589 22.744V21.304H201.357V22.744H194.589ZM199.845 25.984H196.077V30.016H199.845V25.984ZM201.381 24.52V31.456H196.077V32.56H194.565V24.52H201.381ZM202.845 31.528L201.549 30.688C202.677 29.488 203.205 27.4 203.445 25.432L204.885 25.792C204.645 27.904 204.117 30.208 202.845 31.528ZM208.149 31.072H210.381C211.005 31.072 211.125 30.736 211.197 28.336C211.533 28.648 212.205 28.888 212.685 29.032C212.517 31.912 212.085 32.632 210.573 32.632H207.909C206.133 32.632 205.701 32.152 205.701 30.376V24.616H207.357V30.376C207.357 30.976 207.453 31.072 208.149 31.072ZM211.677 25.576L213.117 25C214.413 26.752 215.493 29.08 215.829 30.712L214.269 31.36C213.957 29.752 212.901 27.352 211.677 25.576ZM228.237 15.784V19.744C228.237 19.984 228.237 20.272 228.213 20.56H232.725V22.264H228.117C228.069 22.792 227.973 23.344 227.877 23.872C229.005 25 231.909 28.24 232.653 29.08L231.453 30.592C230.637 29.416 228.765 27.16 227.469 25.696C226.701 28.24 225.237 30.832 222.501 32.776C222.261 32.392 221.637 31.72 221.253 31.456C224.901 28.864 226.029 25.408 226.341 22.264H221.517V20.56H226.461C226.461 20.272 226.461 19.984 226.461 19.72V15.784H224.637C224.061 17.224 223.437 18.52 222.693 19.552C222.381 19.24 221.637 18.76 221.229 18.52C222.645 16.672 223.629 13.816 224.205 10.912L225.933 11.248C225.741 12.256 225.477 13.216 225.189 14.128H232.029V15.784H228.237ZM235.221 28.576H240.285V14.68H235.221V28.576ZM233.493 13H242.061V31.912H240.285V30.256H235.221V32.152H233.493V13ZM252.693 19.984L251.277 20.728C251.037 19.552 250.245 17.656 249.453 16.24L250.773 15.616C251.613 16.984 252.453 18.808 252.693 19.984ZM264.261 25.168V30.616H271.197V32.2H254.493V30.616H257.373V22.408H259.029V30.616H262.533V19.336H256.269V17.776H270.453V19.336H264.261V23.608H270.045V25.168H264.261ZM262.317 13.696H271.197V15.28H254.805V20.8C254.805 24.496 254.301 29.584 251.013 32.872C250.773 32.56 250.101 31.912 249.741 31.672C251.685 29.704 252.501 27.208 252.861 24.76C251.781 25.384 250.701 26.008 249.693 26.56L249.069 24.928C250.125 24.472 251.541 23.728 253.029 22.96C253.077 22.192 253.101 21.472 253.101 20.776V13.696H260.469V10.936H262.317V13.696ZM281.229 18.808L279.693 19.624C279.237 18.28 278.109 16.168 277.005 14.656L278.445 13.96C279.573 15.472 280.773 17.464 281.229 18.808ZM281.565 23.728V10.936H283.269V32.8H281.565V25.648C280.221 26.608 278.853 27.52 277.653 28.312L276.765 26.536C277.965 25.864 279.789 24.808 281.565 23.728ZM296.349 10.912L297.621 12.304C294.189 13.336 288.981 14.104 284.541 14.584C284.493 14.152 284.253 13.528 284.037 13.144C288.429 12.64 293.493 11.824 296.349 10.912ZM292.341 18.808L290.685 19.24C290.589 18.112 290.133 16.288 289.605 14.896L291.165 14.512C291.741 15.904 292.221 17.68 292.341 18.808ZM288.165 19.648L286.581 20.224C286.341 19.072 285.645 17.224 284.925 15.808L286.389 15.328C287.181 16.672 287.901 18.472 288.165 19.648ZM286.197 25.672L287.637 24.904C288.861 26.128 290.253 27.88 290.853 29.08L289.317 29.992C288.765 28.792 287.445 26.968 286.197 25.672ZM298.989 22.264V23.92H295.725V30.664C295.725 31.696 295.509 32.224 294.741 32.512C293.997 32.776 292.725 32.8 290.853 32.8C290.781 32.32 290.517 31.576 290.253 31.072C291.741 31.12 293.085 31.12 293.469 31.096C293.877 31.072 293.973 31 293.973 30.64V23.92H284.253V22.264H293.973V20.752L292.797 20.08C294.141 18.52 295.941 16.072 296.925 14.2L298.557 15.016C297.381 16.84 295.869 18.88 294.597 20.368H295.725V22.264H298.989ZM326.493 23.2H318.021C320.205 26.128 323.757 28.984 326.997 30.376C326.613 30.736 326.037 31.408 325.749 31.888C322.557 30.304 319.125 27.304 316.797 24.136V32.824H314.949V24.184C312.621 27.352 309.213 30.232 306.069 31.792C305.781 31.36 305.205 30.688 304.821 30.328C308.037 28.936 311.565 26.128 313.749 23.2H305.325V21.496H314.949V15.52H306.453V13.816H314.949V10.936H316.797V13.816H325.485V15.52H316.797V21.496H326.493V23.2ZM308.397 16.672L309.957 16.072C310.917 17.464 311.901 19.312 312.237 20.56L310.557 21.208C310.245 20.008 309.333 18.064 308.397 16.672ZM321.069 21.256L319.581 20.752C320.397 19.456 321.429 17.416 322.005 15.976L323.829 16.552C322.989 18.184 321.933 20.08 321.069 21.256ZM337.029 12.976H339.237C339.189 13.432 339.165 14.128 339.165 14.704V22.72C339.165 23.32 339.189 24.112 339.237 24.544H337.029C337.053 24.184 337.125 23.416 337.125 22.696V14.704C337.125 14.272 337.077 13.432 337.029 12.976ZM348.141 12.808H350.349C350.301 13.384 350.253 14.08 350.253 14.872V18.76C350.253 24.52 349.485 26.416 347.757 28.48C346.197 30.352 343.797 31.384 342.045 31.984L340.485 30.328C342.693 29.776 344.757 28.816 346.245 27.136C347.973 25.144 348.261 23.2 348.261 18.664V14.872C348.261 14.08 348.189 13.384 348.141 12.808ZM377.541 14.008L378.765 14.944C378.621 15.136 378.309 15.664 378.165 16C377.349 18.064 375.837 20.872 374.133 23.032C376.653 25.192 379.581 28.312 381.141 30.184L379.461 31.648C377.853 29.536 375.309 26.704 372.861 24.52C370.293 27.28 367.053 29.92 363.501 31.528L361.965 29.92C365.829 28.408 369.381 25.552 371.853 22.792C373.485 20.944 375.237 18.088 375.837 16.12H366.477C365.637 16.12 364.317 16.216 364.053 16.24V14.056C364.389 14.104 365.757 14.224 366.477 14.224H375.741C376.533 14.224 377.157 14.128 377.541 14.008ZM406.725 15.04L408.333 16C408.141 16.336 407.901 16.888 407.757 17.272C407.109 19.672 405.645 22.936 403.509 25.528C401.325 28.192 398.469 30.4 393.957 32.056L392.229 30.496C396.621 29.2 399.621 27.016 401.805 24.472C403.677 22.264 405.141 19.168 405.621 16.984H397.509C396.069 19 394.053 21.136 391.437 22.888L389.781 21.64C393.933 19.168 396.285 15.688 397.317 13.528C397.581 13.12 397.917 12.256 398.061 11.632L400.293 12.376C399.885 13 399.453 13.792 399.213 14.248C399.045 14.584 398.853 14.92 398.637 15.256H405.165C405.813 15.256 406.341 15.184 406.725 15.04ZM436.629 19.696L438.045 20.368C436.773 22.456 435.213 24.736 433.749 26.2L432.309 25.288C433.197 24.328 434.253 22.936 435.117 21.544H428.301V30.592C428.301 31.696 428.013 32.2 427.173 32.464C426.333 32.728 424.941 32.752 422.853 32.752C422.733 32.248 422.421 31.528 422.181 31.024C423.837 31.096 425.445 31.072 425.925 31.048C426.357 31.024 426.501 30.928 426.501 30.568V21.544H416.613V19.84H429.045C427.005 18.808 424.269 17.56 422.133 16.648L423.045 15.328C424.365 15.856 425.925 16.504 427.389 17.152C428.901 16.288 430.653 15.04 431.949 13.864H418.869V12.208H433.677L434.085 12.112L435.381 13.096C433.677 14.8 431.301 16.624 429.141 17.968C430.125 18.4 431.061 18.856 431.733 19.216L431.325 19.84H436.269L436.629 19.696ZM452.157 17.992V20.944H455.949V17.992H452.157ZM452.157 22.432V25.432H455.949V22.432H452.157ZM452.157 13.576V16.504H455.949V13.576H452.157ZM450.621 11.992H457.557V26.992H450.621V11.992ZM454.845 28.168L456.189 27.424C457.173 28.552 458.373 30.136 458.925 31.096L457.509 31.984C456.981 30.976 455.805 29.344 454.845 28.168ZM451.605 27.496L453.261 27.928C452.445 29.776 451.077 31.696 449.805 32.896C449.517 32.632 448.797 32.152 448.413 31.912C449.685 30.808 450.909 29.128 451.605 27.496ZM463.533 10.936H465.141V30.592C465.141 31.696 464.877 32.2 464.205 32.488C463.533 32.776 462.405 32.824 460.437 32.824C460.365 32.368 460.149 31.6 459.909 31.144C461.325 31.192 462.597 31.168 462.957 31.144C463.365 31.144 463.533 31.024 463.533 30.616V10.936ZM459.357 13.384H460.941V27.016H459.357V13.384ZM445.101 12.448L446.133 11.176C447.477 11.8 449.109 12.808 449.925 13.6L448.869 15.016C448.101 14.224 446.445 13.12 445.101 12.448ZM444.069 18.856L445.077 17.56C446.469 18.112 448.173 19.024 449.013 19.768L448.005 21.232C447.189 20.488 445.485 19.48 444.069 18.856ZM444.573 31.576C445.533 29.728 446.901 26.656 447.885 23.968L449.301 24.904C448.413 27.4 447.213 30.328 446.181 32.536L444.573 31.576ZM491.829 15.352C492.693 15.352 493.413 14.632 493.413 13.768C493.413 12.904 492.693 12.16 491.829 12.16C490.941 12.16 490.245 12.904 490.245 13.768C490.245 14.632 490.941 15.352 491.829 15.352ZM476.445 14.56H488.469C488.709 14.56 488.973 14.56 489.261 14.536C489.189 14.296 489.141 14.032 489.141 13.768C489.141 12.28 490.341 11.056 491.829 11.056C493.317 11.056 494.517 12.28 494.517 13.768C494.517 15.256 493.317 16.456 491.829 16.456C491.517 16.456 491.205 16.408 490.917 16.312L490.869 16.576C490.341 19.096 489.189 22.96 487.293 25.432C485.085 28.24 482.229 30.472 477.837 31.84L476.205 30.04C480.861 28.888 483.549 26.848 485.565 24.28C487.269 22.096 488.373 18.76 488.709 16.456H476.421C475.485 16.456 474.645 16.504 474.045 16.528V14.416C474.693 14.488 475.653 14.56 476.445 14.56ZM517.389 16.504H504.261V27.904H517.389V16.504ZM519.357 16.432V28.264C519.357 29.032 519.381 30.88 519.405 31.144H517.341C517.341 30.976 517.365 30.424 517.365 29.776H504.261C504.285 30.4 504.285 30.976 504.309 31.144H502.245C502.269 30.856 502.317 29.08 502.317 28.24V16.432C502.317 15.88 502.317 15.136 502.269 14.56C503.205 14.584 503.853 14.608 504.405 14.608H517.293C517.821 14.608 518.685 14.608 519.405 14.56C519.357 15.16 519.357 15.832 519.357 16.432ZM536.901 15.832H543.405C544.053 15.832 544.581 15.76 544.965 15.616L546.549 16.576C546.357 16.912 546.117 17.464 545.997 17.848C545.349 20.272 543.885 23.512 541.749 26.128C539.565 28.792 536.685 30.976 532.197 32.656L530.445 31.072C534.861 29.776 537.861 27.616 540.045 25.048C541.917 22.864 543.381 19.744 543.861 17.56H535.773C534.309 19.6 532.317 21.736 529.677 23.464L528.021 22.24C532.149 19.768 534.501 16.264 535.557 14.128C535.797 13.696 536.157 12.832 536.301 12.208L538.509 12.952C538.125 13.576 537.693 14.392 537.453 14.824C537.285 15.16 537.093 15.496 536.901 15.832ZM543.693 12.352L544.965 11.8C545.565 12.664 546.429 14.104 546.933 15.088L545.637 15.664C545.157 14.704 544.341 13.24 543.693 12.352ZM546.333 11.392L547.605 10.84C548.229 11.728 549.165 13.216 549.597 14.104L548.325 14.68C547.797 13.648 547.005 12.28 546.333 11.392ZM574.149 18.592L575.517 19.456C575.397 19.672 575.253 19.984 575.205 20.152C574.557 22.528 573.477 25.024 571.701 26.968C569.181 29.728 566.157 31.144 563.109 31.984L561.621 30.28C565.029 29.584 568.029 28.024 570.069 25.888C571.533 24.352 572.493 22.312 572.925 20.584H560.181C559.605 20.584 558.693 20.608 557.853 20.656V18.64C558.717 18.736 559.533 18.784 560.181 18.784H572.829C573.381 18.784 573.885 18.736 574.149 18.592ZM559.989 15.112V13.12C560.613 13.216 561.381 13.24 562.149 13.24H571.581C572.349 13.24 573.189 13.216 573.765 13.12V15.112C573.189 15.064 572.373 15.04 571.557 15.04H562.149C561.405 15.04 560.637 15.064 559.989 15.112ZM603.95 30.904L601.958 31.816C601.646 30.952 601.166 29.848 600.638 28.672C596.918 29.152 588.902 30.04 585.686 30.328C585.086 30.376 584.39 30.496 583.694 30.592L583.334 28.36C584.054 28.384 584.87 28.36 585.566 28.336C585.926 28.312 586.334 28.288 586.766 28.264C588.11 24.952 590.558 17.272 591.23 14.92C591.518 13.816 591.614 13.24 591.71 12.616L594.086 13.096C593.846 13.696 593.582 14.32 593.27 15.328C592.55 17.584 590.198 24.952 588.998 28.072C592.526 27.736 597.134 27.208 599.75 26.872C598.79 24.976 597.734 23.104 596.846 21.952L598.646 21.136C600.35 23.608 602.966 28.432 603.95 30.904Z" fill="white"/>
<path d="M16.8696 133.404C17.6542 135.396 18.7904 136.98 20.2884 138.156C21.7812 139.331 23.5645 140.171 25.628 140.681C27.6914 141.19 29.9332 141.442 32.3534 141.442C34.0602 141.442 35.7721 141.207 37.479 140.736C39.1858 140.266 40.7347 139.561 42.1256 138.626C43.5115 137.686 44.6528 136.477 45.5444 134.988C46.436 133.504 46.8793 131.702 46.8793 129.591C46.8793 127.481 46.3086 125.897 45.1725 124.604C44.0312 123.311 42.5587 122.197 40.7398 121.262C38.9209 120.327 36.8574 119.504 34.5442 118.799C32.2311 118.094 29.8976 117.355 27.5488 116.571C25.1286 115.793 22.7798 114.853 20.5024 113.756C18.2249 112.664 16.1767 111.253 14.3629 109.535C12.549 107.816 11.0868 105.706 9.98624 103.198C8.88062 100.696 8.33036 97.6454 8.33036 94.0461C8.33036 89.3552 9.22199 85.3641 11.0001 82.0782C12.7783 78.7924 15.0915 76.1167 17.9396 74.0399C20.7877 71.9688 24.0077 70.4462 27.6048 69.4666C31.1968 68.487 34.8499 68 38.5489 68C42.4619 68 46.1456 68.487 49.6 69.4666C53.0544 70.4462 56.0758 72.0303 58.6743 74.219C61.2727 76.4077 63.3362 79.2066 64.8698 82.6044C66.3983 86.0078 67.1677 90.1333 67.1677 94.9809H51.2559C51.3272 92.6355 51.0266 90.6595 50.349 89.0585C49.6714 87.4576 48.7084 86.1477 47.4652 85.129C46.2169 84.1158 44.7445 83.3881 43.0325 82.957C41.3257 82.526 39.5068 82.3133 37.586 82.3133C36.0218 82.3133 34.4372 82.4868 32.8323 82.8395C31.2325 83.1922 29.7906 83.7799 28.5066 84.5972C27.2278 85.42 26.1935 86.4948 25.4089 87.8214C24.6242 89.1537 24.2319 90.7938 24.2319 92.7474C24.2319 94.701 24.9248 96.4811 26.3158 97.8525C27.7067 99.224 29.3779 100.355 31.3344 101.256C33.2909 102.157 35.3034 102.862 37.3669 103.366C39.4304 103.876 41.1066 104.284 42.3855 104.598C45.3763 105.46 48.1174 106.456 50.6088 107.587C53.1003 108.723 55.2555 110.19 57.0693 111.987C58.8832 113.789 60.2894 115.978 61.288 118.558C62.2815 121.139 62.7808 124.307 62.7808 128.063C62.7808 133.068 61.8383 137.333 59.9531 140.848C58.0679 144.369 55.6427 147.224 52.6927 149.413C49.7376 151.602 46.4105 153.186 42.7065 154.165C39.0024 155.145 35.3391 155.632 31.7063 155.632C21.0271 155.632 13.0738 153.247 7.84124 148.473C2.61375 143.709 0 136.202 0 125.953H15.9117C15.7691 128.925 16.0901 131.411 16.8747 133.404H16.8696ZM105.177 153.757L106.883 145.31H106.669C101.758 151.96 95.3125 155.279 87.3439 155.279C76.5934 155.279 71.2182 149.883 71.2182 139.091C71.2182 138.464 71.2691 137.663 71.3761 136.684C71.4831 135.704 71.6258 134.708 71.8041 133.695C71.9824 132.681 72.1608 131.719 72.3391 130.823C72.5174 129.927 72.6754 129.2 72.818 128.651L79.6505 93.1057H94.8132L88.0878 128.651C87.9451 129.121 87.8229 129.687 87.7159 130.353C87.6089 131.019 87.5019 131.702 87.3949 132.407C87.2879 133.112 87.2166 133.795 87.1809 134.461C87.1452 135.128 87.1299 135.654 87.1299 136.046C87.1299 137.848 87.8942 139.331 89.4278 140.501C90.9563 141.677 92.6122 142.259 94.3954 142.259C96.6729 142.259 98.6855 141.772 100.428 140.792C102.17 139.813 103.668 138.548 104.912 136.98C106.155 135.419 107.189 133.616 108.009 131.584C108.83 129.552 109.451 127.476 109.879 125.365L116.075 93.1001H131.238L119.702 153.757H105.182H105.177ZM158.139 93.1001L156.646 100.607L156.86 100.842C158.567 97.5558 160.901 95.1712 163.856 93.6878C166.811 92.2044 169.995 91.46 173.414 91.46C180.104 91.46 185.265 93.6095 188.898 97.9141C192.531 102.219 194.344 108.046 194.344 115.396C194.344 120.4 193.738 125.292 192.531 130.062C191.318 134.831 189.469 139.096 186.977 142.847C184.486 146.603 181.373 149.614 177.633 151.882C173.893 154.149 169.465 155.285 164.34 155.285C162.771 155.285 161.191 155.089 159.586 154.697C157.986 154.305 156.488 153.718 155.103 152.939C153.717 152.156 152.468 151.159 151.363 149.95C150.257 148.741 149.422 147.308 148.851 145.668H148.53L142.762 175H127.707L143.511 93.1113H158.139V93.1001ZM161.023 106.535C158.96 108.219 157.232 110.347 155.846 112.927C154.461 115.508 153.426 118.307 152.749 121.318C152.071 124.33 151.735 127.123 151.735 129.703C151.735 133.695 152.626 136.88 154.405 139.264C156.183 141.649 158.924 142.841 162.628 142.841C165.547 142.841 168.039 142.018 170.102 140.378C172.166 138.738 173.873 136.667 175.228 134.159C176.578 131.657 177.577 128.92 178.219 125.947C178.861 122.975 179.182 120.159 179.182 117.5C179.182 115.704 178.947 113.979 178.489 112.339C178.025 110.699 177.347 109.272 176.461 108.057C175.569 106.848 174.448 105.868 173.098 105.124C171.743 104.379 170.179 104.01 168.401 104.01C165.552 104.01 163.097 104.85 161.033 106.535H161.023ZM223.386 93.1001L221.893 100.607L222.107 100.842C223.814 97.5558 226.148 95.1712 229.103 93.6878C232.058 92.2044 235.242 91.46 238.661 91.46C245.351 91.46 250.512 93.6095 254.145 97.9141C257.777 102.219 259.591 108.046 259.591 115.396C259.591 120.4 258.985 125.292 257.777 130.062C256.565 134.831 254.715 139.096 252.224 142.847C249.732 146.603 246.619 149.614 242.88 151.882C239.14 154.149 234.712 155.285 229.587 155.285C228.017 155.285 226.438 155.089 224.833 154.697C223.233 154.305 221.735 153.718 220.349 152.939C218.964 152.156 217.715 151.159 216.61 149.95C215.504 148.741 214.668 147.308 214.098 145.668H213.777L208.009 175H192.954L208.758 93.1113H223.386V93.1001ZM226.27 106.535C224.206 108.219 222.479 110.347 221.093 112.927C219.707 115.508 218.673 118.307 217.996 121.318C217.318 124.33 216.982 127.123 216.982 129.703C216.982 133.695 217.873 136.88 219.651 139.264C221.43 141.649 224.171 142.841 227.875 142.841C230.794 142.841 233.286 142.018 235.349 140.378C237.413 138.738 239.12 136.667 240.475 134.159C241.825 131.657 242.824 128.92 243.466 125.947C244.108 122.975 244.429 120.159 244.429 117.5C244.429 115.704 244.194 113.979 243.736 112.339C243.272 110.699 242.594 109.272 241.708 108.057C240.816 106.848 239.695 105.868 238.345 105.124C236.99 104.379 235.426 104.01 233.647 104.01C230.799 104.01 228.344 104.85 226.28 106.535H226.27ZM267.647 114.629C269.104 110.056 271.203 106.048 273.949 102.605C276.69 99.1624 280.017 96.4475 283.935 94.4491C287.848 92.4563 292.266 91.46 297.177 91.46C300.948 91.46 304.422 91.9861 307.586 93.0441C310.755 94.1021 313.476 95.6862 315.754 97.7965C318.031 99.9069 319.794 102.566 321.037 105.773C322.28 108.981 322.907 112.776 322.907 117.153C322.907 122.471 322.179 127.459 320.716 132.11C319.254 136.762 317.14 140.815 314.363 144.252C311.586 147.694 308.223 150.393 304.27 152.346C300.321 154.3 295.817 155.279 290.763 155.279C283.074 155.279 276.935 153.107 272.344 148.769C267.754 144.431 265.456 137.915 265.456 129.233C265.456 124.072 266.184 119.202 267.647 114.629ZM281.316 134.394C281.78 136.034 282.473 137.484 283.4 138.733C284.323 139.986 285.464 140.983 286.819 141.722C288.169 142.466 289.739 142.836 291.517 142.836C294.365 142.836 296.8 141.996 298.833 140.311C300.861 138.632 302.532 136.516 303.852 133.974C305.166 131.433 306.15 128.679 306.786 125.701C307.428 122.729 307.749 119.952 307.749 117.372C307.749 113.308 306.914 110.061 305.238 107.632C303.566 105.208 300.698 103.993 296.642 103.993C293.865 103.993 291.466 104.833 289.433 106.518C287.405 108.203 285.749 110.291 284.465 112.793C283.186 115.295 282.223 118.015 281.581 120.949C280.939 123.882 280.618 126.636 280.618 129.222C280.618 131.024 280.848 132.743 281.311 134.383L281.316 134.394ZM352.382 93.1001L350.14 104.01L350.354 104.245C352.061 100.024 354.644 96.8337 358.093 94.6842C361.548 92.5347 365.303 91.46 369.358 91.46C370.923 91.46 372.492 91.5775 374.056 91.8126L370.958 108.001C369.888 107.766 368.823 107.531 367.753 107.296C366.684 107.061 365.619 106.943 364.549 106.943C361.629 106.943 359.158 107.492 357.125 108.583C355.097 109.68 353.386 111.164 352 113.039C350.614 114.914 349.508 117.047 348.688 119.432C347.868 121.816 347.21 124.302 346.711 126.882L341.585 153.746H326.53L337.958 93.0889H352.372L352.382 93.1001ZM416.238 93.1001L413.889 104.245H403.103L397.442 134.394C397.3 135.021 397.193 135.587 397.121 136.096C397.05 136.605 397.014 136.975 397.014 137.21C397.014 138.307 397.172 139.147 397.493 139.734C397.814 140.322 398.222 140.77 398.721 141.084C399.22 141.397 399.771 141.571 400.377 141.61C400.983 141.649 401.569 141.666 402.14 141.666C403.989 141.666 405.803 141.548 407.586 141.313L405.024 154.104C403.454 154.261 401.89 154.395 400.326 154.512C398.757 154.63 397.157 154.686 395.521 154.686C393.743 154.686 391.98 154.512 390.238 154.16C388.49 153.807 386.926 153.18 385.54 152.285C384.154 151.383 383.049 150.152 382.228 148.59C381.408 147.028 381.036 144.991 381.108 142.489C381.108 141.705 381.179 140.826 381.322 139.846C381.464 138.867 381.642 137.831 381.856 136.74L388.052 104.245H378.122L380.471 93.1001H390.187L393.606 74.6837H408.768L405.35 93.1001H416.243H416.238ZM464.182 69.9928C468.023 69.9928 471.478 70.2671 474.54 70.8156C477.602 71.3642 480.201 72.3606 482.335 73.8048C484.47 75.2546 486.106 77.2474 487.247 79.7888C488.383 82.3301 488.954 85.5936 488.954 89.5847C488.954 91.9302 488.633 94.2196 487.991 96.4475C487.349 98.6754 486.406 100.674 485.163 102.431C483.915 104.189 482.422 105.656 480.68 106.831C478.932 108.007 476.925 108.751 474.647 109.059V109.294C478.28 110.391 481.072 112.479 483.028 115.569C484.985 118.659 485.963 122.236 485.963 126.306C485.963 130.845 485.163 134.831 483.558 138.274C481.958 141.716 479.803 144.571 477.098 146.838C474.392 149.105 471.294 150.829 467.809 151.999C464.319 153.175 460.656 153.757 456.809 153.757H416.233L432.149 69.9928H464.182ZM456.065 139.443C459.907 139.443 463.061 138.313 465.517 136.04C467.973 133.773 469.2 130.409 469.2 125.953C469.2 123.764 468.788 122.046 467.973 120.792C467.152 119.544 466.103 118.581 464.824 117.92C463.545 117.254 462.118 116.846 460.554 116.689C458.985 116.532 457.456 116.454 455.964 116.454H439.517L435.033 139.449H456.071L456.065 139.443ZM460.87 103.898C463.932 103.898 466.582 102.98 468.823 101.138C471.065 99.3023 472.186 96.5427 472.186 92.865C472.186 89.5791 471.386 87.3344 469.781 86.1197C468.181 84.9106 466.026 84.3005 463.321 84.3005H445.595L441.855 103.892H460.865L460.87 103.898ZM518.316 93.1057L516.075 104.016L516.289 104.251C517.995 100.03 520.579 96.8393 524.028 94.6898C527.482 92.5403 531.237 91.4655 535.293 91.4655C536.857 91.4655 538.426 91.5831 539.991 91.8182L536.893 108.007C535.823 107.772 534.758 107.537 533.688 107.301C532.618 107.066 531.553 106.949 530.483 106.949C527.564 106.949 525.093 107.497 523.06 108.589C521.032 109.686 519.32 111.169 517.934 113.045C516.548 114.92 515.443 117.053 514.623 119.437C513.802 121.822 513.145 124.307 512.646 126.888L507.52 153.751H492.464L503.892 93.0945H518.306L518.316 93.1057ZM546.935 101.961C548.571 99.4199 550.568 97.3655 552.917 95.8038C555.266 94.242 557.9 93.1281 560.819 92.4619C563.739 91.7958 566.76 91.4655 569.893 91.4655C572.385 91.4655 574.983 91.6615 577.689 92.0533C580.394 92.4451 582.886 93.2064 585.163 94.3428C587.441 95.4791 589.31 97.08 590.768 99.1512C592.225 101.222 592.918 103.982 592.851 107.425C592.851 110.319 592.459 113.722 591.675 117.629L586.763 142.03C586.478 143.127 586.284 144.476 586.177 146.077C586.07 147.683 586.019 149.066 586.019 150.241C586.019 151.26 586.197 152.43 586.554 153.762H571.391V147.778C569.328 150.359 566.801 152.257 563.81 153.466C560.819 154.675 557.721 155.285 554.522 155.285C551.531 155.285 548.917 154.854 546.675 153.992C544.433 153.13 542.564 151.977 541.071 150.532C539.578 149.088 538.472 147.403 537.759 145.489C537.046 143.575 536.689 141.559 536.689 139.449C536.689 133.583 538.523 128.892 542.187 125.371C545.85 121.85 551.032 119.661 557.721 118.799C561.278 118.329 564.375 117.976 567.01 117.741C569.644 117.506 571.829 117.137 573.577 116.627C575.32 116.118 576.619 115.379 577.475 114.399C578.331 113.42 578.754 111.953 578.754 110C578.754 108.438 578.433 107.184 577.791 106.243C577.149 105.303 576.349 104.564 575.386 104.016C574.423 103.467 573.394 103.098 572.288 102.902C571.182 102.706 570.133 102.611 569.139 102.611C566.434 102.611 564.014 103.333 561.879 104.782C559.744 106.232 558.424 108.477 557.93 111.528H543.73C544.23 107.699 545.295 104.508 546.935 101.967V101.961ZM569.572 126.949C567.366 127.224 565.16 127.436 562.954 127.593C561.527 127.75 560.141 128.002 558.791 128.354C557.436 128.707 556.244 129.233 555.215 129.939C554.18 130.644 553.345 131.601 552.703 132.81C552.061 134.025 551.74 135.57 551.74 137.445C551.74 139.712 552.575 141.414 554.252 142.55C555.923 143.686 557.864 144.252 560.07 144.252C562.419 144.252 564.396 143.843 565.996 143.02C567.595 142.197 568.951 141.145 570.051 139.852C571.152 138.559 572.028 137.092 572.665 135.452C573.307 133.812 573.842 132.166 574.265 130.526L575.758 124.66C573.837 125.914 571.768 126.675 569.562 126.949H569.572ZM624.349 93.1001L612.605 153.757H597.442L609.079 93.1001H624.349ZM610.786 83.7127L613.563 69.9872H628.833L626.056 83.7127H610.786ZM651.042 93.1001L649.335 101.547H649.549C654.46 94.8186 660.901 91.46 668.874 91.46C679.625 91.46 685 96.8953 685 107.766C685 108.393 684.929 109.193 684.786 110.173C684.643 111.153 684.48 112.149 684.307 113.162C684.129 114.181 683.95 115.138 683.772 116.034C683.594 116.935 683.466 117.657 683.4 118.206L676.568 153.751H661.405L668.13 118.206C668.273 117.265 668.467 116.017 668.716 114.45C668.966 112.888 669.088 111.673 669.088 110.811C669.088 109.014 668.324 107.525 666.79 106.355C665.257 105.18 663.606 104.598 661.823 104.598C659.545 104.598 657.533 105.085 655.79 106.064C654.043 107.044 652.55 108.315 651.307 109.876C650.058 111.444 649.029 113.241 648.209 115.273C647.389 117.31 646.767 119.381 646.339 121.492L640.143 153.757H625.088L636.516 93.1001H651.037H651.042Z" fill="white"/>
</svg>
