<svg width="330" height="127" viewBox="0 0 330 127" fill="none" xmlns="http://www.w3.org/2000/svg">
<path d="M131.975 15.232H135.527L134.967 13.44C134.535 12.112 134.167 10.832 133.783 9.472H133.719C133.351 10.848 132.967 12.112 132.551 13.44L131.975 15.232ZM137.015 20L135.895 16.416H131.607L130.471 20H128.967L132.951 8.272H134.599L138.583 20H137.015ZM142.798 20V8.272H144.286V20H142.798ZM151.309 7.888L152.749 8C152.653 8.272 152.509 8.784 152.445 9.072C152.141 10.528 151.677 13.36 151.677 15.136C151.677 15.904 151.709 16.544 151.805 17.312C152.077 16.592 152.429 15.664 152.685 15.04L153.373 15.552C152.973 16.672 152.397 18.352 152.253 19.104C152.205 19.328 152.173 19.632 152.173 19.808L152.221 20.368L151.069 20.448C150.749 19.328 150.493 17.504 150.493 15.36C150.493 13.024 151.005 10.304 151.197 9.008C151.245 8.64 151.309 8.224 151.309 7.888ZM155.213 15.568L156.365 15.68C156.221 16.256 156.157 16.704 156.157 17.136C156.157 17.856 156.637 18.56 158.813 18.56C160.237 18.56 161.453 18.432 162.733 18.144L162.749 19.488C161.773 19.68 160.445 19.808 158.797 19.808C156.141 19.808 154.957 18.928 154.957 17.44C154.957 16.864 155.069 16.24 155.213 15.568ZM155.757 10.528L155.741 9.216C157.469 9.504 160.669 9.44 162.253 9.216V10.528C160.557 10.704 157.485 10.704 155.757 10.528ZM174.477 17.824C174.477 17.568 174.461 17.232 174.461 16.832C173.949 16.72 173.437 16.672 172.909 16.672C171.277 16.672 170.349 17.232 170.349 18.096C170.349 18.976 171.229 19.456 172.749 19.456C173.917 19.456 174.477 18.912 174.477 17.824ZM175.549 11.84V11.952C175.549 12.992 175.629 14.528 175.709 15.904C177.741 16.464 179.485 17.568 180.637 18.608L179.869 19.792C178.861 18.768 177.405 17.76 175.757 17.184C175.773 17.6 175.789 17.952 175.789 18.24C175.789 19.536 174.989 20.656 172.877 20.656C170.701 20.656 169.085 19.952 169.085 18.144C169.085 16.72 170.333 15.536 173.069 15.536C173.517 15.536 173.965 15.568 174.413 15.632C174.349 14.352 174.285 12.896 174.285 11.952C174.285 11.04 174.285 9.728 174.269 9.056C174.253 8.48 174.205 7.792 174.141 7.488H175.677C175.613 7.824 175.565 8.576 175.549 9.056C175.533 9.488 175.549 10.048 175.549 10.672C176.813 10.64 178.813 10.56 180.237 10.368L180.285 11.584C178.877 11.712 176.845 11.808 175.549 11.84ZM193.065 19.472C193.513 19.472 193.945 19.44 194.329 19.376C194.185 18.128 193.433 17.264 192.233 17.264C191.513 17.264 190.969 17.696 190.969 18.24C190.969 19.024 191.881 19.472 193.065 19.472ZM196.329 7.968L197.065 8.896C196.777 9.088 196.425 9.328 196.185 9.504C195.401 10.096 193.273 11.968 192.057 12.992C192.777 12.752 193.497 12.656 194.201 12.656C196.841 12.656 198.745 14.256 198.745 16.4C198.745 18.96 196.617 20.624 193.273 20.624C191.113 20.624 189.785 19.664 189.785 18.352C189.785 17.264 190.761 16.272 192.233 16.272C194.217 16.272 195.289 17.6 195.497 19.072C196.745 18.592 197.465 17.68 197.465 16.384C197.465 14.832 195.897 13.696 193.897 13.696C191.289 13.696 189.849 14.8 187.833 16.848L186.905 15.904C188.217 14.816 190.249 13.12 191.177 12.352C192.057 11.616 194.025 9.952 194.809 9.248C193.977 9.28 190.857 9.424 190.041 9.472C189.673 9.488 189.305 9.504 188.969 9.568L188.937 8.24C189.289 8.288 189.737 8.288 190.057 8.288C190.873 8.288 194.633 8.176 195.465 8.096C195.929 8.048 196.153 8.016 196.329 7.968ZM39.5942 38.44L39.0022 39.368C38.5862 39.064 37.9942 38.696 37.3542 38.344C36.7622 39.512 35.8662 40.536 34.4422 41.24C34.2982 41 33.9782 40.6 33.7382 40.408C35.0662 39.8 35.8662 38.888 36.3942 37.864C35.6902 37.528 34.9702 37.224 34.3142 37L34.9062 36.168C35.4982 36.36 36.1382 36.632 36.7782 36.904C36.9382 36.392 37.0662 35.848 37.1462 35.32H34.4582V34.296H42.0902C42.0902 34.296 42.0902 34.648 42.0742 34.792C41.9302 38.552 41.7702 39.944 41.3702 40.408C41.1302 40.728 40.8582 40.84 40.4262 40.872C40.0422 40.904 39.3062 40.904 38.5542 40.856C38.5382 40.52 38.4262 40.088 38.2502 39.784C38.9702 39.848 39.6422 39.848 39.8982 39.848C40.1702 39.864 40.3142 39.832 40.4102 39.688C40.6822 39.4 40.8262 38.28 40.9542 35.32H38.2502C38.1382 36.024 37.9782 36.712 37.7542 37.384C38.4742 37.752 39.1302 38.12 39.5942 38.44ZM36.3942 41.304L37.0822 40.6C38.1062 41.144 39.3542 42.008 39.9302 42.68L39.1942 43.464C38.6182 42.808 37.4182 41.88 36.3942 41.304ZM33.1622 34.168V35.128H28.7782V34.168H33.1622ZM33.6582 36.264V37.24H27.9942V36.264H33.6582ZM33.2102 38.424V39.368H28.6982V38.424H33.2102ZM28.6982 41.496V40.536H33.2102V41.496H28.6982ZM32.2022 43.656H29.6902V46.344H32.2022V43.656ZM33.2262 42.68V47.304H29.6902V48.04H28.6822V42.68H33.2262ZM34.2022 47.352L33.3382 46.792C34.0902 45.992 34.4422 44.6 34.6022 43.288L35.5622 43.528C35.4022 44.936 35.0502 46.472 34.2022 47.352ZM37.7382 47.048H39.2262C39.6422 47.048 39.7222 46.824 39.7702 45.224C39.9942 45.432 40.4422 45.592 40.7622 45.688C40.6502 47.608 40.3622 48.088 39.3542 48.088H37.5782C36.3942 48.088 36.1062 47.768 36.1062 46.584V42.744H37.2102V46.584C37.2102 46.984 37.2742 47.048 37.7382 47.048ZM40.0902 43.384L41.0502 43C41.9142 44.168 42.6342 45.72 42.8582 46.808L41.8182 47.24C41.6102 46.168 40.9062 44.568 40.0902 43.384ZM51.1302 36.856V39.496C51.1302 39.656 51.1302 39.848 51.1142 40.04H54.1222V41.176H51.0502C51.0182 41.528 50.9542 41.896 50.8902 42.248C51.6422 43 53.5782 45.16 54.0742 45.72L53.2742 46.728C52.7302 45.944 51.4822 44.44 50.6182 43.464C50.1062 45.16 49.1302 46.888 47.3062 48.184C47.1462 47.928 46.7302 47.48 46.4742 47.304C48.9062 45.576 49.6582 43.272 49.8662 41.176H46.6502V40.04H49.9462C49.9462 39.848 49.9462 39.656 49.9462 39.48V36.856H48.7302C48.3462 37.816 47.9302 38.68 47.4342 39.368C47.2262 39.16 46.7302 38.84 46.4582 38.68C47.4022 37.448 48.0582 35.544 48.4422 33.608L49.5942 33.832C49.4662 34.504 49.2902 35.144 49.0982 35.752H53.6582V36.856H51.1302ZM55.7862 45.384H59.1622V36.12H55.7862V45.384ZM54.6342 35H60.3462V47.608H59.1622V46.504H55.7862V47.768H54.6342V35ZM67.4342 39.656L66.4902 40.152C66.3302 39.368 65.8022 38.104 65.2742 37.16L66.1542 36.744C66.7142 37.656 67.2742 38.872 67.4342 39.656ZM75.1462 43.112V46.744H79.7702V47.8H68.6342V46.744H70.5542V41.272H71.6582V46.744H73.9942V39.224H69.8182V38.184H79.2742V39.224H75.1462V42.072H79.0022V43.112H75.1462ZM73.8502 35.464H79.7702V36.52H68.8422V40.2C68.8422 42.664 68.5062 46.056 66.3142 48.248C66.1542 48.04 65.7062 47.608 65.4662 47.448C66.7622 46.136 67.3062 44.472 67.5462 42.84C66.8262 43.256 66.1062 43.672 65.4342 44.04L65.0182 42.952C65.7222 42.648 66.6662 42.152 67.6582 41.64C67.6902 41.128 67.7062 40.648 67.7062 40.184V35.464H72.6182V33.624H73.8502V35.464ZM86.4582 38.872L85.4342 39.416C85.1302 38.52 84.3782 37.112 83.6422 36.104L84.6022 35.64C85.3542 36.648 86.1542 37.976 86.4582 38.872ZM86.6822 42.152V33.624H87.8182V48.2H86.6822V43.432C85.7862 44.072 84.8742 44.68 84.0742 45.208L83.4822 44.024C84.2822 43.576 85.4982 42.872 86.6822 42.152ZM96.5382 33.608L97.3862 34.536C95.0982 35.224 91.6262 35.736 88.6662 36.056C88.6342 35.768 88.4742 35.352 88.3302 35.096C91.2582 34.76 94.6342 34.216 96.5382 33.608ZM93.8662 38.872L92.7622 39.16C92.6982 38.408 92.3942 37.192 92.0422 36.264L93.0822 36.008C93.4662 36.936 93.7862 38.12 93.8662 38.872ZM91.0822 39.432L90.0262 39.816C89.8662 39.048 89.4022 37.816 88.9222 36.872L89.8982 36.552C90.4262 37.448 90.9062 38.648 91.0822 39.432ZM89.7702 43.448L90.7302 42.936C91.5462 43.752 92.4742 44.92 92.8742 45.72L91.8502 46.328C91.4822 45.528 90.6022 44.312 89.7702 43.448ZM98.2982 41.176V42.28H96.1222V46.776C96.1222 47.464 95.9782 47.816 95.4662 48.008C94.9702 48.184 94.1222 48.2 92.8742 48.2C92.8262 47.88 92.6502 47.384 92.4742 47.048C93.4662 47.08 94.3622 47.08 94.6182 47.064C94.8902 47.048 94.9542 47 94.9542 46.76V42.28H88.4742V41.176H94.9542V40.168L94.1702 39.72C95.0662 38.68 96.2662 37.048 96.9222 35.8L98.0102 36.344C97.2262 37.56 96.2182 38.92 95.3702 39.912H96.1222V41.176H98.2982ZM116.634 41.8H110.986C112.442 43.752 114.81 45.656 116.97 46.584C116.714 46.824 116.33 47.272 116.138 47.592C114.01 46.536 111.722 44.536 110.17 42.424V48.216H108.938V42.456C107.386 44.568 105.114 46.488 103.018 47.528C102.826 47.24 102.442 46.792 102.186 46.552C104.33 45.624 106.682 43.752 108.138 41.8H102.522V40.664H108.938V36.68H103.274V35.544H108.938V33.624H110.17V35.544H115.962V36.68H110.17V40.664H116.634V41.8ZM104.57 37.448L105.61 37.048C106.25 37.976 106.906 39.208 107.13 40.04L106.01 40.472C105.802 39.672 105.194 38.376 104.57 37.448ZM113.018 40.504L112.026 40.168C112.57 39.304 113.258 37.944 113.642 36.984L114.858 37.368C114.298 38.456 113.594 39.72 113.018 40.504ZM123.658 34.984H125.13C125.098 35.288 125.082 35.752 125.082 36.136V41.48C125.082 41.88 125.098 42.408 125.13 42.696H123.658C123.674 42.456 123.722 41.944 123.722 41.464V36.136C123.722 35.848 123.69 35.288 123.658 34.984ZM131.066 34.872H132.538C132.506 35.256 132.474 35.72 132.474 36.248V38.84C132.474 42.68 131.962 43.944 130.81 45.32C129.77 46.568 128.17 47.256 127.002 47.656L125.962 46.552C127.434 46.184 128.81 45.544 129.802 44.424C130.954 43.096 131.146 41.8 131.146 38.776V36.248C131.146 35.72 131.098 35.256 131.066 34.872ZM150.666 35.672L151.482 36.296C151.386 36.424 151.178 36.776 151.082 37C150.538 38.376 149.53 40.248 148.394 41.688C150.074 43.128 152.026 45.208 153.066 46.456L151.946 47.432C150.874 46.024 149.178 44.136 147.546 42.68C145.834 44.52 143.674 46.28 141.306 47.352L140.282 46.28C142.858 45.272 145.226 43.368 146.874 41.528C147.962 40.296 149.13 38.392 149.53 37.08H143.29C142.73 37.08 141.85 37.144 141.674 37.16V35.704C141.898 35.736 142.81 35.816 143.29 35.816H149.466C149.994 35.816 150.41 35.752 150.666 35.672ZM170.122 36.36L171.194 37C171.066 37.224 170.906 37.592 170.81 37.848C170.378 39.448 169.402 41.624 167.978 43.352C166.522 45.128 164.618 46.6 161.61 47.704L160.458 46.664C163.386 45.8 165.386 44.344 166.842 42.648C168.09 41.176 169.066 39.112 169.386 37.656H163.978C163.018 39 161.674 40.424 159.93 41.592L158.826 40.76C161.594 39.112 163.162 36.792 163.85 35.352C164.026 35.08 164.25 34.504 164.346 34.088L165.834 34.584C165.562 35 165.274 35.528 165.114 35.832C165.002 36.056 164.874 36.28 164.73 36.504H169.082C169.514 36.504 169.866 36.456 170.122 36.36ZM190.058 39.464L191.002 39.912C190.154 41.304 189.114 42.824 188.138 43.8L187.178 43.192C187.77 42.552 188.474 41.624 189.05 40.696H184.506V46.728C184.506 47.464 184.314 47.8 183.754 47.976C183.194 48.152 182.266 48.168 180.874 48.168C180.794 47.832 180.586 47.352 180.426 47.016C181.53 47.064 182.602 47.048 182.922 47.032C183.21 47.016 183.306 46.952 183.306 46.712V40.696H176.714V39.56H185.002C183.642 38.872 181.818 38.04 180.394 37.432L181.002 36.552C181.882 36.904 182.922 37.336 183.898 37.768C184.906 37.192 186.074 36.36 186.938 35.576H178.218V34.472H188.09L188.362 34.408L189.226 35.064C188.09 36.2 186.506 37.416 185.066 38.312C185.722 38.6 186.346 38.904 186.794 39.144L186.522 39.56H189.818L190.058 39.464ZM200.41 38.328V40.296H202.938V38.328H200.41ZM200.41 41.288V43.288H202.938V41.288H200.41ZM200.41 35.384V37.336H202.938V35.384H200.41ZM199.386 34.328H204.01V44.328H199.386V34.328ZM202.202 45.112L203.098 44.616C203.754 45.368 204.554 46.424 204.922 47.064L203.978 47.656C203.626 46.984 202.842 45.896 202.202 45.112ZM200.042 44.664L201.146 44.952C200.602 46.184 199.69 47.464 198.842 48.264C198.65 48.088 198.17 47.768 197.914 47.608C198.762 46.872 199.578 45.752 200.042 44.664ZM207.994 33.624H209.066V46.728C209.066 47.464 208.89 47.8 208.442 47.992C207.994 48.184 207.242 48.216 205.93 48.216C205.882 47.912 205.738 47.4 205.578 47.096C206.522 47.128 207.37 47.112 207.61 47.096C207.882 47.096 207.994 47.016 207.994 46.744V33.624ZM205.21 35.256H206.266V44.344H205.21V35.256ZM195.706 34.632L196.394 33.784C197.29 34.2 198.378 34.872 198.922 35.4L198.218 36.344C197.706 35.816 196.602 35.08 195.706 34.632ZM195.018 38.904L195.69 38.04C196.618 38.408 197.754 39.016 198.314 39.512L197.642 40.488C197.098 39.992 195.962 39.32 195.018 38.904ZM195.354 47.384C195.994 46.152 196.906 44.104 197.562 42.312L198.506 42.936C197.914 44.6 197.114 46.552 196.426 48.024L195.354 47.384ZM226.858 36.568C227.434 36.568 227.914 36.088 227.914 35.512C227.914 34.936 227.434 34.44 226.858 34.44C226.266 34.44 225.802 34.936 225.802 35.512C225.802 36.088 226.266 36.568 226.858 36.568ZM216.602 36.04H224.618C224.778 36.04 224.954 36.04 225.146 36.024C225.098 35.864 225.066 35.688 225.066 35.512C225.066 34.52 225.866 33.704 226.858 33.704C227.85 33.704 228.65 34.52 228.65 35.512C228.65 36.504 227.85 37.304 226.858 37.304C226.65 37.304 226.442 37.272 226.25 37.208L226.218 37.384C225.866 39.064 225.098 41.64 223.834 43.288C222.362 45.16 220.458 46.648 217.53 47.56L216.442 46.36C219.546 45.592 221.338 44.232 222.682 42.52C223.818 41.064 224.554 38.84 224.778 37.304H216.586C215.962 37.304 215.402 37.336 215.002 37.352V35.944C215.434 35.992 216.074 36.04 216.602 36.04ZM243.898 37.336H235.146V44.936H243.898V37.336ZM245.21 37.288V45.176C245.21 45.688 245.226 46.92 245.242 47.096H243.866C243.866 46.984 243.882 46.616 243.882 46.184H235.146C235.162 46.6 235.162 46.984 235.178 47.096H233.802C233.818 46.904 233.85 45.72 233.85 45.16V37.288C233.85 36.92 233.85 36.424 233.818 36.04C234.442 36.056 234.874 36.072 235.242 36.072H243.834C244.186 36.072 244.762 36.072 245.242 36.04C245.21 36.44 245.21 36.888 245.21 37.288ZM256.906 36.888H261.242C261.674 36.888 262.026 36.84 262.282 36.744L263.338 37.384C263.21 37.608 263.05 37.976 262.97 38.232C262.538 39.848 261.562 42.008 260.138 43.752C258.682 45.528 256.762 46.984 253.77 48.104L252.602 47.048C255.546 46.184 257.546 44.744 259.002 43.032C260.25 41.576 261.226 39.496 261.546 38.04H256.154C255.178 39.4 253.85 40.824 252.09 41.976L250.986 41.16C253.738 39.512 255.306 37.176 256.01 35.752C256.17 35.464 256.41 34.888 256.506 34.472L257.978 34.968C257.722 35.384 257.434 35.928 257.274 36.216C257.162 36.44 257.034 36.664 256.906 36.888ZM261.434 34.568L262.282 34.2C262.682 34.776 263.258 35.736 263.594 36.392L262.73 36.776C262.41 36.136 261.866 35.16 261.434 34.568ZM263.194 33.928L264.042 33.56C264.458 34.152 265.082 35.144 265.37 35.736L264.522 36.12C264.17 35.432 263.642 34.52 263.194 33.928ZM281.738 38.728L282.65 39.304C282.57 39.448 282.474 39.656 282.442 39.768C282.01 41.352 281.29 43.016 280.106 44.312C278.426 46.152 276.41 47.096 274.378 47.656L273.386 46.52C275.658 46.056 277.658 45.016 279.018 43.592C279.994 42.568 280.634 41.208 280.922 40.056H272.426C272.042 40.056 271.434 40.072 270.874 40.104V38.76C271.45 38.824 271.994 38.856 272.426 38.856H280.858C281.226 38.856 281.562 38.824 281.738 38.728ZM272.298 36.408V35.08C272.714 35.144 273.226 35.16 273.738 35.16H280.026C280.538 35.16 281.098 35.144 281.482 35.08V36.408C281.098 36.376 280.554 36.36 280.01 36.36H273.738C273.242 36.36 272.73 36.376 272.298 36.408ZM301.606 46.936L300.278 47.544C300.07 46.968 299.75 46.232 299.398 45.448C296.918 45.768 291.574 46.36 289.43 46.552C289.03 46.584 288.566 46.664 288.102 46.728L287.862 45.24C288.342 45.256 288.886 45.24 289.35 45.224C289.59 45.208 289.862 45.192 290.15 45.176C291.046 42.968 292.678 37.848 293.126 36.28C293.318 35.544 293.382 35.16 293.446 34.744L295.03 35.064C294.87 35.464 294.694 35.88 294.486 36.552C294.006 38.056 292.438 42.968 291.638 45.048C293.99 44.824 297.062 44.472 298.806 44.248C298.166 42.984 297.462 41.736 296.87 40.968L298.07 40.424C299.206 42.072 300.95 45.288 301.606 46.936Z" fill="white"/>
<path d="M8.12697 104.841C8.50496 105.903 9.05233 106.747 9.77396 107.373C10.4931 107.999 11.3522 108.446 12.3463 108.718C13.3404 108.989 14.4204 109.123 15.5863 109.123C16.4086 109.123 17.2333 108.998 18.0556 108.747C18.8778 108.497 19.624 108.121 20.2941 107.623C20.9617 107.122 21.5115 106.478 21.9411 105.685C22.3706 104.895 22.5842 103.935 22.5842 102.81C22.5842 101.686 22.3093 100.842 21.7619 100.153C21.2121 99.4647 20.5027 98.8713 19.6265 98.3733C18.7502 97.8753 17.7561 97.4369 16.6418 97.0612C15.5274 96.6855 14.4032 96.2919 13.2717 95.8744C12.1058 95.4599 10.9742 94.9589 9.87705 94.3745C8.77987 93.793 7.79315 93.0415 6.91934 92.1261C6.04552 91.2106 5.34107 90.0864 4.81089 88.7505C4.27826 87.4176 4.01317 85.7924 4.01317 83.875C4.01317 81.3761 4.44271 79.25 5.29934 77.4996C6.15597 75.7492 7.27033 74.3238 8.64242 73.2175C10.0145 72.1142 11.5658 71.3031 13.2987 70.7813C15.0291 70.2594 16.789 70 18.571 70C20.4561 70 22.2307 70.2594 23.8949 70.7813C25.5591 71.3031 27.0146 72.147 28.2664 73.3129C29.5182 74.4789 30.5123 75.9699 31.2511 77.7799C31.9875 79.5929 32.3581 81.7906 32.3581 84.373H24.6926C24.727 83.1236 24.5822 82.0709 24.2557 81.2181C23.9293 80.3653 23.4654 79.6675 22.8665 79.1248C22.2651 78.585 21.5557 78.1974 20.731 77.9678C19.9087 77.7382 19.0325 77.6248 18.1071 77.6248C17.3536 77.6248 16.5902 77.7173 15.817 77.9052C15.0463 78.093 14.3517 78.4061 13.7331 78.8415C13.117 79.2798 12.6188 79.8524 12.2408 80.5591C11.8628 81.2688 11.6738 82.1425 11.6738 83.1832C11.6738 84.2239 12.0076 85.1722 12.6777 85.9027C13.3478 86.6333 14.1529 87.2357 15.0954 87.7158C16.0379 88.1959 17.0075 88.5716 18.0016 88.84C18.9956 89.1113 19.8032 89.329 20.4193 89.496C21.8601 89.9552 23.1806 90.486 24.3809 91.0884C25.5812 91.6937 26.6194 92.475 27.4933 93.4322C28.3671 94.3924 29.0445 95.5583 29.5256 96.933C30.0042 98.3077 30.2448 99.9955 30.2448 101.996C30.2448 104.662 29.7907 106.934 28.8825 108.807C27.9743 110.683 26.806 112.204 25.3848 113.37C23.9612 114.535 22.3584 115.379 20.5739 115.901C18.7895 116.423 17.0247 116.682 15.2746 116.682C10.1299 116.682 6.29834 115.412 3.77753 112.869C1.25918 110.331 0 106.332 0 100.872H7.66551C7.59679 102.456 7.75142 103.78 8.12942 104.841H8.12697ZM50.669 115.683L51.4912 111.184H51.3882C49.022 114.726 45.917 116.495 42.0781 116.495C36.899 116.495 34.3095 113.62 34.3095 107.871C34.3095 107.537 34.334 107.11 34.3856 106.589C34.4371 106.067 34.5059 105.536 34.5918 104.996C34.6777 104.456 34.7636 103.944 34.8495 103.466C34.9354 102.989 35.0115 102.602 35.0802 102.309L38.3718 83.3741H45.6764L42.4365 102.309C42.3677 102.56 42.3088 102.861 42.2573 103.216C42.2057 103.571 42.1542 103.935 42.1026 104.31C42.0511 104.686 42.0167 105.05 41.9996 105.405C41.9824 105.76 41.975 106.04 41.975 106.249C41.975 107.209 42.3432 107.999 43.082 108.622C43.8184 109.248 44.6161 109.559 45.4752 109.559C46.5724 109.559 47.5419 109.299 48.3813 108.777C49.2208 108.255 49.9424 107.582 50.5413 106.747C51.1402 105.915 51.6385 104.954 52.0337 103.872C52.4289 102.79 52.7283 101.683 52.9345 100.559L55.9192 83.3711H63.2239L57.6669 115.683H50.6714H50.669ZM76.1839 83.3711L75.4647 87.3699L75.5678 87.4951C76.39 85.7447 77.5142 84.4744 78.9379 83.6842C80.3615 82.894 81.8956 82.4974 83.5426 82.4974C86.7654 82.4974 89.2518 83.6424 91.0019 85.9355C92.752 88.2287 93.6258 91.3329 93.6258 95.2482C93.6258 97.914 93.3337 100.52 92.752 103.061C92.1678 105.602 91.2768 107.874 90.0765 109.872C88.8763 111.873 87.3766 113.477 85.5749 114.685C83.7733 115.892 81.6403 116.498 79.171 116.498C78.415 116.498 77.6541 116.393 76.881 116.184C76.1102 115.976 75.3886 115.663 74.721 115.248C74.0533 114.831 73.452 114.3 72.9193 113.656C72.3867 113.012 71.9842 112.248 71.7093 111.375H71.5546L68.7761 127H61.5229L69.1369 83.377H76.1839V83.3711ZM77.5731 90.5278C76.579 91.4253 75.747 92.5585 75.0793 93.9331C74.4117 95.3078 73.9134 96.7988 73.587 98.4031C73.2605 100.007 73.0985 101.495 73.0985 102.87C73.0985 104.996 73.5281 106.693 74.3847 107.963C75.2413 109.234 76.5619 109.869 78.3463 109.869C79.7528 109.869 80.953 109.43 81.9471 108.557C82.9412 107.683 83.7635 106.58 84.4164 105.244C85.0668 103.911 85.5479 102.453 85.8572 100.869C86.1665 99.2857 86.3211 97.7858 86.3211 96.3694C86.3211 95.4122 86.2082 94.4937 85.9873 93.62C85.7639 92.7463 85.4375 91.9859 85.0104 91.3388C84.5808 90.6947 84.0408 90.1729 83.3904 89.7763C82.7375 89.3797 81.9839 89.1829 81.1273 89.1829C79.7552 89.1829 78.5721 89.6302 77.578 90.5278H77.5731ZM107.617 83.3711L106.897 87.3699L107.001 87.4951C107.823 85.7447 108.947 84.4744 110.371 83.6842C111.794 82.894 113.328 82.4974 114.975 82.4974C118.198 82.4974 120.685 83.6424 122.435 85.9355C124.185 88.2287 125.059 91.3329 125.059 95.2482C125.059 97.914 124.766 100.52 124.185 103.061C123.601 105.602 122.71 107.874 121.509 109.872C120.309 111.873 118.809 113.477 117.008 114.685C115.206 115.892 113.073 116.498 110.604 116.498C109.848 116.498 109.087 116.393 108.314 116.184C107.543 115.976 106.821 115.663 106.154 115.248C105.486 114.831 104.885 114.3 104.352 113.656C103.819 113.012 103.417 112.248 103.142 111.375H102.987L100.209 127H92.9557L100.57 83.377H107.617V83.3711ZM109.006 90.5278C108.012 91.4253 107.18 92.5585 106.512 93.9331C105.844 95.3078 105.346 96.7988 105.02 98.4031C104.693 100.007 104.531 101.495 104.531 102.87C104.531 104.996 104.961 106.693 105.817 107.963C106.674 109.234 107.995 109.869 109.779 109.869C111.186 109.869 112.386 109.43 113.38 108.557C114.374 107.683 115.196 106.58 115.849 105.244C116.5 103.911 116.981 102.453 117.29 100.869C117.599 99.2857 117.754 97.7858 117.754 96.3694C117.754 95.4122 117.641 94.4937 117.42 93.62C117.197 92.7463 116.87 91.9859 116.443 91.3388C116.014 90.6947 115.474 90.1729 114.823 89.7763C114.17 89.3797 113.417 89.1829 112.56 89.1829C111.188 89.1829 110.005 89.6302 109.011 90.5278H109.006ZM128.939 94.8397C129.641 92.4034 130.652 90.2683 131.975 88.4344C133.296 86.6005 134.899 85.1543 136.786 84.0897C138.671 83.0281 140.8 82.4974 143.166 82.4974C144.982 82.4974 146.656 82.7777 148.18 83.3413C149.707 83.9048 151.018 84.7487 152.115 85.8729C153.212 86.9971 154.061 88.4136 154.66 90.1222C155.259 91.8309 155.561 93.8526 155.561 96.1845C155.561 99.0174 155.21 101.674 154.506 104.152C153.801 106.63 152.783 108.789 151.445 110.62C150.107 112.454 148.487 113.891 146.582 114.932C144.68 115.973 142.51 116.495 140.075 116.495C136.372 116.495 133.414 115.338 131.202 113.027C128.991 110.716 127.884 107.245 127.884 102.62C127.884 99.8702 128.235 97.2759 128.939 94.8397ZM135.525 105.369C135.748 106.243 136.082 107.015 136.529 107.68C136.973 108.348 137.523 108.879 138.176 109.272C138.826 109.669 139.582 109.866 140.439 109.866C141.811 109.866 142.984 109.418 143.963 108.521C144.94 107.626 145.745 106.499 146.381 105.145C147.014 103.791 147.488 102.324 147.795 100.738C148.104 99.1545 148.259 97.6755 148.259 96.3008C148.259 94.1359 147.856 92.4064 147.049 91.1122C146.244 89.821 144.862 89.174 142.908 89.174C141.57 89.174 140.414 89.6212 139.435 90.5188C138.458 91.4164 137.66 92.5286 137.042 93.8616C136.426 95.1945 135.962 96.6437 135.652 98.2063C135.343 99.7688 135.188 101.236 135.188 102.614C135.188 103.574 135.299 104.489 135.522 105.363L135.525 105.369ZM169.761 83.3711L168.681 89.1829L168.784 89.3081C169.606 87.0597 170.85 85.36 172.512 84.215C174.176 83.0699 175.985 82.4974 177.939 82.4974C178.693 82.4974 179.449 82.56 180.202 82.6852L178.71 91.309C178.194 91.1838 177.681 91.0585 177.166 90.9333C176.65 90.8081 176.137 90.7454 175.622 90.7454C174.216 90.7454 173.025 91.0377 172.046 91.6191C171.069 92.2036 170.244 92.9938 169.576 93.9928C168.909 94.9917 168.376 96.1279 167.981 97.3982C167.586 98.6685 167.269 99.9925 167.029 101.367L164.559 115.678H157.306L162.812 83.3651H169.756L169.761 83.3711ZM200.523 83.3711L199.392 89.3081H194.195L191.468 105.369C191.4 105.703 191.348 106.004 191.314 106.275C191.279 106.547 191.262 106.744 191.262 106.869C191.262 107.453 191.338 107.901 191.493 108.214C191.648 108.527 191.844 108.765 192.085 108.932C192.325 109.099 192.59 109.192 192.882 109.213C193.174 109.234 193.457 109.242 193.732 109.242C194.623 109.242 195.496 109.18 196.355 109.055L195.121 115.868C194.365 115.952 193.611 116.023 192.858 116.086C192.102 116.149 191.331 116.179 190.543 116.179C189.686 116.179 188.837 116.086 187.998 115.898C187.156 115.71 186.402 115.376 185.735 114.899C185.067 114.419 184.534 113.763 184.139 112.931C183.744 112.099 183.565 111.014 183.599 109.681C183.599 109.263 183.634 108.795 183.702 108.273C183.771 107.752 183.857 107.2 183.96 106.618L186.945 89.3081H182.161L183.292 83.3711H187.973L189.62 73.5605H196.925L195.278 83.3711H200.526H200.523ZM223.62 71.0616C225.471 71.0616 227.135 71.2077 228.611 71.4999C230.086 71.7922 231.338 72.3229 232.366 73.0923C233.394 73.8646 234.182 74.9262 234.732 76.28C235.279 77.6338 235.554 79.3723 235.554 81.4984C235.554 82.7478 235.4 83.9675 235.09 85.1543C234.781 86.3411 234.327 87.4057 233.728 88.342C233.127 89.2783 232.408 90.0596 231.568 90.6858C230.726 91.312 229.759 91.7086 228.662 91.8726V91.9979C230.412 92.5823 231.757 93.6946 232.7 95.3406C233.642 96.9867 234.114 98.8921 234.114 101.06C234.114 103.478 233.728 105.602 232.955 107.435C232.184 109.269 231.146 110.79 229.843 111.998C228.539 113.205 227.047 114.124 225.368 114.747C223.687 115.373 221.922 115.683 220.069 115.683H200.521L208.189 71.0616H223.62ZM219.71 108.059C221.561 108.059 223.08 107.456 224.264 106.246C225.447 105.038 226.038 103.246 226.038 100.872C226.038 99.7062 225.839 98.7907 225.447 98.1228C225.051 97.4578 224.546 96.9449 223.93 96.593C223.314 96.2382 222.626 96.0205 221.873 95.937C221.117 95.8535 220.38 95.8118 219.661 95.8118H211.738L209.578 108.062H219.713L219.71 108.059ZM222.025 89.1233C223.5 89.1233 224.777 88.6342 225.857 87.6532C226.937 86.6751 227.477 85.205 227.477 83.2458C227.477 81.4954 227.091 80.2997 226.318 79.6526C225.547 79.0085 224.509 78.6834 223.206 78.6834H214.666L212.865 89.1203H222.023L222.025 89.1233ZM249.7 83.3741L248.62 89.1859L248.723 89.3111C249.545 87.0627 250.79 85.363 252.451 84.2179C254.116 83.0729 255.925 82.5003 257.878 82.5003C258.632 82.5003 259.388 82.563 260.141 82.6882L258.649 91.312C258.134 91.1868 257.621 91.0615 257.105 90.9363C256.59 90.811 256.077 90.7484 255.561 90.7484C254.155 90.7484 252.964 91.0407 251.985 91.6221C251.008 92.2066 250.183 92.9968 249.516 93.9958C248.848 94.9947 248.316 96.1308 247.92 97.4012C247.525 98.6715 247.209 99.9954 246.968 101.37L244.499 115.681H237.246L242.751 83.3681H249.695L249.7 83.3741ZM263.487 88.0915C264.275 86.7377 265.237 85.6433 266.369 84.8114C267.5 83.9794 268.769 83.386 270.176 83.0311C271.582 82.6763 273.038 82.5003 274.547 82.5003C275.747 82.5003 276.999 82.6047 278.303 82.8134C279.606 83.0222 280.806 83.4277 281.903 84.0331C283.001 84.6384 283.901 85.4912 284.603 86.5946C285.305 87.6979 285.639 89.168 285.607 91.0019C285.607 92.5436 285.418 94.3566 285.04 96.438L282.674 109.436C282.537 110.021 282.443 110.739 282.392 111.592C282.34 112.448 282.316 113.185 282.316 113.811C282.316 114.354 282.402 114.977 282.573 115.686H275.269V112.499C274.275 113.873 273.057 114.884 271.616 115.528C270.176 116.173 268.683 116.498 267.142 116.498C265.701 116.498 264.442 116.268 263.362 115.809C262.282 115.35 261.381 114.735 260.662 113.966C259.943 113.197 259.41 112.299 259.066 111.279C258.723 110.259 258.551 109.186 258.551 108.062C258.551 104.937 259.435 102.438 261.199 100.562C262.964 98.6864 265.46 97.5204 268.683 97.0612C270.397 96.8107 271.889 96.6229 273.158 96.4976C274.427 96.3724 275.48 96.1756 276.322 95.9042C277.161 95.6329 277.787 95.2392 278.199 94.7174C278.612 94.1956 278.816 93.4143 278.816 92.3736C278.816 91.5416 278.661 90.8737 278.352 90.3727C278.042 89.8717 277.657 89.4781 277.193 89.1859C276.729 88.8936 276.233 88.6968 275.701 88.5925C275.168 88.4881 274.663 88.4374 274.184 88.4374C272.881 88.4374 271.715 88.8221 270.686 89.5944C269.658 90.3667 269.022 91.5625 268.784 93.1877H261.943C262.184 91.148 262.697 89.4483 263.487 88.0945V88.0915ZM274.393 101.403C273.33 101.549 272.267 101.662 271.204 101.746C270.517 101.829 269.849 101.964 269.199 102.151C268.546 102.339 267.971 102.62 267.476 102.995C266.977 103.371 266.575 103.881 266.266 104.525C265.956 105.172 265.802 105.995 265.802 106.994C265.802 108.202 266.204 109.108 267.012 109.714C267.817 110.319 268.752 110.62 269.815 110.62C270.946 110.62 271.899 110.402 272.669 109.964C273.44 109.526 274.093 108.965 274.623 108.276C275.153 107.587 275.576 106.806 275.882 105.933C276.192 105.059 276.449 104.182 276.653 103.308L277.372 100.183C276.447 100.851 275.45 101.257 274.388 101.403H274.393ZM300.781 83.3711L295.124 115.683H287.819L293.425 83.3711H300.781ZM294.247 78.3703L295.585 71.0586H302.941L301.603 78.3703H294.247ZM313.641 83.3711L312.818 87.8708H312.921C315.288 84.2865 318.39 82.4974 322.231 82.4974C327.41 82.4974 330 85.3928 330 91.1838C330 91.5178 329.966 91.9442 329.897 92.466C329.828 92.9879 329.75 93.5187 329.666 94.0584C329.58 94.6011 329.494 95.111 329.408 95.5881C329.323 96.0682 329.261 96.4529 329.229 96.7451L325.938 115.681H318.633L321.873 96.7451C321.942 96.2442 322.035 95.5792 322.155 94.7442C322.276 93.9123 322.334 93.2652 322.334 92.806C322.334 91.8488 321.966 91.0556 321.227 90.4323C320.489 89.8061 319.693 89.496 318.834 89.496C317.737 89.496 316.768 89.7554 315.928 90.2773C315.086 90.7991 314.367 91.476 313.768 92.308C313.167 93.1429 312.671 94.1001 312.276 95.1826C311.881 96.268 311.581 97.3713 311.375 98.4955L308.39 115.683H301.137L306.643 83.3711H313.638H313.641Z" fill="white"/>
</svg>
