<svg width="275" height="42" viewBox="0 0 275 42" fill="none" xmlns="http://www.w3.org/2000/svg">
<path d="M3.056 8.232H6.608L6.048 6.44C5.616 5.112 5.248 3.832 4.864 2.472H4.8C4.432 3.848 4.048 5.112 3.632 6.44L3.056 8.232ZM8.096 13L6.976 9.416H2.688L1.552 13H0.048L4.032 1.272H5.68L9.664 13H8.096ZM13.8787 13V1.272H15.3667V13H13.8787ZM22.3902 0.888L23.8302 0.999999C23.7342 1.272 23.5902 1.784 23.5262 2.072C23.2222 3.528 22.7582 6.36 22.7582 8.136C22.7582 8.904 22.7902 9.544 22.8862 10.312C23.1582 9.592 23.5102 8.664 23.7662 8.04L24.4542 8.552C24.0542 9.672 23.4782 11.352 23.3342 12.104C23.2862 12.328 23.2542 12.632 23.2542 12.808L23.3022 13.368L22.1502 13.448C21.8302 12.328 21.5742 10.504 21.5742 8.36C21.5742 6.024 22.0862 3.304 22.2782 2.008C22.3262 1.64 22.3902 1.224 22.3902 0.888ZM26.2942 8.568L27.4462 8.68C27.3022 9.256 27.2382 9.704 27.2382 10.136C27.2382 10.856 27.7182 11.56 29.8942 11.56C31.3182 11.56 32.5342 11.432 33.8142 11.144L33.8302 12.488C32.8542 12.68 31.5262 12.808 29.8782 12.808C27.2222 12.808 26.0382 11.928 26.0382 10.44C26.0382 9.864 26.1502 9.24 26.2942 8.568ZM26.8382 3.528L26.8222 2.216C28.5502 2.504 31.7502 2.44 33.3342 2.216V3.528C31.6382 3.704 28.5662 3.704 26.8382 3.528ZM45.5583 10.824C45.5583 10.568 45.5423 10.232 45.5423 9.832C45.0303 9.72 44.5183 9.672 43.9903 9.672C42.3583 9.672 41.4303 10.232 41.4303 11.096C41.4303 11.976 42.3103 12.456 43.8303 12.456C44.9983 12.456 45.5583 11.912 45.5583 10.824ZM46.6303 4.84V4.952C46.6303 5.992 46.7103 7.528 46.7903 8.904C48.8223 9.464 50.5663 10.568 51.7183 11.608L50.9503 12.792C49.9423 11.768 48.4863 10.76 46.8383 10.184C46.8543 10.6 46.8703 10.952 46.8703 11.24C46.8703 12.536 46.0703 13.656 43.9583 13.656C41.7823 13.656 40.1663 12.952 40.1663 11.144C40.1663 9.72 41.4143 8.536 44.1503 8.536C44.5983 8.536 45.0463 8.568 45.4943 8.632C45.4303 7.352 45.3663 5.896 45.3663 4.952C45.3663 4.04 45.3663 2.728 45.3503 2.056C45.3343 1.48 45.2863 0.792 45.2223 0.487999H46.7583C46.6943 0.823999 46.6463 1.576 46.6303 2.056C46.6143 2.488 46.6303 3.048 46.6303 3.672C47.8943 3.64 49.8943 3.56 51.3183 3.368L51.3663 4.584C49.9583 4.712 47.9263 4.808 46.6303 4.84ZM64.1459 12.472C64.5939 12.472 65.0259 12.44 65.4099 12.376C65.2659 11.128 64.5139 10.264 63.3139 10.264C62.5939 10.264 62.0499 10.696 62.0499 11.24C62.0499 12.024 62.9619 12.472 64.1459 12.472ZM67.4099 0.967999L68.1459 1.896C67.8579 2.088 67.5059 2.328 67.2659 2.504C66.4819 3.096 64.3539 4.968 63.1379 5.992C63.8579 5.752 64.5779 5.656 65.2819 5.656C67.9219 5.656 69.8259 7.256 69.8259 9.4C69.8259 11.96 67.6979 13.624 64.3539 13.624C62.1939 13.624 60.8659 12.664 60.8659 11.352C60.8659 10.264 61.8419 9.272 63.3139 9.272C65.2979 9.272 66.3699 10.6 66.5779 12.072C67.8259 11.592 68.5459 10.68 68.5459 9.384C68.5459 7.832 66.9779 6.696 64.9779 6.696C62.3699 6.696 60.9299 7.8 58.9139 9.848L57.9859 8.904C59.2979 7.816 61.3299 6.12 62.2579 5.352C63.1379 4.616 65.1059 2.952 65.8899 2.248C65.0579 2.28 61.9379 2.424 61.1219 2.472C60.7539 2.488 60.3859 2.504 60.0499 2.568L60.0179 1.24C60.3699 1.288 60.8179 1.288 61.1379 1.288C61.9539 1.288 65.7139 1.176 66.5459 1.096C67.0099 1.048 67.2339 1.016 67.4099 0.967999ZM12.272 31.44L11.68 32.368C11.264 32.064 10.672 31.696 10.032 31.344C9.44 32.512 8.544 33.536 7.12 34.24C6.976 34 6.656 33.6 6.416 33.408C7.744 32.8 8.544 31.888 9.072 30.864C8.368 30.528 7.648 30.224 6.992 30L7.584 29.168C8.176 29.36 8.816 29.632 9.456 29.904C9.616 29.392 9.744 28.848 9.824 28.32H7.136V27.296H14.768C14.768 27.296 14.768 27.648 14.752 27.792C14.608 31.552 14.448 32.944 14.048 33.408C13.808 33.728 13.536 33.84 13.104 33.872C12.72 33.904 11.984 33.904 11.232 33.856C11.216 33.52 11.104 33.088 10.928 32.784C11.648 32.848 12.32 32.848 12.576 32.848C12.848 32.864 12.992 32.832 13.088 32.688C13.36 32.4 13.504 31.28 13.632 28.32H10.928C10.816 29.024 10.656 29.712 10.432 30.384C11.152 30.752 11.808 31.12 12.272 31.44ZM9.072 34.304L9.76 33.6C10.784 34.144 12.032 35.008 12.608 35.68L11.872 36.464C11.296 35.808 10.096 34.88 9.072 34.304ZM5.84 27.168V28.128H1.456V27.168H5.84ZM6.336 29.264V30.24H0.672V29.264H6.336ZM5.888 31.424V32.368H1.376V31.424H5.888ZM1.376 34.496V33.536H5.888V34.496H1.376ZM4.88 36.656H2.368V39.344H4.88V36.656ZM5.904 35.68V40.304H2.368V41.04H1.36V35.68H5.904ZM6.88 40.352L6.016 39.792C6.768 38.992 7.12 37.6 7.28 36.288L8.24 36.528C8.08 37.936 7.728 39.472 6.88 40.352ZM10.416 40.048H11.904C12.32 40.048 12.4 39.824 12.448 38.224C12.672 38.432 13.12 38.592 13.44 38.688C13.328 40.608 13.04 41.088 12.032 41.088H10.256C9.072 41.088 8.784 40.768 8.784 39.584V35.744H9.888V39.584C9.888 39.984 9.952 40.048 10.416 40.048ZM12.768 36.384L13.728 36C14.592 37.168 15.312 38.72 15.536 39.808L14.496 40.24C14.288 39.168 13.584 37.568 12.768 36.384ZM23.808 29.856V32.496C23.808 32.656 23.808 32.848 23.792 33.04H26.8V34.176H23.728C23.696 34.528 23.632 34.896 23.568 35.248C24.32 36 26.256 38.16 26.752 38.72L25.952 39.728C25.408 38.944 24.16 37.44 23.296 36.464C22.784 38.16 21.808 39.888 19.984 41.184C19.824 40.928 19.408 40.48 19.152 40.304C21.584 38.576 22.336 36.272 22.544 34.176H19.328V33.04H22.624C22.624 32.848 22.624 32.656 22.624 32.48V29.856H21.408C21.024 30.816 20.608 31.68 20.112 32.368C19.904 32.16 19.408 31.84 19.136 31.68C20.08 30.448 20.736 28.544 21.12 26.608L22.272 26.832C22.144 27.504 21.968 28.144 21.776 28.752H26.336V29.856H23.808ZM28.464 38.384H31.84V29.12H28.464V38.384ZM27.312 28H33.024V40.608H31.84V39.504H28.464V40.768H27.312V28ZM40.112 32.656L39.168 33.152C39.008 32.368 38.48 31.104 37.952 30.16L38.832 29.744C39.392 30.656 39.952 31.872 40.112 32.656ZM47.824 36.112V39.744H52.448V40.8H41.312V39.744H43.232V34.272H44.336V39.744H46.672V32.224H42.496V31.184H51.952V32.224H47.824V35.072H51.68V36.112H47.824ZM46.528 28.464H52.448V29.52H41.52V33.2C41.52 35.664 41.184 39.056 38.992 41.248C38.832 41.04 38.384 40.608 38.144 40.448C39.44 39.136 39.984 37.472 40.224 35.84C39.504 36.256 38.784 36.672 38.112 37.04L37.696 35.952C38.4 35.648 39.344 35.152 40.336 34.64C40.368 34.128 40.384 33.648 40.384 33.184V28.464H45.296V26.624H46.528V28.464ZM59.136 31.872L58.112 32.416C57.808 31.52 57.056 30.112 56.32 29.104L57.28 28.64C58.032 29.648 58.832 30.976 59.136 31.872ZM59.36 35.152V26.624H60.496V41.2H59.36V36.432C58.464 37.072 57.552 37.68 56.752 38.208L56.16 37.024C56.96 36.576 58.176 35.872 59.36 35.152ZM69.216 26.608L70.064 27.536C67.776 28.224 64.304 28.736 61.344 29.056C61.312 28.768 61.152 28.352 61.008 28.096C63.936 27.76 67.312 27.216 69.216 26.608ZM66.544 31.872L65.44 32.16C65.376 31.408 65.072 30.192 64.72 29.264L65.76 29.008C66.144 29.936 66.464 31.12 66.544 31.872ZM63.76 32.432L62.704 32.816C62.544 32.048 62.08 30.816 61.6 29.872L62.576 29.552C63.104 30.448 63.584 31.648 63.76 32.432ZM62.448 36.448L63.408 35.936C64.224 36.752 65.152 37.92 65.552 38.72L64.528 39.328C64.16 38.528 63.28 37.312 62.448 36.448ZM70.976 34.176V35.28H68.8V39.776C68.8 40.464 68.656 40.816 68.144 41.008C67.648 41.184 66.8 41.2 65.552 41.2C65.504 40.88 65.328 40.384 65.152 40.048C66.144 40.08 67.04 40.08 67.296 40.064C67.568 40.048 67.632 40 67.632 39.76V35.28H61.152V34.176H67.632V33.168L66.848 32.72C67.744 31.68 68.944 30.048 69.6 28.8L70.688 29.344C69.904 30.56 68.896 31.92 68.048 32.912H68.8V34.176H70.976ZM89.312 34.8H83.664C85.12 36.752 87.488 38.656 89.648 39.584C89.392 39.824 89.008 40.272 88.816 40.592C86.688 39.536 84.4 37.536 82.848 35.424V41.216H81.616V35.456C80.064 37.568 77.792 39.488 75.696 40.528C75.504 40.24 75.12 39.792 74.864 39.552C77.008 38.624 79.36 36.752 80.816 34.8H75.2V33.664H81.616V29.68H75.952V28.544H81.616V26.624H82.848V28.544H88.64V29.68H82.848V33.664H89.312V34.8ZM77.248 30.448L78.288 30.048C78.928 30.976 79.584 32.208 79.808 33.04L78.688 33.472C78.48 32.672 77.872 31.376 77.248 30.448ZM85.696 33.504L84.704 33.168C85.248 32.304 85.936 30.944 86.32 29.984L87.536 30.368C86.976 31.456 86.272 32.72 85.696 33.504ZM96.336 27.984H97.808C97.776 28.288 97.76 28.752 97.76 29.136V34.48C97.76 34.88 97.776 35.408 97.808 35.696H96.336C96.352 35.456 96.4 34.944 96.4 34.464V29.136C96.4 28.848 96.368 28.288 96.336 27.984ZM103.744 27.872H105.216C105.184 28.256 105.152 28.72 105.152 29.248V31.84C105.152 35.68 104.64 36.944 103.488 38.32C102.448 39.568 100.848 40.256 99.68 40.656L98.64 39.552C100.112 39.184 101.488 38.544 102.48 37.424C103.632 36.096 103.824 34.8 103.824 31.776V29.248C103.824 28.72 103.776 28.256 103.744 27.872ZM123.344 28.672L124.16 29.296C124.064 29.424 123.856 29.776 123.76 30C123.216 31.376 122.208 33.248 121.072 34.688C122.752 36.128 124.704 38.208 125.744 39.456L124.624 40.432C123.552 39.024 121.856 37.136 120.224 35.68C118.512 37.52 116.352 39.28 113.984 40.352L112.96 39.28C115.536 38.272 117.904 36.368 119.552 34.528C120.64 33.296 121.808 31.392 122.208 30.08H115.968C115.408 30.08 114.528 30.144 114.352 30.16V28.704C114.576 28.736 115.488 28.816 115.968 28.816H122.144C122.672 28.816 123.088 28.752 123.344 28.672ZM142.8 29.36L143.872 30C143.744 30.224 143.584 30.592 143.488 30.848C143.056 32.448 142.08 34.624 140.656 36.352C139.2 38.128 137.296 39.6 134.288 40.704L133.136 39.664C136.064 38.8 138.064 37.344 139.52 35.648C140.768 34.176 141.744 32.112 142.064 30.656H136.656C135.696 32 134.352 33.424 132.608 34.592L131.504 33.76C134.272 32.112 135.84 29.792 136.528 28.352C136.704 28.08 136.928 27.504 137.024 27.088L138.512 27.584C138.24 28 137.952 28.528 137.792 28.832C137.68 29.056 137.552 29.28 137.408 29.504H141.76C142.192 29.504 142.544 29.456 142.8 29.36ZM162.736 32.464L163.68 32.912C162.832 34.304 161.792 35.824 160.816 36.8L159.856 36.192C160.448 35.552 161.152 34.624 161.728 33.696H157.184V39.728C157.184 40.464 156.992 40.8 156.432 40.976C155.872 41.152 154.944 41.168 153.552 41.168C153.472 40.832 153.264 40.352 153.104 40.016C154.208 40.064 155.28 40.048 155.6 40.032C155.888 40.016 155.984 39.952 155.984 39.712V33.696H149.392V32.56H157.68C156.32 31.872 154.496 31.04 153.072 30.432L153.68 29.552C154.56 29.904 155.6 30.336 156.576 30.768C157.584 30.192 158.752 29.36 159.616 28.576H150.896V27.472H160.768L161.04 27.408L161.904 28.064C160.768 29.2 159.184 30.416 157.744 31.312C158.4 31.6 159.024 31.904 159.472 32.144L159.2 32.56H162.496L162.736 32.464ZM173.088 31.328V33.296H175.616V31.328H173.088ZM173.088 34.288V36.288H175.616V34.288H173.088ZM173.088 28.384V30.336H175.616V28.384H173.088ZM172.064 27.328H176.688V37.328H172.064V27.328ZM174.88 38.112L175.776 37.616C176.432 38.368 177.232 39.424 177.6 40.064L176.656 40.656C176.304 39.984 175.52 38.896 174.88 38.112ZM172.72 37.664L173.824 37.952C173.28 39.184 172.368 40.464 171.52 41.264C171.328 41.088 170.848 40.768 170.592 40.608C171.44 39.872 172.256 38.752 172.72 37.664ZM180.672 26.624H181.744V39.728C181.744 40.464 181.568 40.8 181.12 40.992C180.672 41.184 179.92 41.216 178.608 41.216C178.56 40.912 178.416 40.4 178.256 40.096C179.2 40.128 180.048 40.112 180.288 40.096C180.56 40.096 180.672 40.016 180.672 39.744V26.624ZM177.888 28.256H178.944V37.344H177.888V28.256ZM168.384 27.632L169.072 26.784C169.968 27.2 171.056 27.872 171.6 28.4L170.896 29.344C170.384 28.816 169.28 28.08 168.384 27.632ZM167.696 31.904L168.368 31.04C169.296 31.408 170.432 32.016 170.992 32.512L170.32 33.488C169.776 32.992 168.64 32.32 167.696 31.904ZM168.032 40.384C168.672 39.152 169.584 37.104 170.24 35.312L171.184 35.936C170.592 37.6 169.792 39.552 169.104 41.024L168.032 40.384ZM199.536 29.568C200.112 29.568 200.592 29.088 200.592 28.512C200.592 27.936 200.112 27.44 199.536 27.44C198.944 27.44 198.48 27.936 198.48 28.512C198.48 29.088 198.944 29.568 199.536 29.568ZM189.28 29.04H197.296C197.456 29.04 197.632 29.04 197.824 29.024C197.776 28.864 197.744 28.688 197.744 28.512C197.744 27.52 198.544 26.704 199.536 26.704C200.528 26.704 201.328 27.52 201.328 28.512C201.328 29.504 200.528 30.304 199.536 30.304C199.328 30.304 199.12 30.272 198.928 30.208L198.896 30.384C198.544 32.064 197.776 34.64 196.512 36.288C195.04 38.16 193.136 39.648 190.208 40.56L189.12 39.36C192.224 38.592 194.016 37.232 195.36 35.52C196.496 34.064 197.232 31.84 197.456 30.304H189.264C188.64 30.304 188.08 30.336 187.68 30.352V28.944C188.112 28.992 188.752 29.04 189.28 29.04ZM216.576 30.336H207.824V37.936H216.576V30.336ZM217.888 30.288V38.176C217.888 38.688 217.904 39.92 217.92 40.096H216.544C216.544 39.984 216.56 39.616 216.56 39.184H207.824C207.84 39.6 207.84 39.984 207.856 40.096H206.48C206.496 39.904 206.528 38.72 206.528 38.16V30.288C206.528 29.92 206.528 29.424 206.496 29.04C207.12 29.056 207.552 29.072 207.92 29.072H216.512C216.864 29.072 217.44 29.072 217.92 29.04C217.888 29.44 217.888 29.888 217.888 30.288ZM229.584 29.888H233.92C234.352 29.888 234.704 29.84 234.96 29.744L236.016 30.384C235.888 30.608 235.728 30.976 235.648 31.232C235.216 32.848 234.24 35.008 232.816 36.752C231.36 38.528 229.44 39.984 226.448 41.104L225.28 40.048C228.224 39.184 230.224 37.744 231.68 36.032C232.928 34.576 233.904 32.496 234.224 31.04H228.832C227.856 32.4 226.528 33.824 224.768 34.976L223.664 34.16C226.416 32.512 227.984 30.176 228.688 28.752C228.848 28.464 229.088 27.888 229.184 27.472L230.656 27.968C230.4 28.384 230.112 28.928 229.952 29.216C229.84 29.44 229.712 29.664 229.584 29.888ZM234.112 27.568L234.96 27.2C235.36 27.776 235.936 28.736 236.272 29.392L235.408 29.776C235.088 29.136 234.544 28.16 234.112 27.568ZM235.872 26.928L236.72 26.56C237.136 27.152 237.76 28.144 238.048 28.736L237.2 29.12C236.848 28.432 236.32 27.52 235.872 26.928ZM254.416 31.728L255.328 32.304C255.248 32.448 255.152 32.656 255.12 32.768C254.688 34.352 253.968 36.016 252.784 37.312C251.104 39.152 249.088 40.096 247.056 40.656L246.064 39.52C248.336 39.056 250.336 38.016 251.696 36.592C252.672 35.568 253.312 34.208 253.6 33.056H245.104C244.72 33.056 244.112 33.072 243.552 33.104V31.76C244.128 31.824 244.672 31.856 245.104 31.856H253.536C253.904 31.856 254.24 31.824 254.416 31.728ZM244.976 29.408V28.08C245.392 28.144 245.904 28.16 246.416 28.16H252.704C253.216 28.16 253.776 28.144 254.16 28.08V29.408C253.776 29.376 253.232 29.36 252.688 29.36H246.416C245.92 29.36 245.408 29.376 244.976 29.408ZM274.284 39.936L272.956 40.544C272.748 39.968 272.428 39.232 272.076 38.448C269.596 38.768 264.252 39.36 262.108 39.552C261.708 39.584 261.244 39.664 260.78 39.728L260.54 38.24C261.02 38.256 261.564 38.24 262.028 38.224C262.268 38.208 262.54 38.192 262.828 38.176C263.724 35.968 265.356 30.848 265.804 29.28C265.996 28.544 266.06 28.16 266.124 27.744L267.708 28.064C267.548 28.464 267.372 28.88 267.164 29.552C266.684 31.056 265.116 35.968 264.316 38.048C266.668 37.824 269.74 37.472 271.484 37.248C270.844 35.984 270.14 34.736 269.548 33.968L270.748 33.424C271.884 35.072 273.628 38.288 274.284 39.936Z" fill="white"/>
</svg>
