<svg width="281" height="133" viewBox="0 0 281 133" fill="none" xmlns="http://www.w3.org/2000/svg">
<path d="M11.383 40.4133C11.9086 41.6512 12.6744 42.6174 13.6956 43.342C14.7017 44.0666 15.9031 44.5799 17.2997 44.8969C18.6963 45.214 20.213 45.3649 21.8349 45.3649C22.9912 45.3649 24.1475 45.214 25.2888 44.9271C26.4301 44.6403 27.4813 44.2025 28.4274 43.6288C29.3584 43.0552 30.1393 42.3003 30.74 41.3795C31.3407 40.4586 31.641 39.3565 31.641 38.0431C31.641 36.7297 31.2506 35.7636 30.4847 34.9635C29.7188 34.1633 28.7127 33.484 27.4963 32.8952C26.2649 32.3216 24.8833 31.8083 23.3216 31.3705C21.7598 30.9327 20.183 30.4798 18.6062 29.9967C16.9693 29.5136 15.3925 28.94 13.8458 28.2606C12.314 27.5813 10.9325 26.7208 9.70105 25.6489C8.46965 24.5922 7.49353 23.2788 6.74268 21.7389C5.99182 20.1991 5.63141 18.312 5.63141 16.0928C5.63141 13.1943 6.2321 10.7336 7.43347 8.69557C8.63483 6.67265 10.1966 5.01203 12.1188 3.72883C14.041 2.44563 16.2185 1.50965 18.6362 0.905789C21.069 0.30193 23.5318 0 26.0246 0C28.6676 0 31.1605 0.30193 33.4881 0.905789C35.8158 1.50965 37.8581 2.49092 39.6151 3.83451C41.3721 5.19319 42.7687 6.91419 43.7899 9.0126C44.826 11.111 45.3366 13.6623 45.3366 16.6514H34.5994C34.6445 15.2022 34.4492 13.9793 33.9837 12.9981C33.5332 12.0017 32.8724 11.2016 32.0315 10.5675C31.1905 9.93349 30.1994 9.49569 29.0431 9.22395C27.8868 8.95221 26.6704 8.83144 25.3639 8.83144C24.3127 8.83144 23.2315 8.93712 22.1502 9.16356C21.069 9.39001 20.0929 9.73723 19.2369 10.2505C18.3659 10.7638 17.6751 11.428 17.1495 12.2432C16.6239 13.0585 16.3536 14.085 16.3536 15.2927C16.3536 16.5005 16.8192 17.6025 17.7652 18.4479C18.6963 19.2933 19.8376 19.9877 21.1591 20.5463C22.4806 21.1049 23.8321 21.5427 25.2287 21.8446C26.6253 22.1616 27.7516 22.4183 28.6226 22.5994C30.6349 23.1278 32.497 23.7468 34.1789 24.4412C35.8608 25.1356 37.3175 26.0414 38.5339 27.1586C39.7653 28.2757 40.7114 29.6193 41.3871 31.2195C42.0629 32.8198 42.3933 34.7672 42.3933 37.0921C42.3933 40.1868 41.7626 42.8136 40.4861 44.9875C39.2097 47.1614 37.5728 48.9277 35.5905 50.2713C33.5933 51.63 31.3557 52.5961 28.8479 53.2C26.355 53.8039 23.8772 54.1058 21.4294 54.1058C14.2212 54.1058 8.84507 52.6263 5.31605 49.6825C1.78704 46.7387 0.0150171 42.1041 0.0150171 35.7636H10.7522C10.6621 37.6053 10.8724 39.1301 11.398 40.368L11.383 40.4133ZM71.0009 52.9886L72.1572 47.7653H72.007C68.6882 51.8715 64.3483 53.9246 58.9571 53.9246C51.7039 53.9246 48.0697 50.5883 48.0697 43.9308C48.0697 43.5383 48.0998 43.0552 48.1749 42.4513C48.25 41.8474 48.3401 41.2285 48.4602 40.6095C48.5803 39.9755 48.7005 39.3867 48.8206 38.8282C48.9407 38.2696 49.0459 37.8318 49.151 37.4846L53.7612 15.5343H64.0029L59.4677 37.4846C59.3776 37.7714 59.2875 38.1186 59.2124 38.5413C59.1373 38.9489 59.0623 39.3716 59.0022 39.8094C58.9271 40.2472 58.8821 40.6699 58.852 41.0775C58.822 41.4851 58.822 41.8173 58.822 42.0588C58.822 43.1759 59.3326 44.0817 60.3688 44.8064C61.4049 45.531 62.5162 45.8933 63.7176 45.8933C65.2493 45.8933 66.6159 45.5914 67.7872 44.9875C68.9585 44.3837 69.9797 43.5986 70.8207 42.6325C71.6616 41.6663 72.3524 40.5492 72.908 39.2961C73.4637 38.0431 73.8841 36.7599 74.1695 35.4616L78.3442 15.5343H88.5859L80.807 53.0037H71.0009V52.9886ZM106.757 15.5192L105.75 20.1538L105.901 20.3048C107.057 18.2818 108.634 16.8024 110.616 15.8815C112.613 14.9606 114.761 14.5077 117.073 14.5077C121.593 14.5077 125.077 15.8362 127.525 18.4932C129.973 21.1502 131.204 24.7431 131.204 29.2872C131.204 32.382 130.799 35.4012 129.973 38.3451C129.162 41.2889 127.901 43.9308 126.219 46.2405C124.537 48.5654 122.434 50.4222 119.912 51.8262C117.389 53.2302 114.4 53.9246 110.931 53.9246C109.88 53.9246 108.799 53.8039 107.718 53.5623C106.636 53.3208 105.63 52.9585 104.684 52.4754C103.753 51.9923 102.912 51.3733 102.161 50.6336C101.41 49.8788 100.855 49.0032 100.464 47.9917H100.254L96.3647 66.1075H86.1982L96.8603 15.5343H106.742L106.757 15.5192ZM108.709 23.8222C107.312 24.8639 106.156 26.1773 105.21 27.7775C104.279 29.3778 103.573 31.0988 103.122 32.9556C102.672 34.8125 102.432 36.5486 102.432 38.1337C102.432 40.5944 103.032 42.5721 104.234 44.0364C105.435 45.5159 107.282 46.2405 109.79 46.2405C111.757 46.2405 113.439 45.7272 114.836 44.7158C116.232 43.7043 117.389 42.4211 118.29 40.8813C119.206 39.3414 119.882 37.6506 120.302 35.8089C120.737 33.9671 120.948 32.231 120.948 30.5855C120.948 29.4683 120.798 28.4116 120.482 27.4001C120.167 26.3887 119.716 25.498 119.116 24.7582C118.515 24.0034 117.764 23.3995 116.848 22.9467C115.932 22.4938 114.881 22.2522 113.679 22.2522C111.757 22.2522 110.105 22.7655 108.709 23.8072V23.8222ZM150.802 15.5192L149.796 20.1538L149.946 20.3048C151.102 18.2818 152.679 16.8024 154.661 15.8815C156.658 14.9606 158.806 14.5077 161.118 14.5077C165.639 14.5077 169.123 15.8362 171.57 18.4932C174.018 21.1502 175.25 24.7431 175.25 29.2872C175.25 32.382 174.844 35.4012 174.018 38.3451C173.207 41.2889 171.946 43.9308 170.264 46.2405C168.582 48.5654 166.48 50.4222 163.957 51.8262C161.434 53.2302 158.445 53.9246 154.976 53.9246C153.925 53.9246 152.844 53.8039 151.763 53.5623C150.682 53.3208 149.675 52.9585 148.729 52.4754C147.798 51.9923 146.957 51.3733 146.207 50.6336C145.456 49.8788 144.9 49.0032 144.51 47.9917H144.299L140.41 66.1075H130.243L140.905 15.5343H150.787L150.802 15.5192ZM152.754 23.8222C151.357 24.8639 150.201 26.1773 149.255 27.7775C148.324 29.3778 147.618 31.0988 147.168 32.9556C146.717 34.8125 146.477 36.5486 146.477 38.1337C146.477 40.5944 147.077 42.5721 148.279 44.0364C149.48 45.5159 151.327 46.2405 153.835 46.2405C155.802 46.2405 157.484 45.7272 158.881 44.7158C160.278 43.7043 161.434 42.4211 162.335 40.8813C163.251 39.3414 163.927 37.6506 164.347 35.8089C164.783 33.9671 164.993 32.231 164.993 30.5855C164.993 29.4683 164.843 28.4116 164.527 27.4001C164.212 26.3887 163.761 25.498 163.161 24.7582C162.56 24.0034 161.809 23.3995 160.893 22.9467C159.977 22.4938 158.926 22.2522 157.725 22.2522C155.802 22.2522 154.151 22.7655 152.754 23.8072V23.8222ZM180.686 28.8192C181.677 25.9961 183.089 23.5203 184.936 21.3917C186.783 19.2631 189.035 17.5874 191.678 16.3495C194.321 15.1116 197.295 14.5077 200.613 14.5077C203.166 14.5077 205.509 14.8398 207.641 15.489C209.774 16.1381 211.621 17.1194 213.153 18.4177C214.684 19.716 215.886 21.3615 216.727 23.3392C217.568 25.3168 217.988 27.6568 217.988 30.3741C217.988 33.6652 217.493 36.7448 216.517 39.6132C215.525 42.4815 214.099 44.9875 212.222 47.1161C210.345 49.2447 208.077 50.9053 205.404 52.1131C202.731 53.3208 199.697 53.9246 196.289 53.9246C191.093 53.9246 186.948 52.581 183.854 49.909C180.761 47.2369 179.199 43.2061 179.199 37.8469C179.199 34.6615 179.695 31.6573 180.671 28.8192H180.686ZM189.906 41.0322C190.222 42.0437 190.687 42.9344 191.318 43.7194C191.949 44.4893 192.714 45.1083 193.631 45.5612C194.547 46.0141 195.598 46.2556 196.799 46.2556C198.721 46.2556 200.373 45.7423 201.74 44.7007C203.106 43.659 204.233 42.3607 205.134 40.7907C206.02 39.2207 206.68 37.5148 207.116 35.6881C207.551 33.8463 207.762 32.1404 207.762 30.5402C207.762 28.0342 207.191 26.0263 206.065 24.5318C204.938 23.0372 203.001 22.2824 200.268 22.2824C198.391 22.2824 196.769 22.7957 195.403 23.8373C194.036 24.879 192.91 26.1622 192.054 27.7171C191.183 29.257 190.537 30.9478 190.101 32.7594C189.666 34.5709 189.456 36.2768 189.456 37.862C189.456 38.9791 189.606 40.0359 189.921 41.0473L189.906 41.0322ZM237.871 15.5192L236.354 22.2522L236.504 22.4032C237.661 19.7915 239.403 17.8289 241.73 16.5005C244.058 15.172 246.596 14.5077 249.329 14.5077C250.38 14.5077 251.446 14.5832 252.498 14.7191L250.41 24.7129C249.689 24.562 248.969 24.4261 248.248 24.2751C247.527 24.1242 246.806 24.0638 246.085 24.0638C244.118 24.0638 242.451 24.3959 241.07 25.0753C239.703 25.7546 238.547 26.6755 237.616 27.8228C236.685 28.9852 235.934 30.2986 235.378 31.7781C234.822 33.2576 234.387 34.7823 234.042 36.3825L230.588 52.9736H220.421L228.14 15.5041H237.871V15.5192ZM280.97 15.5192L279.378 22.4032H272.095L268.281 41.0322C268.19 41.4247 268.115 41.772 268.07 42.089C268.025 42.406 267.995 42.6325 267.995 42.7834C267.995 43.4628 268.1 43.9761 268.326 44.3384C268.536 44.7007 268.821 44.9724 269.152 45.1687C269.482 45.3649 269.857 45.4706 270.263 45.5008C270.668 45.531 271.074 45.531 271.449 45.531C272.696 45.531 273.927 45.4555 275.128 45.3196L273.401 53.2151C272.35 53.3057 271.284 53.3963 270.233 53.4717C269.182 53.5472 268.1 53.5774 266.989 53.5774C265.788 53.5774 264.601 53.4717 263.415 53.2453C262.229 53.0188 261.177 52.6414 260.246 52.0829C259.315 51.5243 258.564 50.7695 258.009 49.8033C257.453 48.8371 257.198 47.5841 257.258 46.0292C257.258 45.5461 257.303 45.0026 257.408 44.3988C257.498 43.7949 257.618 43.1608 257.769 42.4815L261.943 22.4032H255.246L256.837 15.5192H263.4L265.713 4.13644H275.954L273.642 15.5192H281H280.97ZM32.3619 80.3284C34.9598 80.3284 37.2875 80.4944 39.3598 80.8417C41.4322 81.1738 43.1742 81.7927 44.6158 82.6834C46.0574 83.5741 47.1687 84.812 47.9346 86.3821C48.7005 87.9521 49.0909 89.975 49.0909 92.4358C49.0909 93.885 48.8807 95.3041 48.4452 96.6779C48.0097 98.0517 47.379 99.2896 46.538 100.377C45.697 101.463 44.6909 102.369 43.5045 103.094C42.3332 103.819 40.9667 104.271 39.4349 104.468V104.619C41.8827 105.298 43.7749 106.581 45.0964 108.498C46.4179 110.401 47.0786 112.62 47.0786 115.126C47.0786 117.934 46.538 120.394 45.4568 122.523C44.3755 124.652 42.9189 126.418 41.1018 127.807C39.2697 129.211 37.1823 130.268 34.8247 130.992C32.467 131.717 29.9892 132.079 27.4062 132.079H0L10.7372 80.3435H32.3619V80.3284ZM26.8806 123.233C29.4786 123.233 31.596 122.538 33.2629 121.134C34.9148 119.73 35.7557 117.662 35.7557 114.899C35.7557 113.541 35.4854 112.484 34.9298 111.714C34.3741 110.944 33.6683 110.355 32.7974 109.933C31.9264 109.525 30.9653 109.268 29.9141 109.178C28.8629 109.087 27.8267 109.027 26.8205 109.027H15.7229L12.6895 123.233H26.8956H26.8806ZM30.1243 101.282C32.1967 101.282 33.9837 100.709 35.5004 99.5764C37.0172 98.4442 37.768 96.7383 37.768 94.4738C37.768 92.4509 37.2274 91.062 36.1462 90.3072C35.0649 89.5523 33.6083 89.19 31.7912 89.19H19.8226L17.2997 101.297H30.1243V101.282ZM68.8985 94.6097L67.3817 101.343L67.5319 101.494C68.6882 98.882 70.4302 96.9194 72.7579 95.5909C75.0855 94.2624 77.6234 93.5982 80.3565 93.5982C81.4077 93.5982 82.4739 93.6737 83.5251 93.8095L81.4377 103.803C80.7169 103.652 79.9961 103.517 79.2753 103.366C78.5545 103.215 77.8336 103.154 77.1128 103.154C75.1456 103.154 73.4787 103.486 72.0971 104.166C70.7305 104.845 69.5742 105.766 68.6432 106.913C67.7121 108.076 66.9613 109.389 66.4056 110.869C65.85 112.348 65.4145 113.873 65.0691 115.473L61.6152 132.064H51.4486L59.1674 94.5946H68.8985V94.6097ZM88.2105 100.075C89.3217 98.5045 90.6582 97.2364 92.2501 96.2703C93.8419 95.3041 95.6139 94.6096 97.5811 94.202C99.5484 93.7944 101.591 93.5831 103.708 93.5831C105.39 93.5831 107.147 93.7039 108.964 93.9454C110.796 94.187 112.478 94.6549 114.01 95.3645C115.542 96.0589 116.803 97.0553 117.794 98.3385C118.785 99.6217 119.251 101.328 119.206 103.441C119.206 105.222 118.935 107.336 118.41 109.751L115.091 124.818C114.896 125.497 114.761 126.327 114.701 127.324C114.626 128.32 114.595 129.166 114.595 129.89C114.595 130.524 114.716 131.249 114.956 132.064H104.714V128.365C103.318 129.966 101.621 131.128 99.5934 131.883C97.5811 132.638 95.4787 133 93.3163 133C91.304 133 89.532 132.728 88.0152 132.2C86.4985 131.672 85.2371 130.962 84.2309 130.056C83.2248 129.166 82.4739 128.124 81.9934 126.946C81.5128 125.769 81.2726 124.516 81.2726 123.217C81.2726 119.594 82.504 116.696 84.9818 114.522C87.4596 112.348 90.9586 110.989 95.4637 110.461C97.8665 110.174 99.9538 109.948 101.741 109.812C103.513 109.661 105 109.434 106.171 109.117C107.342 108.8 108.228 108.347 108.799 107.744C109.37 107.14 109.67 106.234 109.67 105.026C109.67 104.06 109.46 103.29 109.024 102.701C108.589 102.128 108.048 101.66 107.402 101.328C106.757 100.995 106.051 100.754 105.315 100.633C104.564 100.512 103.858 100.452 103.183 100.452C101.35 100.452 99.7286 100.905 98.2869 101.796C96.8453 102.686 95.9593 104.075 95.6139 105.962H86.033C86.3634 103.592 87.0842 101.63 88.1954 100.059L88.2105 100.075ZM103.498 115.503C102.011 115.669 100.524 115.805 99.0228 115.896C98.0617 115.986 97.1306 116.152 96.2146 116.364C95.2985 116.575 94.5026 116.907 93.7968 117.345C93.106 117.783 92.5354 118.372 92.0999 119.126C91.6644 119.881 91.4542 120.832 91.4542 121.995C91.4542 123.399 92.0248 124.44 93.1511 125.15C94.2774 125.844 95.5839 126.207 97.0856 126.207C98.6774 126.207 99.9989 125.95 101.08 125.452C102.161 124.938 103.077 124.289 103.813 123.489C104.564 122.689 105.15 121.783 105.585 120.772C106.021 119.76 106.381 118.749 106.666 117.722L107.673 114.099C106.381 114.869 104.985 115.337 103.498 115.518V115.503ZM140.47 94.5946L132.541 132.064H122.299L130.153 94.5946H140.455H140.47ZM131.31 88.7975L133.187 80.3133H143.488L141.611 88.7975H131.31ZM158.49 94.5946L157.334 99.8179H157.484C160.803 95.6664 165.143 93.5831 170.534 93.5831C177.787 93.5831 181.422 96.9345 181.422 103.652C181.422 104.045 181.377 104.528 181.271 105.132C181.181 105.736 181.061 106.355 180.941 106.974C180.821 107.608 180.701 108.196 180.581 108.755C180.461 109.314 180.37 109.751 180.325 110.099L175.715 132.049H165.473L170.009 110.099C170.099 109.525 170.234 108.74 170.399 107.774C170.564 106.808 170.654 106.053 170.654 105.524C170.654 104.407 170.144 103.501 169.108 102.777C168.071 102.052 166.96 101.69 165.759 101.69C164.227 101.69 162.86 101.992 161.689 102.596C160.518 103.2 159.497 103.985 158.656 104.951C157.815 105.917 157.124 107.034 156.568 108.287C156.013 109.54 155.592 110.823 155.307 112.122L151.132 132.049H140.966L148.684 94.5795H158.49V94.5946Z" fill="white"/>
</svg>
