<svg width="586" height="157" viewBox="0 0 586 157" fill="none" xmlns="http://www.w3.org/2000/svg">
<path d="M5.02586 23.848H10.3539L9.51386 21.16C8.86586 19.168 8.31386 17.248 7.73786 15.208H7.64186C7.08986 17.272 6.51386 19.168 5.88986 21.16L5.02586 23.848ZM12.5859 31L10.9059 25.624H4.47386L2.76986 31H0.513864L6.48986 13.408H8.96186L14.9379 31H12.5859ZM21.26 31V13.408H23.492V31H21.26ZM34.0272 12.832L36.1872 13C36.0432 13.408 35.8272 14.176 35.7312 14.608C35.2752 16.792 34.5792 21.04 34.5792 23.704C34.5792 24.856 34.6272 25.816 34.7712 26.968C35.1792 25.888 35.7072 24.496 36.0912 23.56L37.1232 24.328C36.5232 26.008 35.6592 28.528 35.4432 29.656C35.3712 29.992 35.3232 30.448 35.3232 30.712L35.3952 31.552L33.6672 31.672C33.1872 29.992 32.8032 27.256 32.8032 24.04C32.8032 20.536 33.5712 16.456 33.8592 14.512C33.9312 13.96 34.0272 13.336 34.0272 12.832ZM39.8832 24.352L41.6112 24.52C41.3952 25.384 41.2992 26.056 41.2992 26.704C41.2992 27.784 42.0192 28.84 45.2832 28.84C47.4192 28.84 49.2432 28.648 51.1632 28.216L51.1872 30.232C49.7232 30.52 47.7312 30.712 45.2592 30.712C41.2752 30.712 39.4992 29.392 39.4992 27.16C39.4992 26.296 39.6672 25.36 39.8832 24.352ZM40.6992 16.792L40.6752 14.824C43.2672 15.256 48.0672 15.16 50.4432 14.824V16.792C47.8992 17.056 43.2912 17.056 40.6992 16.792ZM68.7792 27.736C68.7792 27.352 68.7552 26.848 68.7552 26.248C67.9872 26.08 67.2192 26.008 66.4272 26.008C63.9792 26.008 62.5872 26.848 62.5872 28.144C62.5872 29.464 63.9072 30.184 66.1872 30.184C67.9392 30.184 68.7792 29.368 68.7792 27.736ZM70.3872 18.76V18.928C70.3872 20.488 70.5072 22.792 70.6272 24.856C73.6752 25.696 76.2912 27.352 78.0192 28.912L76.8672 30.688C75.3552 29.152 73.1712 27.64 70.6992 26.776C70.7232 27.4 70.7472 27.928 70.7472 28.36C70.7472 30.304 69.5472 31.984 66.3792 31.984C63.1152 31.984 60.6912 30.928 60.6912 28.216C60.6912 26.08 62.5632 24.304 66.6672 24.304C67.3392 24.304 68.0112 24.352 68.6832 24.448C68.5872 22.528 68.4912 20.344 68.4912 18.928C68.4912 17.56 68.4912 15.592 68.4672 14.584C68.4432 13.72 68.3712 12.688 68.2752 12.232H70.5792C70.4832 12.736 70.4112 13.864 70.3872 14.584C70.3632 15.232 70.3872 16.072 70.3872 17.008C72.2832 16.96 75.2832 16.84 77.4192 16.552L77.4912 18.376C75.3792 18.568 72.3312 18.712 70.3872 18.76ZM96.6607 30.208C97.3327 30.208 97.9807 30.16 98.5567 30.064C98.3407 28.192 97.2127 26.896 95.4127 26.896C94.3327 26.896 93.5167 27.544 93.5167 28.36C93.5167 29.536 94.8847 30.208 96.6607 30.208ZM101.557 12.952L102.661 14.344C102.229 14.632 101.701 14.992 101.341 15.256C100.165 16.144 96.9727 18.952 95.1487 20.488C96.2287 20.128 97.3087 19.984 98.3647 19.984C102.325 19.984 105.181 22.384 105.181 25.6C105.181 29.44 101.989 31.936 96.9727 31.936C93.7327 31.936 91.7407 30.496 91.7407 28.528C91.7407 26.896 93.2047 25.408 95.4127 25.408C98.3887 25.408 99.9967 27.4 100.309 29.608C102.181 28.888 103.261 27.52 103.261 25.576C103.261 23.248 100.909 21.544 97.9087 21.544C93.9967 21.544 91.8367 23.2 88.8127 26.272L87.4207 24.856C89.3887 23.224 92.4367 20.68 93.8287 19.528C95.1487 18.424 98.1007 15.928 99.2767 14.872C98.0287 14.92 93.3487 15.136 92.1247 15.208C91.5727 15.232 91.0207 15.256 90.5167 15.352L90.4687 13.36C90.9967 13.432 91.6687 13.432 92.1487 13.432C93.3727 13.432 99.0127 13.264 100.261 13.144C100.957 13.072 101.293 13.024 101.557 12.952ZM130.933 18.16L130.045 19.552C129.421 19.096 128.533 18.544 127.573 18.016C126.685 19.768 125.341 21.304 123.205 22.36C122.989 22 122.509 21.4 122.149 21.112C124.141 20.2 125.341 18.832 126.133 17.296C125.077 16.792 123.997 16.336 123.013 16L123.901 14.752C124.789 15.04 125.749 15.448 126.709 15.856C126.949 15.088 127.141 14.272 127.261 13.48H123.229V11.944H134.677C134.677 11.944 134.677 12.472 134.653 12.688C134.437 18.328 134.197 20.416 133.597 21.112C133.237 21.592 132.829 21.76 132.181 21.808C131.605 21.856 130.501 21.856 129.373 21.784C129.349 21.28 129.181 20.632 128.917 20.176C129.997 20.272 131.005 20.272 131.389 20.272C131.797 20.296 132.013 20.248 132.157 20.032C132.565 19.6 132.781 17.92 132.973 13.48H128.917C128.749 14.536 128.509 15.568 128.173 16.576C129.253 17.128 130.237 17.68 130.933 18.16ZM126.133 22.456L127.165 21.4C128.701 22.216 130.573 23.512 131.437 24.52L130.333 25.696C129.469 24.712 127.669 23.32 126.133 22.456ZM121.285 11.752V13.192H114.709V11.752H121.285ZM122.029 14.896V16.36H113.533V14.896H122.029ZM121.357 18.136V19.552H114.589V18.136H121.357ZM114.589 22.744V21.304H121.357V22.744H114.589ZM119.845 25.984H116.077V30.016H119.845V25.984ZM121.381 24.52V31.456H116.077V32.56H114.565V24.52H121.381ZM122.845 31.528L121.549 30.688C122.677 29.488 123.205 27.4 123.445 25.432L124.885 25.792C124.645 27.904 124.117 30.208 122.845 31.528ZM128.149 31.072H130.381C131.005 31.072 131.125 30.736 131.197 28.336C131.533 28.648 132.205 28.888 132.685 29.032C132.517 31.912 132.085 32.632 130.573 32.632H127.909C126.133 32.632 125.701 32.152 125.701 30.376V24.616H127.357V30.376C127.357 30.976 127.453 31.072 128.149 31.072ZM131.677 25.576L133.117 25C134.413 26.752 135.493 29.08 135.829 30.712L134.269 31.36C133.957 29.752 132.901 27.352 131.677 25.576ZM148.237 15.784V19.744C148.237 19.984 148.237 20.272 148.213 20.56H152.725V22.264H148.117C148.069 22.792 147.973 23.344 147.877 23.872C149.005 25 151.909 28.24 152.653 29.08L151.453 30.592C150.637 29.416 148.765 27.16 147.469 25.696C146.701 28.24 145.237 30.832 142.501 32.776C142.261 32.392 141.637 31.72 141.253 31.456C144.901 28.864 146.029 25.408 146.341 22.264H141.517V20.56H146.461C146.461 20.272 146.461 19.984 146.461 19.72V15.784H144.637C144.061 17.224 143.437 18.52 142.693 19.552C142.381 19.24 141.637 18.76 141.229 18.52C142.645 16.672 143.629 13.816 144.205 10.912L145.933 11.248C145.741 12.256 145.477 13.216 145.189 14.128H152.029V15.784H148.237ZM155.221 28.576H160.285V14.68H155.221V28.576ZM153.493 13H162.061V31.912H160.285V30.256H155.221V32.152H153.493V13ZM172.693 19.984L171.277 20.728C171.037 19.552 170.245 17.656 169.453 16.24L170.773 15.616C171.613 16.984 172.453 18.808 172.693 19.984ZM184.261 25.168V30.616H191.197V32.2H174.493V30.616H177.373V22.408H179.029V30.616H182.533V19.336H176.269V17.776H190.453V19.336H184.261V23.608H190.045V25.168H184.261ZM182.317 13.696H191.197V15.28H174.805V20.8C174.805 24.496 174.301 29.584 171.013 32.872C170.773 32.56 170.101 31.912 169.741 31.672C171.685 29.704 172.501 27.208 172.861 24.76C171.781 25.384 170.701 26.008 169.693 26.56L169.069 24.928C170.125 24.472 171.541 23.728 173.029 22.96C173.077 22.192 173.101 21.472 173.101 20.776V13.696H180.469V10.936H182.317V13.696ZM201.229 18.808L199.693 19.624C199.237 18.28 198.109 16.168 197.005 14.656L198.445 13.96C199.573 15.472 200.773 17.464 201.229 18.808ZM201.565 23.728V10.936H203.269V32.8H201.565V25.648C200.221 26.608 198.853 27.52 197.653 28.312L196.765 26.536C197.965 25.864 199.789 24.808 201.565 23.728ZM216.349 10.912L217.621 12.304C214.189 13.336 208.981 14.104 204.541 14.584C204.493 14.152 204.253 13.528 204.037 13.144C208.429 12.64 213.493 11.824 216.349 10.912ZM212.341 18.808L210.685 19.24C210.589 18.112 210.133 16.288 209.605 14.896L211.165 14.512C211.741 15.904 212.221 17.68 212.341 18.808ZM208.165 19.648L206.581 20.224C206.341 19.072 205.645 17.224 204.925 15.808L206.389 15.328C207.181 16.672 207.901 18.472 208.165 19.648ZM206.197 25.672L207.637 24.904C208.861 26.128 210.253 27.88 210.853 29.08L209.317 29.992C208.765 28.792 207.445 26.968 206.197 25.672ZM218.989 22.264V23.92H215.725V30.664C215.725 31.696 215.509 32.224 214.741 32.512C213.997 32.776 212.725 32.8 210.853 32.8C210.781 32.32 210.517 31.576 210.253 31.072C211.741 31.12 213.085 31.12 213.469 31.096C213.877 31.072 213.973 31 213.973 30.64V23.92H204.253V22.264H213.973V20.752L212.797 20.08C214.141 18.52 215.941 16.072 216.925 14.2L218.557 15.016C217.381 16.84 215.869 18.88 214.597 20.368H215.725V22.264H218.989ZM246.493 23.2H238.021C240.205 26.128 243.757 28.984 246.997 30.376C246.613 30.736 246.037 31.408 245.749 31.888C242.557 30.304 239.125 27.304 236.797 24.136V32.824H234.949V24.184C232.621 27.352 229.213 30.232 226.069 31.792C225.781 31.36 225.205 30.688 224.821 30.328C228.037 28.936 231.565 26.128 233.749 23.2H225.325V21.496H234.949V15.52H226.453V13.816H234.949V10.936H236.797V13.816H245.485V15.52H236.797V21.496H246.493V23.2ZM228.397 16.672L229.957 16.072C230.917 17.464 231.901 19.312 232.237 20.56L230.557 21.208C230.245 20.008 229.333 18.064 228.397 16.672ZM241.069 21.256L239.581 20.752C240.397 19.456 241.429 17.416 242.005 15.976L243.829 16.552C242.989 18.184 241.933 20.08 241.069 21.256ZM257.029 12.976H259.237C259.189 13.432 259.165 14.128 259.165 14.704V22.72C259.165 23.32 259.189 24.112 259.237 24.544H257.029C257.053 24.184 257.125 23.416 257.125 22.696V14.704C257.125 14.272 257.077 13.432 257.029 12.976ZM268.141 12.808H270.349C270.301 13.384 270.253 14.08 270.253 14.872V18.76C270.253 24.52 269.485 26.416 267.757 28.48C266.197 30.352 263.797 31.384 262.045 31.984L260.485 30.328C262.693 29.776 264.757 28.816 266.245 27.136C267.973 25.144 268.261 23.2 268.261 18.664V14.872C268.261 14.08 268.189 13.384 268.141 12.808ZM297.541 14.008L298.765 14.944C298.621 15.136 298.309 15.664 298.165 16C297.349 18.064 295.837 20.872 294.133 23.032C296.653 25.192 299.581 28.312 301.141 30.184L299.461 31.648C297.853 29.536 295.309 26.704 292.861 24.52C290.293 27.28 287.053 29.92 283.501 31.528L281.965 29.92C285.829 28.408 289.381 25.552 291.853 22.792C293.485 20.944 295.237 18.088 295.837 16.12H286.477C285.637 16.12 284.317 16.216 284.053 16.24V14.056C284.389 14.104 285.757 14.224 286.477 14.224H295.741C296.533 14.224 297.157 14.128 297.541 14.008ZM326.725 15.04L328.333 16C328.141 16.336 327.901 16.888 327.757 17.272C327.109 19.672 325.645 22.936 323.509 25.528C321.325 28.192 318.469 30.4 313.957 32.056L312.229 30.496C316.621 29.2 319.621 27.016 321.805 24.472C323.677 22.264 325.141 19.168 325.621 16.984H317.509C316.069 19 314.053 21.136 311.437 22.888L309.781 21.64C313.933 19.168 316.285 15.688 317.317 13.528C317.581 13.12 317.917 12.256 318.061 11.632L320.293 12.376C319.885 13 319.453 13.792 319.213 14.248C319.045 14.584 318.853 14.92 318.637 15.256H325.165C325.813 15.256 326.341 15.184 326.725 15.04ZM356.629 19.696L358.045 20.368C356.773 22.456 355.213 24.736 353.749 26.2L352.309 25.288C353.197 24.328 354.253 22.936 355.117 21.544H348.301V30.592C348.301 31.696 348.013 32.2 347.173 32.464C346.333 32.728 344.941 32.752 342.853 32.752C342.733 32.248 342.421 31.528 342.181 31.024C343.837 31.096 345.445 31.072 345.925 31.048C346.357 31.024 346.501 30.928 346.501 30.568V21.544H336.613V19.84H349.045C347.005 18.808 344.269 17.56 342.133 16.648L343.045 15.328C344.365 15.856 345.925 16.504 347.389 17.152C348.901 16.288 350.653 15.04 351.949 13.864H338.869V12.208H353.677L354.085 12.112L355.381 13.096C353.677 14.8 351.301 16.624 349.141 17.968C350.125 18.4 351.061 18.856 351.733 19.216L351.325 19.84H356.269L356.629 19.696ZM372.157 17.992V20.944H375.949V17.992H372.157ZM372.157 22.432V25.432H375.949V22.432H372.157ZM372.157 13.576V16.504H375.949V13.576H372.157ZM370.621 11.992H377.557V26.992H370.621V11.992ZM374.845 28.168L376.189 27.424C377.173 28.552 378.373 30.136 378.925 31.096L377.509 31.984C376.981 30.976 375.805 29.344 374.845 28.168ZM371.605 27.496L373.261 27.928C372.445 29.776 371.077 31.696 369.805 32.896C369.517 32.632 368.797 32.152 368.413 31.912C369.685 30.808 370.909 29.128 371.605 27.496ZM383.533 10.936H385.141V30.592C385.141 31.696 384.877 32.2 384.205 32.488C383.533 32.776 382.405 32.824 380.437 32.824C380.365 32.368 380.149 31.6 379.909 31.144C381.325 31.192 382.597 31.168 382.957 31.144C383.365 31.144 383.533 31.024 383.533 30.616V10.936ZM379.357 13.384H380.941V27.016H379.357V13.384ZM365.101 12.448L366.133 11.176C367.477 11.8 369.109 12.808 369.925 13.6L368.869 15.016C368.101 14.224 366.445 13.12 365.101 12.448ZM364.069 18.856L365.077 17.56C366.469 18.112 368.173 19.024 369.013 19.768L368.005 21.232C367.189 20.488 365.485 19.48 364.069 18.856ZM364.573 31.576C365.533 29.728 366.901 26.656 367.885 23.968L369.301 24.904C368.413 27.4 367.213 30.328 366.181 32.536L364.573 31.576ZM411.829 15.352C412.693 15.352 413.413 14.632 413.413 13.768C413.413 12.904 412.693 12.16 411.829 12.16C410.941 12.16 410.245 12.904 410.245 13.768C410.245 14.632 410.941 15.352 411.829 15.352ZM396.445 14.56H408.469C408.709 14.56 408.973 14.56 409.261 14.536C409.189 14.296 409.141 14.032 409.141 13.768C409.141 12.28 410.341 11.056 411.829 11.056C413.317 11.056 414.517 12.28 414.517 13.768C414.517 15.256 413.317 16.456 411.829 16.456C411.517 16.456 411.205 16.408 410.917 16.312L410.869 16.576C410.341 19.096 409.189 22.96 407.293 25.432C405.085 28.24 402.229 30.472 397.837 31.84L396.205 30.04C400.861 28.888 403.549 26.848 405.565 24.28C407.269 22.096 408.373 18.76 408.709 16.456H396.421C395.485 16.456 394.645 16.504 394.045 16.528V14.416C394.693 14.488 395.653 14.56 396.445 14.56ZM437.389 16.504H424.261V27.904H437.389V16.504ZM439.357 16.432V28.264C439.357 29.032 439.381 30.88 439.405 31.144H437.341C437.341 30.976 437.365 30.424 437.365 29.776H424.261C424.285 30.4 424.285 30.976 424.309 31.144H422.245C422.269 30.856 422.317 29.08 422.317 28.24V16.432C422.317 15.88 422.317 15.136 422.269 14.56C423.205 14.584 423.853 14.608 424.405 14.608H437.293C437.821 14.608 438.685 14.608 439.405 14.56C439.357 15.16 439.357 15.832 439.357 16.432ZM456.901 15.832H463.405C464.053 15.832 464.581 15.76 464.965 15.616L466.549 16.576C466.357 16.912 466.117 17.464 465.997 17.848C465.349 20.272 463.885 23.512 461.749 26.128C459.565 28.792 456.685 30.976 452.197 32.656L450.445 31.072C454.861 29.776 457.861 27.616 460.045 25.048C461.917 22.864 463.381 19.744 463.861 17.56H455.773C454.309 19.6 452.317 21.736 449.677 23.464L448.021 22.24C452.149 19.768 454.501 16.264 455.557 14.128C455.797 13.696 456.157 12.832 456.301 12.208L458.509 12.952C458.125 13.576 457.693 14.392 457.453 14.824C457.285 15.16 457.093 15.496 456.901 15.832ZM463.693 12.352L464.965 11.8C465.565 12.664 466.429 14.104 466.933 15.088L465.637 15.664C465.157 14.704 464.341 13.24 463.693 12.352ZM466.333 11.392L467.605 10.84C468.229 11.728 469.165 13.216 469.597 14.104L468.325 14.68C467.797 13.648 467.005 12.28 466.333 11.392ZM494.149 18.592L495.517 19.456C495.397 19.672 495.253 19.984 495.205 20.152C494.557 22.528 493.477 25.024 491.701 26.968C489.181 29.728 486.157 31.144 483.109 31.984L481.621 30.28C485.029 29.584 488.029 28.024 490.069 25.888C491.533 24.352 492.493 22.312 492.925 20.584H480.181C479.605 20.584 478.693 20.608 477.853 20.656V18.64C478.717 18.736 479.533 18.784 480.181 18.784H492.829C493.381 18.784 493.885 18.736 494.149 18.592ZM479.989 15.112V13.12C480.613 13.216 481.381 13.24 482.149 13.24H491.581C492.349 13.24 493.189 13.216 493.765 13.12V15.112C493.189 15.064 492.373 15.04 491.557 15.04H482.149C481.405 15.04 480.637 15.064 479.989 15.112ZM523.95 30.904L521.958 31.816C521.646 30.952 521.166 29.848 520.638 28.672C516.918 29.152 508.902 30.04 505.686 30.328C505.086 30.376 504.39 30.496 503.694 30.592L503.334 28.36C504.054 28.384 504.87 28.36 505.566 28.336C505.926 28.312 506.334 28.288 506.766 28.264C508.11 24.952 510.558 17.272 511.23 14.92C511.518 13.816 511.614 13.24 511.71 12.616L514.086 13.096C513.846 13.696 513.582 14.32 513.27 15.328C512.55 17.584 510.198 24.952 508.998 28.072C512.526 27.736 517.134 27.208 519.75 26.872C518.79 24.976 517.734 23.104 516.846 21.952L518.646 21.136C520.35 23.608 522.966 28.432 523.95 30.904Z" fill="white"/>
<path d="M14.4315 120.846C15.1028 122.578 16.0747 123.955 17.3562 124.977C18.6333 125.998 20.1588 126.728 21.9241 127.171C23.6893 127.614 25.6071 127.833 27.6775 127.833C29.1376 127.833 30.6021 127.628 32.0623 127.22C33.5225 126.811 34.8475 126.198 36.0374 125.385C37.223 124.568 38.1993 123.517 38.9621 122.223C39.7248 120.934 40.104 119.367 40.104 117.533C40.104 115.699 39.6159 114.322 38.6439 113.198C37.6675 112.074 36.4079 111.106 34.8518 110.293C33.2958 109.481 31.5305 108.766 29.5517 108.153C27.5729 107.539 25.5766 106.897 23.5673 106.216C21.4969 105.54 19.4876 104.722 17.5392 103.769C15.5909 102.82 13.8387 101.594 12.2871 100.1C10.7354 98.6068 9.48444 96.7726 8.54297 94.5929C7.59714 92.4182 7.12641 89.7666 7.12641 86.6382C7.12641 82.5611 7.88917 79.0921 9.41035 76.2362C10.9315 73.3803 12.9103 71.0547 15.3468 69.2496C17.7833 67.4495 20.538 66.1261 23.6152 65.2747C26.6881 64.4233 29.8132 64 32.9776 64C36.3251 64 39.4764 64.4233 42.4316 65.2747C45.3867 66.1261 47.9714 67.503 50.1943 69.4053C52.4172 71.3077 54.1825 73.7403 55.4945 76.6935C56.8021 79.6516 57.4602 83.2374 57.4602 87.4507H43.8481C43.9091 85.4121 43.652 83.6947 43.0723 82.3032C42.4926 80.9117 41.6688 79.7733 40.6053 78.8878C39.5374 78.0072 38.2777 77.3747 36.8132 77.0001C35.3531 76.6254 33.797 76.4405 32.1538 76.4405C30.8157 76.4405 29.4602 76.5914 28.0872 76.8979C26.7186 77.2044 25.4851 77.7153 24.3867 78.4256C23.2927 79.1408 22.4079 80.0749 21.7366 81.228C21.0654 82.3859 20.7298 83.8115 20.7298 85.5094C20.7298 87.2074 21.3226 88.7546 22.5125 89.9466C23.7024 91.1386 25.132 92.1214 26.8058 92.9047C28.4795 93.688 30.2012 94.301 31.9664 94.7389C33.7317 95.1816 35.1657 95.5368 36.2597 95.8093C38.8182 96.5585 41.1632 97.4245 43.2946 98.4073C45.426 99.395 47.2697 100.67 48.8213 102.231C50.373 103.798 51.576 105.7 52.4303 107.943C53.2803 110.186 53.7074 112.94 53.7074 116.205C53.7074 120.554 52.9011 124.261 51.2883 127.317C49.6756 130.377 47.6009 132.858 45.0773 134.761C42.5492 136.663 39.703 138.04 36.5343 138.891C33.3655 139.743 30.2317 140.166 27.1239 140.166C17.9882 140.166 11.1843 138.093 6.70798 133.943C2.23599 129.803 0 123.279 0 114.37H13.6121C13.4901 116.954 13.7646 119.114 14.4359 120.846H14.4315ZM89.9758 138.536L91.436 131.195H91.2529C87.0512 136.974 81.5374 139.86 74.7205 139.86C65.5237 139.86 60.9253 135.169 60.9253 125.789C60.9253 125.244 60.9689 124.549 61.0605 123.697C61.152 122.846 61.274 121.98 61.4266 121.099C61.5791 120.218 61.7317 119.382 61.8842 118.603C62.0368 117.825 62.1719 117.192 62.294 116.715L68.1389 85.8208H81.1103L75.3569 116.715C75.2348 117.124 75.1302 117.615 75.0387 118.194C74.9472 118.773 74.8556 119.367 74.7641 119.98C74.6726 120.593 74.6115 121.187 74.581 121.766C74.5505 122.345 74.5374 122.802 74.5374 123.142C74.5374 124.709 75.1912 125.998 76.5032 127.015C77.8108 128.037 79.2274 128.543 80.7529 128.543C82.7012 128.543 84.4229 128.12 85.9135 127.268C87.4042 126.417 88.6857 125.317 89.7492 123.955C90.8127 122.598 91.6975 121.031 92.3992 119.265C93.101 117.499 93.6327 115.694 93.9989 113.859L99.299 85.816H112.27L102.402 138.536H89.9802H89.9758ZM135.284 85.816L134.007 92.3403L134.19 92.5447C135.65 89.6887 137.646 87.6161 140.174 86.3268C142.703 85.0375 145.427 84.3904 148.351 84.3904C154.074 84.3904 158.49 86.2587 161.597 90.0001C164.705 93.7415 166.257 98.8063 166.257 105.194C166.257 109.544 165.738 113.796 164.705 117.941C163.668 122.087 162.085 125.794 159.954 129.054C157.823 132.318 155.16 134.936 151.96 136.906C148.761 138.877 144.973 139.864 140.589 139.864C139.246 139.864 137.895 139.694 136.522 139.354C135.153 139.013 133.872 138.502 132.686 137.826C131.501 137.145 130.433 136.279 129.487 135.228C128.541 134.177 127.826 132.931 127.338 131.506H127.064L122.13 157H109.25L122.77 85.8257H135.284V85.816ZM137.751 97.4926C135.986 98.9571 134.508 100.806 133.323 103.049C132.137 105.292 131.252 107.724 130.673 110.342C130.093 112.959 129.805 115.387 129.805 117.63C129.805 121.099 130.568 123.867 132.089 125.94C133.61 128.013 135.955 129.049 139.124 129.049C141.622 129.049 143.753 128.334 145.518 126.908C147.283 125.483 148.744 123.683 149.903 121.503C151.058 119.328 151.912 116.949 152.462 114.365C153.011 111.782 153.285 109.335 153.285 107.024C153.285 105.462 153.085 103.963 152.693 102.538C152.296 101.112 151.716 99.8718 150.958 98.816C150.195 97.7651 149.236 96.9137 148.081 96.2666C146.922 95.6195 145.584 95.2984 144.062 95.2984C141.626 95.2984 139.525 96.0282 137.76 97.4926H137.751ZM191.101 85.816L189.824 92.3403L190.007 92.5447C191.467 89.6887 193.463 87.6161 195.991 86.3268C198.52 85.0375 201.244 84.3904 204.168 84.3904C209.891 84.3904 214.307 86.2587 217.414 90.0001C220.522 93.7415 222.074 98.8063 222.074 105.194C222.074 109.544 221.555 113.796 220.522 117.941C219.485 122.087 217.902 125.794 215.771 129.054C213.64 132.318 210.977 134.936 207.777 136.906C204.578 138.877 200.79 139.864 196.406 139.864C195.063 139.864 193.712 139.694 192.339 139.354C190.97 139.013 189.689 138.502 188.503 137.826C187.318 137.145 186.25 136.279 185.304 135.228C184.358 134.177 183.643 132.931 183.155 131.506H182.881L177.947 157H165.067L178.587 85.8257H191.101V85.816ZM193.568 97.4926C191.803 98.9571 190.325 100.806 189.14 103.049C187.954 105.292 187.069 107.724 186.49 110.342C185.91 112.959 185.622 115.387 185.622 117.63C185.622 121.099 186.385 123.867 187.906 125.94C189.427 128.013 191.772 129.049 194.941 129.049C197.439 129.049 199.57 128.334 201.335 126.908C203.1 125.483 204.561 123.683 205.72 121.503C206.875 119.328 207.729 116.949 208.279 114.365C208.828 111.782 209.102 109.335 209.102 107.024C209.102 105.462 208.902 103.963 208.51 102.538C208.113 101.112 207.533 99.8718 206.775 98.816C206.012 97.7651 205.053 96.9137 203.898 96.2666C202.739 95.6195 201.401 95.2984 199.879 95.2984C197.443 95.2984 195.342 96.0282 193.577 97.4926H193.568ZM228.965 104.528C230.211 100.553 232.007 97.0694 234.356 94.0772C236.701 91.0851 239.548 88.7254 242.899 86.9885C246.247 85.2564 250.026 84.3904 254.228 84.3904C257.453 84.3904 260.426 84.8478 263.132 85.7673C265.843 86.6868 268.171 88.0637 270.119 89.8979C272.068 91.7321 273.576 94.0432 274.639 96.831C275.703 99.6188 276.239 102.917 276.239 106.722C276.239 111.344 275.615 115.679 274.365 119.722C273.114 123.765 271.305 127.288 268.929 130.275C266.554 133.267 263.677 135.612 260.295 137.31C256.917 139.008 253.064 139.86 248.74 139.86C242.163 139.86 236.911 137.972 232.983 134.201C229.056 130.431 227.091 124.767 227.091 117.221C227.091 112.736 227.714 108.503 228.965 104.528ZM240.659 121.707C241.056 123.133 241.648 124.393 242.442 125.478C243.231 126.568 244.207 127.434 245.366 128.076C246.521 128.723 247.864 129.044 249.385 129.044C251.822 129.044 253.905 128.314 255.644 126.85C257.379 125.39 258.808 123.551 259.937 121.342C261.062 119.133 261.903 116.74 262.448 114.151C262.997 111.568 263.272 109.155 263.272 106.912C263.272 103.38 262.557 100.558 261.123 98.4462C259.693 96.3396 257.239 95.2838 253.77 95.2838C251.394 95.2838 249.341 96.0136 247.602 97.4781C245.868 98.9425 244.451 100.757 243.353 102.932C242.259 105.107 241.435 107.471 240.886 110.021C240.336 112.57 240.062 114.964 240.062 117.212C240.062 118.778 240.258 120.272 240.655 121.697L240.659 121.707ZM301.454 85.816L299.536 95.2984L299.719 95.5027C301.179 91.8343 303.389 89.0611 306.34 87.1928C309.295 85.3246 312.507 84.3904 315.977 84.3904C317.315 84.3904 318.657 84.4926 319.995 84.6969L317.345 98.7674C316.43 98.563 315.519 98.3587 314.604 98.1543C313.688 97.95 312.777 97.8478 311.862 97.8478C309.365 97.8478 307.251 98.3246 305.512 99.2733C303.777 100.227 302.312 101.516 301.127 103.146C299.941 104.776 298.995 106.63 298.294 108.702C297.592 110.775 297.03 112.935 296.602 115.178L292.218 138.526H279.338L289.114 85.8062H301.445L301.454 85.816ZM356.081 85.816L354.071 95.5027H344.844L340.002 121.707C339.88 122.252 339.788 122.744 339.727 123.186C339.666 123.629 339.635 123.95 339.635 124.154C339.635 125.108 339.771 125.838 340.045 126.349C340.32 126.86 340.668 127.249 341.096 127.521C341.523 127.794 341.994 127.944 342.512 127.979C343.031 128.013 343.532 128.027 344.02 128.027C345.602 128.027 347.154 127.925 348.68 127.721L346.487 138.838C345.145 138.974 343.807 139.091 342.469 139.193C341.126 139.295 339.758 139.344 338.358 139.344C336.837 139.344 335.329 139.193 333.838 138.887C332.343 138.58 331.005 138.035 329.82 137.257C328.634 136.473 327.688 135.403 326.987 134.046C326.285 132.688 325.967 130.917 326.028 128.742C326.028 128.061 326.089 127.297 326.211 126.446C326.333 125.595 326.485 124.694 326.668 123.746L331.969 95.5027H323.474L325.483 85.816H333.795L336.72 69.8092H349.691L346.766 85.816H356.085H356.081ZM397.096 65.732C400.382 65.732 403.337 65.9704 405.957 66.4472C408.576 66.924 410.799 67.7901 412.626 69.0453C414.452 70.3054 415.851 72.0375 416.827 74.2463C417.799 76.4551 418.287 79.2916 418.287 82.7606C418.287 84.7991 418.013 86.789 417.464 88.7254C416.915 90.6618 416.108 92.3987 415.045 93.9264C413.977 95.4541 412.7 96.7288 411.209 97.7505C409.714 98.7722 407.997 99.4193 406.048 99.6869V99.8912C409.156 100.845 411.545 102.66 413.218 105.345C414.892 108.031 415.729 111.14 415.729 114.677C415.729 118.623 415.045 122.087 413.672 125.079C412.303 128.071 410.459 130.552 408.145 132.523C405.83 134.493 403.18 135.992 400.199 137.009C397.213 138.03 394.08 138.536 390.789 138.536H356.076L369.693 65.732H397.096ZM390.152 126.096C393.439 126.096 396.137 125.113 398.238 123.138C400.339 121.167 401.389 118.243 401.389 114.37C401.389 112.468 401.036 110.974 400.339 109.885C399.637 108.8 398.739 107.963 397.645 107.389C396.551 106.81 395.33 106.455 393.992 106.318C392.65 106.182 391.342 106.114 390.065 106.114H375.995L372.16 126.101H390.157L390.152 126.096ZM394.263 95.2011C396.882 95.2011 399.149 94.4032 401.066 92.8025C402.984 91.2067 403.943 88.8081 403.943 85.6116C403.943 82.7557 403.259 80.8047 401.886 79.7489C400.517 78.698 398.674 78.1677 396.359 78.1677H381.195L377.996 95.1962H394.258L394.263 95.2011ZM443.406 85.8208L441.489 95.3033L441.672 95.5076C443.132 91.8392 445.342 89.066 448.293 87.1977C451.248 85.3294 454.46 84.3953 457.93 84.3953C459.268 84.3953 460.61 84.4975 461.948 84.7018L459.298 98.7722C458.383 98.5679 457.472 98.3635 456.557 98.1592C455.641 97.9549 454.73 97.8527 453.815 97.8527C451.317 97.8527 449.203 98.3295 447.464 99.2782C445.73 100.232 444.265 101.521 443.08 103.151C441.894 104.781 440.948 106.635 440.246 108.707C439.545 110.78 438.982 112.94 438.555 115.183L434.17 138.531H421.291L431.067 85.8111H443.398L443.406 85.8208ZM467.889 93.5177C469.288 91.3089 470.997 89.5233 473.006 88.1659C475.015 86.8085 477.269 85.8403 479.766 85.2613C482.264 84.6823 484.849 84.3953 487.529 84.3953C489.661 84.3953 491.883 84.5656 494.198 84.9061C496.512 85.2467 498.644 85.9084 500.592 86.8961C502.54 87.8837 504.14 89.2752 505.387 91.0753C506.633 92.8755 507.226 95.2741 507.169 98.2662C507.169 100.782 506.834 103.74 506.162 107.136L501.961 128.343C501.717 129.297 501.551 130.47 501.459 131.861C501.368 133.257 501.324 134.459 501.324 135.481C501.324 136.366 501.477 137.383 501.782 138.541H488.811V133.34C487.045 135.583 484.883 137.232 482.325 138.283C479.766 139.334 477.116 139.864 474.379 139.864C471.821 139.864 469.585 139.49 467.667 138.741C465.749 137.991 464.149 136.989 462.872 135.734C461.595 134.479 460.649 133.014 460.039 131.35C459.429 129.686 459.124 127.935 459.124 126.101C459.124 121.002 460.693 116.925 463.827 113.864C466.961 110.804 471.393 108.902 477.116 108.153C480.159 107.744 482.809 107.437 485.062 107.233C487.316 107.029 489.185 106.708 490.68 106.265C492.171 105.822 493.283 105.18 494.015 104.328C494.747 103.477 495.109 102.202 495.109 100.504C495.109 99.1468 494.834 98.057 494.285 97.2397C493.736 96.4223 493.052 95.7801 492.228 95.3033C491.404 94.8265 490.524 94.5054 489.578 94.3351C488.632 94.1648 487.734 94.0821 486.884 94.0821C484.57 94.0821 482.499 94.7097 480.673 95.9698C478.847 97.2299 477.718 99.1809 477.295 101.832H465.147C465.575 98.5046 466.486 95.7314 467.889 93.5226V93.5177ZM487.255 115.236C485.367 115.475 483.48 115.66 481.593 115.796C480.372 115.932 479.187 116.151 478.032 116.458C476.872 116.764 475.852 117.221 474.972 117.834C474.087 118.447 473.372 119.279 472.823 120.33C472.274 121.386 471.999 122.729 471.999 124.359C471.999 126.329 472.714 127.808 474.148 128.796C475.578 129.784 477.238 130.275 479.126 130.275C481.135 130.275 482.826 129.92 484.195 129.205C485.563 128.489 486.723 127.575 487.664 126.451C488.606 125.327 489.355 124.052 489.9 122.627C490.449 121.201 490.907 119.771 491.269 118.345L492.546 113.246C490.903 114.336 489.133 114.998 487.246 115.236H487.255ZM534.115 85.816L524.068 138.536H511.096L521.052 85.816H534.115ZM522.512 77.6569L524.887 65.7272H537.95L535.575 77.6569H522.512ZM556.95 85.816L555.489 93.1577H555.672C559.874 87.3096 565.384 84.3904 572.205 84.3904C581.402 84.3904 586 89.1146 586 98.563C586 99.1079 585.939 99.8037 585.817 100.655C585.695 101.507 585.555 102.373 585.407 103.253C585.255 104.139 585.102 104.971 584.95 105.749C584.797 106.532 584.688 107.16 584.631 107.637L578.786 138.531H565.815L571.568 107.637C571.691 106.819 571.856 105.734 572.07 104.372C572.283 103.015 572.388 101.959 572.388 101.21C572.388 99.648 571.734 98.3538 570.422 97.337C569.11 96.3153 567.698 95.8093 566.172 95.8093C564.224 95.8093 562.502 96.2325 561.012 97.084C559.517 97.9354 558.24 99.0398 557.176 100.397C556.108 101.76 555.228 103.321 554.526 105.087C553.824 106.858 553.293 108.658 552.926 110.493L547.626 138.536H534.747L544.523 85.816H556.945H556.95Z" fill="white"/>
</svg>
