<svg width="586" height="147" viewBox="0 0 586 147" fill="none" xmlns="http://www.w3.org/2000/svg">
<g clip-path="url(#clip0_401_2337)">
<path d="M13.8529 114.344C14.4926 115.917 15.4247 117.145 16.6675 118.066C17.892 118.987 19.3541 119.639 21.0539 120.042C22.7536 120.445 24.5995 120.637 26.5734 120.637C27.9807 120.637 29.3879 120.445 30.777 120.081C32.166 119.716 33.4453 119.16 34.5968 118.43C35.7299 117.701 36.6803 116.742 37.4113 115.572C38.1424 114.401 38.5079 113.001 38.5079 111.331C38.5079 109.662 38.0327 108.434 37.1006 107.417C36.1685 106.4 34.944 105.537 33.4636 104.789C31.9649 104.06 30.2835 103.407 28.3827 102.851C26.482 102.294 24.5629 101.719 22.6439 101.105C20.6518 100.491 18.7327 99.7616 16.8503 98.8982C14.986 98.0348 13.3046 96.9412 11.8059 95.5789C10.3073 94.2358 9.11928 92.5666 8.20546 90.6095C7.29163 88.6525 6.853 86.2541 6.853 83.4336C6.853 79.7498 7.58406 76.6223 9.04618 74.0321C10.5083 71.4611 12.4091 69.3505 14.7485 67.7196C17.0878 66.0887 19.7379 64.8992 22.6805 64.1317C25.6413 63.3642 28.6386 62.9805 31.6725 62.9805C34.8892 62.9805 37.9231 63.3642 40.7559 64.1317C43.5888 64.8992 46.0744 66.1463 48.2128 67.8539C50.3511 69.5807 52.0508 71.768 53.2936 74.435C54.5547 77.102 55.1761 80.3446 55.1761 84.1436H42.1084C42.1632 82.3016 41.9256 80.7475 41.3591 79.5003C40.8108 78.234 40.0066 77.2171 38.9831 76.4113C37.9596 75.6054 36.7534 75.049 35.3461 74.7036C33.9388 74.3583 32.4584 74.2048 30.8683 74.2048C29.589 74.2048 28.2731 74.3391 26.9572 74.6269C25.6413 74.9147 24.4533 75.356 23.4115 76.0083C22.3515 76.6607 21.5108 77.5049 20.8711 78.541C20.2314 79.5771 19.9024 80.8818 19.9024 82.4167C19.9024 83.9517 20.469 85.3523 21.6204 86.4268C22.7536 87.5013 24.1426 88.3839 25.7509 89.0938C27.3593 89.8037 29.0041 90.3601 30.7039 90.7438C32.4036 91.1468 33.7743 91.4729 34.8343 91.7032C37.2834 92.3747 39.5497 93.1614 41.5967 94.044C43.6436 94.9266 45.4165 96.0778 46.8969 97.4976C48.3955 98.9174 49.5469 100.625 50.3694 102.659C51.1918 104.693 51.5939 107.168 51.5939 110.123C51.5939 114.056 50.8263 117.394 49.2728 120.157C47.7193 122.92 45.7272 125.165 43.3147 126.873C40.8839 128.599 38.1607 129.827 35.1085 130.595C32.0746 131.362 29.059 131.746 26.0799 131.746C17.3072 131.746 10.7642 129.866 6.46919 126.124C2.17421 122.383 0.0175781 116.493 0.0175781 108.434H13.0853C12.9756 110.775 13.2315 112.713 13.8712 114.286L13.8529 114.344ZM86.4107 130.326L87.818 123.688H87.6352C83.5961 128.906 78.3142 131.516 71.7529 131.516C62.9254 131.516 58.5024 127.276 58.5024 118.814C58.5024 118.315 58.539 117.701 58.6304 116.934C58.7218 116.166 58.8314 115.38 58.9776 114.593C59.1238 113.787 59.2701 113.039 59.4163 112.329C59.5625 111.619 59.6904 111.063 59.8184 110.621L65.4292 82.7237H77.8938L72.3743 110.621C72.2647 110.986 72.155 111.427 72.0636 111.964C71.9722 112.483 71.8809 113.02 71.8078 113.576C71.7164 114.133 71.6615 114.67 71.625 115.188C71.5884 115.706 71.5884 116.128 71.5884 116.435C71.5884 117.855 72.2098 119.006 73.4709 119.927C74.732 120.848 76.0845 121.308 77.5466 121.308C79.4108 121.308 81.0739 120.925 82.4995 120.157C83.9251 119.39 85.1679 118.392 86.1914 117.164C87.2149 115.936 88.0556 114.516 88.7318 112.924C89.408 111.331 89.9198 109.7 90.267 108.05L95.3479 82.7237H107.812L98.3453 130.345H86.4107V130.326ZM129.927 82.7045L128.703 88.5949L128.885 88.7868C130.293 86.2157 132.212 84.3354 134.624 83.165C137.055 81.9946 139.668 81.419 142.483 81.419C147.984 81.419 152.224 83.1075 155.204 86.4844C158.183 89.8612 159.681 94.4277 159.681 100.203C159.681 104.136 159.188 107.974 158.183 111.715C157.196 115.456 155.66 118.814 153.613 121.75C151.566 124.705 149.008 127.065 145.937 128.849C142.867 130.633 139.23 131.516 135.008 131.516C133.729 131.516 132.413 131.362 131.097 131.055C129.781 130.748 128.556 130.288 127.405 129.674C126.272 129.06 125.248 128.273 124.334 127.333C123.421 126.374 122.744 125.261 122.269 123.975H122.013L117.28 147H104.907L117.883 82.7237H129.909L129.927 82.7045ZM132.303 93.2573C130.603 94.5812 129.196 96.2505 128.045 98.2843C126.911 100.318 126.052 102.505 125.504 104.865C124.956 107.225 124.663 109.432 124.663 111.446C124.663 114.574 125.395 117.087 126.857 118.948C128.319 120.829 130.567 121.75 133.619 121.75C136.013 121.75 138.06 121.097 139.76 119.812C141.46 118.526 142.867 116.896 143.963 114.938C145.078 112.981 145.901 110.832 146.412 108.492C146.943 106.151 147.198 103.944 147.198 101.853C147.198 100.433 147.016 99.0901 146.632 97.8046C146.248 96.5191 145.7 95.387 144.969 94.4469C144.238 93.4876 143.324 92.7201 142.209 92.1445C141.094 91.5689 139.815 91.2619 138.353 91.2619C136.013 91.2619 134.003 91.9142 132.303 93.2381V93.2573ZM183.532 82.7045L182.308 88.5949L182.49 88.7868C183.898 86.2157 185.817 84.3354 188.229 83.165C190.66 81.9946 193.273 81.419 196.088 81.419C201.589 81.419 205.829 83.1075 208.809 86.4844C211.788 89.8612 213.286 94.4277 213.286 100.203C213.286 104.136 212.793 107.974 211.788 111.715C210.801 115.456 209.265 118.814 207.218 121.75C205.172 124.705 202.613 127.065 199.542 128.849C196.472 130.633 192.835 131.516 188.613 131.516C187.334 131.516 186.018 131.362 184.702 131.055C183.386 130.748 182.161 130.288 181.01 129.674C179.877 129.06 178.853 128.273 177.939 127.333C177.026 126.374 176.349 125.261 175.874 123.975H175.618L170.885 147H158.512L171.488 82.7237H183.514L183.532 82.7045ZM185.908 93.2573C184.208 94.5812 182.801 96.2505 181.65 98.2843C180.516 100.318 179.657 102.505 179.109 104.865C178.561 107.225 178.268 109.432 178.268 111.446C178.268 114.574 179 117.087 180.462 118.948C181.924 120.829 184.172 121.75 187.224 121.75C189.618 121.75 191.665 121.097 193.365 119.812C195.065 118.526 196.472 116.896 197.568 114.938C198.683 112.981 199.506 110.832 200.018 108.492C200.548 106.151 200.803 103.944 200.803 101.853C200.803 100.433 200.621 99.0901 200.237 97.8046C199.853 96.5191 199.305 95.387 198.574 94.4469C197.843 93.4876 196.929 92.7201 195.814 92.1445C194.699 91.5689 193.42 91.2619 191.958 91.2619C189.618 91.2619 187.608 91.9142 185.908 93.2381V93.2573ZM219.902 99.6082C221.109 96.0202 222.827 92.8736 225.075 90.1682C227.323 87.4629 230.064 85.3331 233.281 83.7598C236.497 82.1865 240.116 81.419 244.155 81.419C247.262 81.419 250.113 81.8411 252.709 82.6662C255.304 83.4912 257.552 84.7384 259.416 86.3884C261.28 88.0385 262.743 90.1299 263.766 92.6433C264.79 95.1568 265.301 98.1308 265.301 101.584C265.301 105.767 264.698 109.681 263.51 113.327C262.304 116.972 260.568 120.157 258.283 122.863C255.999 125.568 253.239 127.679 249.986 129.213C246.732 130.748 243.04 131.516 238.892 131.516C232.568 131.516 227.524 129.808 223.759 126.412C219.994 123.016 218.093 117.893 218.093 111.082C218.093 107.033 218.696 103.215 219.884 99.6082H219.902ZM231.124 115.13C231.508 116.416 232.075 117.548 232.842 118.546C233.61 119.524 234.542 120.311 235.657 120.886C236.772 121.462 238.051 121.769 239.513 121.769C241.853 121.769 243.863 121.117 245.526 119.793C247.189 118.469 248.56 116.819 249.657 114.823C250.735 112.828 251.539 110.66 252.069 108.338C252.599 105.997 252.855 103.829 252.855 101.795C252.855 98.6104 252.16 96.0586 250.79 94.1591C249.419 92.2596 247.061 91.3003 243.735 91.3003C241.45 91.3003 239.477 91.9526 237.813 93.2765C236.15 94.6004 234.779 96.2313 233.738 98.2075C232.678 100.165 231.892 102.314 231.362 104.616C230.832 106.918 230.576 109.086 230.576 111.101C230.576 112.521 230.759 113.864 231.142 115.15L231.124 115.13ZM289.499 82.7045L287.653 91.2619L287.836 91.4537C289.244 88.1344 291.364 85.6401 294.196 83.9517C297.029 82.2632 300.118 81.419 303.444 81.419C304.724 81.419 306.021 81.515 307.301 81.6876L304.76 94.3893C303.883 94.1975 303.006 94.0248 302.128 93.8329C301.251 93.641 300.374 93.5643 299.497 93.5643C297.102 93.5643 295.074 93.9864 293.392 94.8498C291.729 95.7132 290.322 96.8836 289.189 98.3418C288.056 99.8192 287.142 101.488 286.465 103.369C285.789 105.249 285.259 107.187 284.839 109.221L280.635 130.307H268.262L277.656 82.6854H289.499V82.7045ZM341.953 82.7045L340.016 91.4537H331.152L326.509 115.13C326.4 115.629 326.308 116.07 326.253 116.473C326.199 116.876 326.162 117.164 326.162 117.356C326.162 118.219 326.29 118.872 326.564 119.332C326.82 119.793 327.167 120.138 327.569 120.388C327.971 120.637 328.428 120.771 328.922 120.81C329.415 120.848 329.909 120.848 330.366 120.848C331.883 120.848 333.381 120.752 334.843 120.579L332.742 130.614C331.462 130.729 330.165 130.844 328.885 130.94C327.606 131.036 326.29 131.075 324.938 131.075C323.475 131.075 322.032 130.94 320.588 130.652C319.144 130.365 317.865 129.885 316.731 129.175C315.598 128.465 314.684 127.506 314.008 126.278C313.332 125.05 313.021 123.457 313.094 121.481C313.094 120.867 313.149 120.176 313.277 119.409C313.387 118.642 313.533 117.836 313.716 116.972L318.797 91.4537H310.645L312.583 82.7045H320.569L323.384 68.2377H335.849L333.034 82.7045H341.99H341.953ZM404.587 64.573C407.748 64.573 410.581 64.784 413.103 65.2253C415.626 65.6474 417.746 66.4341 419.5 67.5661C421.255 68.6981 422.607 70.2715 423.539 72.2669C424.471 74.2623 424.947 76.8334 424.947 79.9608C424.947 81.8028 424.691 83.6063 424.161 85.3523C423.631 87.0983 422.863 88.6717 421.84 90.0531C420.816 91.4346 419.592 92.5858 418.148 93.5067C416.722 94.4277 415.059 95.0033 413.195 95.2527V95.4446C416.174 96.308 418.477 97.9389 420.085 100.376C421.693 102.793 422.498 105.614 422.498 108.799C422.498 112.367 421.84 115.495 420.524 118.2C419.208 120.906 417.435 123.15 415.224 124.916C412.994 126.7 410.453 128.043 407.584 128.964C404.715 129.885 401.699 130.345 398.555 130.345H365.219L378.268 64.573H404.587ZM397.916 119.102C401.078 119.102 403.655 118.219 405.683 116.435C407.694 114.651 408.717 112.022 408.717 108.511C408.717 106.784 408.388 105.441 407.712 104.462C407.036 103.484 406.177 102.736 405.117 102.198C404.057 101.68 402.887 101.354 401.608 101.239C400.328 101.124 399.067 101.047 397.843 101.047H384.336L380.644 119.102H397.934H397.916ZM401.863 91.2043C404.386 91.2043 406.561 90.4752 408.406 89.0362C410.252 87.5972 411.166 85.4291 411.166 82.5511C411.166 79.98 410.508 78.2148 409.192 77.2555C407.876 76.2961 406.104 75.8357 403.892 75.8357H389.326L386.255 91.2235H401.863V91.2043ZM449.053 82.7237L447.207 91.2811L447.39 91.4729C448.798 88.1536 450.918 85.6593 453.75 83.9709C456.583 82.2824 459.672 81.4382 462.998 81.4382C464.278 81.4382 465.575 81.5341 466.855 81.7068L464.314 94.4085C463.437 94.2167 462.56 94.044 461.682 93.8521C460.805 93.6602 459.928 93.5835 459.051 93.5835C456.656 93.5835 454.628 94.0056 452.946 94.869C451.283 95.7324 449.876 96.9028 448.743 98.361C447.61 99.8384 446.696 101.508 446.019 103.388C445.343 105.268 444.813 107.206 444.393 109.24L440.189 130.326H427.816L437.21 82.7045H449.053V82.7237ZM472.557 89.6694C473.909 87.6739 475.536 86.0622 477.473 84.8343C479.411 83.6063 481.567 82.7237 483.962 82.2057C486.356 81.6876 488.841 81.419 491.418 81.419C493.465 81.419 495.604 81.5725 497.815 81.8795C500.045 82.1865 502.092 82.7813 503.956 83.6831C505.82 84.5657 507.355 85.832 508.562 87.4629C509.768 89.0938 510.335 91.2619 510.28 93.948C510.28 96.2121 509.951 98.8982 509.311 101.968L505.272 121.117C505.034 121.98 504.87 123.035 504.797 124.302C504.705 125.568 504.669 126.642 504.669 127.563C504.669 128.369 504.815 129.29 505.107 130.326H492.643V125.626C490.943 127.659 488.878 129.137 486.411 130.096C483.962 131.055 481.403 131.516 478.771 131.516C476.322 131.516 474.165 131.171 472.319 130.499C470.473 129.827 468.938 128.926 467.714 127.774C466.489 126.642 465.575 125.319 464.991 123.822C464.406 122.325 464.113 120.733 464.113 119.083C464.113 114.478 465.612 110.794 468.628 108.031C471.643 105.268 475.902 103.541 481.385 102.87C484.309 102.505 486.849 102.218 489.024 102.045C491.181 101.853 492.99 101.565 494.416 101.162C495.841 100.759 496.92 100.184 497.614 99.4163C498.309 98.6488 498.674 97.4976 498.674 95.9627C498.674 94.7347 498.418 93.7562 497.888 93.0079C497.358 92.2788 496.7 91.684 495.914 91.2619C495.128 90.8398 494.27 90.5328 493.374 90.3793C492.46 90.2258 491.601 90.149 490.779 90.149C488.549 90.149 486.575 90.7246 484.821 91.8567C483.066 92.9887 481.988 94.7539 481.567 97.1522H469.907C470.309 94.1399 471.186 91.6456 472.539 89.6502L472.557 89.6694ZM491.162 109.278C489.353 109.489 487.544 109.662 485.716 109.777C484.546 109.892 483.413 110.103 482.298 110.372C481.184 110.641 480.215 111.063 479.356 111.619C478.515 112.176 477.821 112.924 477.291 113.883C476.761 114.843 476.505 116.051 476.505 117.529C476.505 119.313 477.199 120.637 478.57 121.539C479.941 122.421 481.531 122.882 483.358 122.882C485.296 122.882 486.904 122.556 488.22 121.922C489.536 121.27 490.651 120.445 491.546 119.428C492.46 118.411 493.173 117.26 493.703 115.975C494.233 114.689 494.672 113.403 495.019 112.099L496.243 107.494C494.672 108.472 492.972 109.067 491.162 109.298V109.278ZM536.159 82.7045L526.509 130.326H514.045L523.603 82.7045H536.141H536.159ZM525.011 75.3368L527.295 64.5538H539.833L537.548 75.3368H525.011ZM558.091 82.7045L556.684 89.3432H556.867C560.906 84.0668 566.188 81.419 572.749 81.419C581.576 81.419 585.999 85.6785 585.999 94.2167C585.999 94.7155 585.945 95.3295 585.817 96.097C585.707 96.8644 585.561 97.6511 585.414 98.4378C585.268 99.2436 585.122 99.9919 584.976 100.702C584.83 101.412 584.72 101.968 584.665 102.409L579.054 130.307H566.59L572.109 102.409C572.219 101.68 572.383 100.683 572.584 99.4547C572.785 98.2267 572.895 97.2674 572.895 96.5958C572.895 95.176 572.274 94.0248 571.013 93.1038C569.751 92.1828 568.399 91.7224 566.937 91.7224C565.073 91.7224 563.41 92.1061 561.984 92.8736C560.558 93.641 559.316 94.6388 558.292 95.8667C557.269 97.0947 556.428 98.5145 555.752 100.107C555.075 101.7 554.564 103.33 554.216 104.98L549.136 130.307H536.762L546.156 82.6854H558.091V82.7045Z" fill="white"/>
</g>
<path d="M5.02586 23.848H10.3539L9.51386 21.16C8.86586 19.168 8.31386 17.248 7.73786 15.208H7.64186C7.08986 17.272 6.51386 19.168 5.88986 21.16L5.02586 23.848ZM12.5859 31L10.9059 25.624H4.47386L2.76986 31H0.513864L6.48986 13.408H8.96186L14.9379 31H12.5859ZM21.26 31V13.408H23.492V31H21.26ZM34.0272 12.832L36.1872 13C36.0432 13.408 35.8272 14.176 35.7312 14.608C35.2752 16.792 34.5792 21.04 34.5792 23.704C34.5792 24.856 34.6272 25.816 34.7712 26.968C35.1792 25.888 35.7072 24.496 36.0912 23.56L37.1232 24.328C36.5232 26.008 35.6592 28.528 35.4432 29.656C35.3712 29.992 35.3232 30.448 35.3232 30.712L35.3952 31.552L33.6672 31.672C33.1872 29.992 32.8032 27.256 32.8032 24.04C32.8032 20.536 33.5712 16.456 33.8592 14.512C33.9312 13.96 34.0272 13.336 34.0272 12.832ZM39.8832 24.352L41.6112 24.52C41.3952 25.384 41.2992 26.056 41.2992 26.704C41.2992 27.784 42.0192 28.84 45.2832 28.84C47.4192 28.84 49.2432 28.648 51.1632 28.216L51.1872 30.232C49.7232 30.52 47.7312 30.712 45.2592 30.712C41.2752 30.712 39.4992 29.392 39.4992 27.16C39.4992 26.296 39.6672 25.36 39.8832 24.352ZM40.6992 16.792L40.6752 14.824C43.2672 15.256 48.0672 15.16 50.4432 14.824V16.792C47.8992 17.056 43.2912 17.056 40.6992 16.792ZM68.7792 27.736C68.7792 27.352 68.7552 26.848 68.7552 26.248C67.9872 26.08 67.2192 26.008 66.4272 26.008C63.9792 26.008 62.5872 26.848 62.5872 28.144C62.5872 29.464 63.9072 30.184 66.1872 30.184C67.9392 30.184 68.7792 29.368 68.7792 27.736ZM70.3872 18.76V18.928C70.3872 20.488 70.5072 22.792 70.6272 24.856C73.6752 25.696 76.2912 27.352 78.0192 28.912L76.8672 30.688C75.3552 29.152 73.1712 27.64 70.6992 26.776C70.7232 27.4 70.7472 27.928 70.7472 28.36C70.7472 30.304 69.5472 31.984 66.3792 31.984C63.1152 31.984 60.6912 30.928 60.6912 28.216C60.6912 26.08 62.5632 24.304 66.6672 24.304C67.3392 24.304 68.0112 24.352 68.6832 24.448C68.5872 22.528 68.4912 20.344 68.4912 18.928C68.4912 17.56 68.4912 15.592 68.4672 14.584C68.4432 13.72 68.3712 12.688 68.2752 12.232H70.5792C70.4832 12.736 70.4112 13.864 70.3872 14.584C70.3632 15.232 70.3872 16.072 70.3872 17.008C72.2832 16.96 75.2832 16.84 77.4192 16.552L77.4912 18.376C75.3792 18.568 72.3312 18.712 70.3872 18.76ZM96.6607 30.208C97.3327 30.208 97.9807 30.16 98.5567 30.064C98.3407 28.192 97.2127 26.896 95.4127 26.896C94.3327 26.896 93.5167 27.544 93.5167 28.36C93.5167 29.536 94.8847 30.208 96.6607 30.208ZM101.557 12.952L102.661 14.344C102.229 14.632 101.701 14.992 101.341 15.256C100.165 16.144 96.9727 18.952 95.1487 20.488C96.2287 20.128 97.3087 19.984 98.3647 19.984C102.325 19.984 105.181 22.384 105.181 25.6C105.181 29.44 101.989 31.936 96.9727 31.936C93.7327 31.936 91.7407 30.496 91.7407 28.528C91.7407 26.896 93.2047 25.408 95.4127 25.408C98.3887 25.408 99.9967 27.4 100.309 29.608C102.181 28.888 103.261 27.52 103.261 25.576C103.261 23.248 100.909 21.544 97.9087 21.544C93.9967 21.544 91.8367 23.2 88.8127 26.272L87.4207 24.856C89.3887 23.224 92.4367 20.68 93.8287 19.528C95.1487 18.424 98.1007 15.928 99.2767 14.872C98.0287 14.92 93.3487 15.136 92.1247 15.208C91.5727 15.232 91.0207 15.256 90.5167 15.352L90.4687 13.36C90.9967 13.432 91.6687 13.432 92.1487 13.432C93.3727 13.432 99.0127 13.264 100.261 13.144C100.957 13.072 101.293 13.024 101.557 12.952ZM130.933 18.16L130.045 19.552C129.421 19.096 128.533 18.544 127.573 18.016C126.685 19.768 125.341 21.304 123.205 22.36C122.989 22 122.509 21.4 122.149 21.112C124.141 20.2 125.341 18.832 126.133 17.296C125.077 16.792 123.997 16.336 123.013 16L123.901 14.752C124.789 15.04 125.749 15.448 126.709 15.856C126.949 15.088 127.141 14.272 127.261 13.48H123.229V11.944H134.677C134.677 11.944 134.677 12.472 134.653 12.688C134.437 18.328 134.197 20.416 133.597 21.112C133.237 21.592 132.829 21.76 132.181 21.808C131.605 21.856 130.501 21.856 129.373 21.784C129.349 21.28 129.181 20.632 128.917 20.176C129.997 20.272 131.005 20.272 131.389 20.272C131.797 20.296 132.013 20.248 132.157 20.032C132.565 19.6 132.781 17.92 132.973 13.48H128.917C128.749 14.536 128.509 15.568 128.173 16.576C129.253 17.128 130.237 17.68 130.933 18.16ZM126.133 22.456L127.165 21.4C128.701 22.216 130.573 23.512 131.437 24.52L130.333 25.696C129.469 24.712 127.669 23.32 126.133 22.456ZM121.285 11.752V13.192H114.709V11.752H121.285ZM122.029 14.896V16.36H113.533V14.896H122.029ZM121.357 18.136V19.552H114.589V18.136H121.357ZM114.589 22.744V21.304H121.357V22.744H114.589ZM119.845 25.984H116.077V30.016H119.845V25.984ZM121.381 24.52V31.456H116.077V32.56H114.565V24.52H121.381ZM122.845 31.528L121.549 30.688C122.677 29.488 123.205 27.4 123.445 25.432L124.885 25.792C124.645 27.904 124.117 30.208 122.845 31.528ZM128.149 31.072H130.381C131.005 31.072 131.125 30.736 131.197 28.336C131.533 28.648 132.205 28.888 132.685 29.032C132.517 31.912 132.085 32.632 130.573 32.632H127.909C126.133 32.632 125.701 32.152 125.701 30.376V24.616H127.357V30.376C127.357 30.976 127.453 31.072 128.149 31.072ZM131.677 25.576L133.117 25C134.413 26.752 135.493 29.08 135.829 30.712L134.269 31.36C133.957 29.752 132.901 27.352 131.677 25.576ZM148.237 15.784V19.744C148.237 19.984 148.237 20.272 148.213 20.56H152.725V22.264H148.117C148.069 22.792 147.973 23.344 147.877 23.872C149.005 25 151.909 28.24 152.653 29.08L151.453 30.592C150.637 29.416 148.765 27.16 147.469 25.696C146.701 28.24 145.237 30.832 142.501 32.776C142.261 32.392 141.637 31.72 141.253 31.456C144.901 28.864 146.029 25.408 146.341 22.264H141.517V20.56H146.461C146.461 20.272 146.461 19.984 146.461 19.72V15.784H144.637C144.061 17.224 143.437 18.52 142.693 19.552C142.381 19.24 141.637 18.76 141.229 18.52C142.645 16.672 143.629 13.816 144.205 10.912L145.933 11.248C145.741 12.256 145.477 13.216 145.189 14.128H152.029V15.784H148.237ZM155.221 28.576H160.285V14.68H155.221V28.576ZM153.493 13H162.061V31.912H160.285V30.256H155.221V32.152H153.493V13ZM172.693 19.984L171.277 20.728C171.037 19.552 170.245 17.656 169.453 16.24L170.773 15.616C171.613 16.984 172.453 18.808 172.693 19.984ZM184.261 25.168V30.616H191.197V32.2H174.493V30.616H177.373V22.408H179.029V30.616H182.533V19.336H176.269V17.776H190.453V19.336H184.261V23.608H190.045V25.168H184.261ZM182.317 13.696H191.197V15.28H174.805V20.8C174.805 24.496 174.301 29.584 171.013 32.872C170.773 32.56 170.101 31.912 169.741 31.672C171.685 29.704 172.501 27.208 172.861 24.76C171.781 25.384 170.701 26.008 169.693 26.56L169.069 24.928C170.125 24.472 171.541 23.728 173.029 22.96C173.077 22.192 173.101 21.472 173.101 20.776V13.696H180.469V10.936H182.317V13.696ZM201.229 18.808L199.693 19.624C199.237 18.28 198.109 16.168 197.005 14.656L198.445 13.96C199.573 15.472 200.773 17.464 201.229 18.808ZM201.565 23.728V10.936H203.269V32.8H201.565V25.648C200.221 26.608 198.853 27.52 197.653 28.312L196.765 26.536C197.965 25.864 199.789 24.808 201.565 23.728ZM216.349 10.912L217.621 12.304C214.189 13.336 208.981 14.104 204.541 14.584C204.493 14.152 204.253 13.528 204.037 13.144C208.429 12.64 213.493 11.824 216.349 10.912ZM212.341 18.808L210.685 19.24C210.589 18.112 210.133 16.288 209.605 14.896L211.165 14.512C211.741 15.904 212.221 17.68 212.341 18.808ZM208.165 19.648L206.581 20.224C206.341 19.072 205.645 17.224 204.925 15.808L206.389 15.328C207.181 16.672 207.901 18.472 208.165 19.648ZM206.197 25.672L207.637 24.904C208.861 26.128 210.253 27.88 210.853 29.08L209.317 29.992C208.765 28.792 207.445 26.968 206.197 25.672ZM218.989 22.264V23.92H215.725V30.664C215.725 31.696 215.509 32.224 214.741 32.512C213.997 32.776 212.725 32.8 210.853 32.8C210.781 32.32 210.517 31.576 210.253 31.072C211.741 31.12 213.085 31.12 213.469 31.096C213.877 31.072 213.973 31 213.973 30.64V23.92H204.253V22.264H213.973V20.752L212.797 20.08C214.141 18.52 215.941 16.072 216.925 14.2L218.557 15.016C217.381 16.84 215.869 18.88 214.597 20.368H215.725V22.264H218.989ZM246.493 23.2H238.021C240.205 26.128 243.757 28.984 246.997 30.376C246.613 30.736 246.037 31.408 245.749 31.888C242.557 30.304 239.125 27.304 236.797 24.136V32.824H234.949V24.184C232.621 27.352 229.213 30.232 226.069 31.792C225.781 31.36 225.205 30.688 224.821 30.328C228.037 28.936 231.565 26.128 233.749 23.2H225.325V21.496H234.949V15.52H226.453V13.816H234.949V10.936H236.797V13.816H245.485V15.52H236.797V21.496H246.493V23.2ZM228.397 16.672L229.957 16.072C230.917 17.464 231.901 19.312 232.237 20.56L230.557 21.208C230.245 20.008 229.333 18.064 228.397 16.672ZM241.069 21.256L239.581 20.752C240.397 19.456 241.429 17.416 242.005 15.976L243.829 16.552C242.989 18.184 241.933 20.08 241.069 21.256ZM257.029 12.976H259.237C259.189 13.432 259.165 14.128 259.165 14.704V22.72C259.165 23.32 259.189 24.112 259.237 24.544H257.029C257.053 24.184 257.125 23.416 257.125 22.696V14.704C257.125 14.272 257.077 13.432 257.029 12.976ZM268.141 12.808H270.349C270.301 13.384 270.253 14.08 270.253 14.872V18.76C270.253 24.52 269.485 26.416 267.757 28.48C266.197 30.352 263.797 31.384 262.045 31.984L260.485 30.328C262.693 29.776 264.757 28.816 266.245 27.136C267.973 25.144 268.261 23.2 268.261 18.664V14.872C268.261 14.08 268.189 13.384 268.141 12.808ZM297.541 14.008L298.765 14.944C298.621 15.136 298.309 15.664 298.165 16C297.349 18.064 295.837 20.872 294.133 23.032C296.653 25.192 299.581 28.312 301.141 30.184L299.461 31.648C297.853 29.536 295.309 26.704 292.861 24.52C290.293 27.28 287.053 29.92 283.501 31.528L281.965 29.92C285.829 28.408 289.381 25.552 291.853 22.792C293.485 20.944 295.237 18.088 295.837 16.12H286.477C285.637 16.12 284.317 16.216 284.053 16.24V14.056C284.389 14.104 285.757 14.224 286.477 14.224H295.741C296.533 14.224 297.157 14.128 297.541 14.008ZM326.725 15.04L328.333 16C328.141 16.336 327.901 16.888 327.757 17.272C327.109 19.672 325.645 22.936 323.509 25.528C321.325 28.192 318.469 30.4 313.957 32.056L312.229 30.496C316.621 29.2 319.621 27.016 321.805 24.472C323.677 22.264 325.141 19.168 325.621 16.984H317.509C316.069 19 314.053 21.136 311.437 22.888L309.781 21.64C313.933 19.168 316.285 15.688 317.317 13.528C317.581 13.12 317.917 12.256 318.061 11.632L320.293 12.376C319.885 13 319.453 13.792 319.213 14.248C319.045 14.584 318.853 14.92 318.637 15.256H325.165C325.813 15.256 326.341 15.184 326.725 15.04ZM356.629 19.696L358.045 20.368C356.773 22.456 355.213 24.736 353.749 26.2L352.309 25.288C353.197 24.328 354.253 22.936 355.117 21.544H348.301V30.592C348.301 31.696 348.013 32.2 347.173 32.464C346.333 32.728 344.941 32.752 342.853 32.752C342.733 32.248 342.421 31.528 342.181 31.024C343.837 31.096 345.445 31.072 345.925 31.048C346.357 31.024 346.501 30.928 346.501 30.568V21.544H336.613V19.84H349.045C347.005 18.808 344.269 17.56 342.133 16.648L343.045 15.328C344.365 15.856 345.925 16.504 347.389 17.152C348.901 16.288 350.653 15.04 351.949 13.864H338.869V12.208H353.677L354.085 12.112L355.381 13.096C353.677 14.8 351.301 16.624 349.141 17.968C350.125 18.4 351.061 18.856 351.733 19.216L351.325 19.84H356.269L356.629 19.696ZM372.157 17.992V20.944H375.949V17.992H372.157ZM372.157 22.432V25.432H375.949V22.432H372.157ZM372.157 13.576V16.504H375.949V13.576H372.157ZM370.621 11.992H377.557V26.992H370.621V11.992ZM374.845 28.168L376.189 27.424C377.173 28.552 378.373 30.136 378.925 31.096L377.509 31.984C376.981 30.976 375.805 29.344 374.845 28.168ZM371.605 27.496L373.261 27.928C372.445 29.776 371.077 31.696 369.805 32.896C369.517 32.632 368.797 32.152 368.413 31.912C369.685 30.808 370.909 29.128 371.605 27.496ZM383.533 10.936H385.141V30.592C385.141 31.696 384.877 32.2 384.205 32.488C383.533 32.776 382.405 32.824 380.437 32.824C380.365 32.368 380.149 31.6 379.909 31.144C381.325 31.192 382.597 31.168 382.957 31.144C383.365 31.144 383.533 31.024 383.533 30.616V10.936ZM379.357 13.384H380.941V27.016H379.357V13.384ZM365.101 12.448L366.133 11.176C367.477 11.8 369.109 12.808 369.925 13.6L368.869 15.016C368.101 14.224 366.445 13.12 365.101 12.448ZM364.069 18.856L365.077 17.56C366.469 18.112 368.173 19.024 369.013 19.768L368.005 21.232C367.189 20.488 365.485 19.48 364.069 18.856ZM364.573 31.576C365.533 29.728 366.901 26.656 367.885 23.968L369.301 24.904C368.413 27.4 367.213 30.328 366.181 32.536L364.573 31.576ZM411.829 15.352C412.693 15.352 413.413 14.632 413.413 13.768C413.413 12.904 412.693 12.16 411.829 12.16C410.941 12.16 410.245 12.904 410.245 13.768C410.245 14.632 410.941 15.352 411.829 15.352ZM396.445 14.56H408.469C408.709 14.56 408.973 14.56 409.261 14.536C409.189 14.296 409.141 14.032 409.141 13.768C409.141 12.28 410.341 11.056 411.829 11.056C413.317 11.056 414.517 12.28 414.517 13.768C414.517 15.256 413.317 16.456 411.829 16.456C411.517 16.456 411.205 16.408 410.917 16.312L410.869 16.576C410.341 19.096 409.189 22.96 407.293 25.432C405.085 28.24 402.229 30.472 397.837 31.84L396.205 30.04C400.861 28.888 403.549 26.848 405.565 24.28C407.269 22.096 408.373 18.76 408.709 16.456H396.421C395.485 16.456 394.645 16.504 394.045 16.528V14.416C394.693 14.488 395.653 14.56 396.445 14.56ZM437.389 16.504H424.261V27.904H437.389V16.504ZM439.357 16.432V28.264C439.357 29.032 439.381 30.88 439.405 31.144H437.341C437.341 30.976 437.365 30.424 437.365 29.776H424.261C424.285 30.4 424.285 30.976 424.309 31.144H422.245C422.269 30.856 422.317 29.08 422.317 28.24V16.432C422.317 15.88 422.317 15.136 422.269 14.56C423.205 14.584 423.853 14.608 424.405 14.608H437.293C437.821 14.608 438.685 14.608 439.405 14.56C439.357 15.16 439.357 15.832 439.357 16.432ZM456.901 15.832H463.405C464.053 15.832 464.581 15.76 464.965 15.616L466.549 16.576C466.357 16.912 466.117 17.464 465.997 17.848C465.349 20.272 463.885 23.512 461.749 26.128C459.565 28.792 456.685 30.976 452.197 32.656L450.445 31.072C454.861 29.776 457.861 27.616 460.045 25.048C461.917 22.864 463.381 19.744 463.861 17.56H455.773C454.309 19.6 452.317 21.736 449.677 23.464L448.021 22.24C452.149 19.768 454.501 16.264 455.557 14.128C455.797 13.696 456.157 12.832 456.301 12.208L458.509 12.952C458.125 13.576 457.693 14.392 457.453 14.824C457.285 15.16 457.093 15.496 456.901 15.832ZM463.693 12.352L464.965 11.8C465.565 12.664 466.429 14.104 466.933 15.088L465.637 15.664C465.157 14.704 464.341 13.24 463.693 12.352ZM466.333 11.392L467.605 10.84C468.229 11.728 469.165 13.216 469.597 14.104L468.325 14.68C467.797 13.648 467.005 12.28 466.333 11.392ZM494.149 18.592L495.517 19.456C495.397 19.672 495.253 19.984 495.205 20.152C494.557 22.528 493.477 25.024 491.701 26.968C489.181 29.728 486.157 31.144 483.109 31.984L481.621 30.28C485.029 29.584 488.029 28.024 490.069 25.888C491.533 24.352 492.493 22.312 492.925 20.584H480.181C479.605 20.584 478.693 20.608 477.853 20.656V18.64C478.717 18.736 479.533 18.784 480.181 18.784H492.829C493.381 18.784 493.885 18.736 494.149 18.592ZM479.989 15.112V13.12C480.613 13.216 481.381 13.24 482.149 13.24H491.581C492.349 13.24 493.189 13.216 493.765 13.12V15.112C493.189 15.064 492.373 15.04 491.557 15.04H482.149C481.405 15.04 480.637 15.064 479.989 15.112ZM523.95 30.904L521.958 31.816C521.646 30.952 521.166 29.848 520.638 28.672C516.918 29.152 508.902 30.04 505.686 30.328C505.086 30.376 504.39 30.496 503.694 30.592L503.334 28.36C504.054 28.384 504.87 28.36 505.566 28.336C505.926 28.312 506.334 28.288 506.766 28.264C508.11 24.952 510.558 17.272 511.23 14.92C511.518 13.816 511.614 13.24 511.71 12.616L514.086 13.096C513.846 13.696 513.582 14.32 513.27 15.328C512.55 17.584 510.198 24.952 508.998 28.072C512.526 27.736 517.134 27.208 519.75 26.872C518.79 24.976 517.734 23.104 516.846 21.952L518.646 21.136C520.35 23.608 522.966 28.432 523.95 30.904Z" fill="white"/>
<defs>
<clipPath id="clip0_401_2337">
<rect width="586" height="84" fill="white" transform="translate(0 63)"/>
</clipPath>
</defs>
</svg>
